<svg width="49" height="29" viewBox="0 0 49 29" fill="none" xmlns="http://www.w3.org/2000/svg">
<g clip-path="url(#clip0_1297_7711)" filter="url(#filter0_d_1297_7711)">
<path d="M45.1774 0H3.75769C2.78694 0 2 0.747805 2 1.67027V23.1245C2 24.0469 2.78694 24.7947 3.75769 24.7947H45.1774C46.1481 24.7947 46.9351 24.0469 46.9351 23.1245V1.67027C46.9351 0.747805 46.1481 0 45.1774 0Z" fill="url(#paint0_radial_1297_7711)"/>
<path d="M10.5651 13.4188C10.5651 13.6094 10.6604 13.6306 10.7768 13.6306H11.1051C11.4651 13.6306 12.418 13.6729 12.418 14.7C12.418 14.9224 12.3863 15.8329 11.2427 15.8329C10.9039 15.8329 10.5757 15.7694 10.2157 15.6106C9.9192 15.4835 9.80273 15.3988 9.71802 15.3988C9.64391 15.3988 9.61214 15.4624 9.60155 15.5047L9.3792 16.2882C9.35802 16.3518 9.34744 16.4682 9.64391 16.5953C10.0992 16.7859 10.8086 16.9447 11.3804 16.9447C12.9369 16.9447 13.7945 15.96 13.7945 14.7C13.7945 13.9377 13.3922 13.2177 12.5557 12.9635C13.0851 12.7306 13.551 12.2647 13.551 11.4071C13.551 10.2424 12.6827 9.51177 11.4757 9.51177C10.6604 9.51177 10.0251 9.89295 9.70744 10.3377C9.65449 10.4012 9.58038 10.5282 9.58038 10.5918C9.58038 10.6447 9.61214 10.6871 9.63332 10.6977L10.2157 11.2165C10.2368 11.2377 10.2686 11.2694 10.3004 11.2694C10.3745 11.2694 10.4592 11.1529 10.5333 11.0682C10.6074 10.9941 10.9463 10.6235 11.4227 10.6235C11.8463 10.6235 12.2804 10.8988 12.2804 11.4918C12.2804 12.0318 12.0263 12.4871 11.1263 12.4871H10.7768C10.6604 12.4871 10.5651 12.5082 10.5651 12.7094V13.4188ZM20.1756 13.2282C20.1756 10.1682 18.7674 9.51177 17.6662 9.51177C16.565 9.51177 15.1568 10.1682 15.1568 13.2282C15.1568 16.1612 16.438 16.9447 17.6662 16.9447C18.8944 16.9447 20.1756 16.1612 20.1756 13.2282ZM17.6662 15.8012C16.5968 15.8012 16.5015 14.3824 16.5015 13.2282C16.5015 12.0741 16.5968 10.6553 17.6662 10.6553C18.7356 10.6553 18.8309 12.0741 18.8309 13.2282C18.8309 14.3824 18.7356 15.8012 17.6662 15.8012ZM26.0591 13.2282C26.0591 10.1682 24.6509 9.51177 23.5497 9.51177C22.4485 9.51177 21.0403 10.1682 21.0403 13.2282C21.0403 16.1612 22.3215 16.9447 23.5497 16.9447C24.778 16.9447 26.0591 16.1612 26.0591 13.2282ZM23.5497 15.8012C22.4803 15.8012 22.385 14.3824 22.385 13.2282C22.385 12.0741 22.4803 10.6553 23.5497 10.6553C24.6191 10.6553 24.7144 12.0741 24.7144 13.2282C24.7144 14.3824 24.6191 15.8012 23.5497 15.8012ZM31.9427 13.2282C31.9427 10.1682 30.5344 9.51177 29.4332 9.51177C28.3321 9.51177 26.9238 10.1682 26.9238 13.2282C26.9238 16.1612 28.205 16.9447 29.4332 16.9447C30.6615 16.9447 31.9427 16.1612 31.9427 13.2282ZM29.4332 15.8012C28.3638 15.8012 28.2685 14.3824 28.2685 13.2282C28.2685 12.0741 28.3638 10.6553 29.4332 10.6553C30.5027 10.6553 30.598 12.0741 30.598 13.2282C30.598 14.3824 30.5027 15.8012 29.4332 15.8012ZM35.7974 16.7647V15.6318H34.9503V14.6047H35.7974V13.7788H34.9503V12.4659H35.7974V9.20471H38.2115C39.1856 9.20471 39.895 9.40236 40.3397 9.79765C40.7915 10.1929 41.0174 10.7365 41.0174 11.4282C41.0174 11.8377 40.9256 12.2224 40.7421 12.5824C40.5586 12.9424 40.2515 13.2318 39.8209 13.4506C39.3974 13.6694 38.8186 13.7788 38.0845 13.7788H37.3962V14.6047H39.0268V15.6318H37.3962V16.7647H35.7974ZM37.9256 12.4659C38.3774 12.4659 38.7339 12.3882 38.995 12.2329C39.2633 12.0777 39.3974 11.8271 39.3974 11.4812C39.3974 10.8388 38.9739 10.5177 38.1268 10.5177H37.3962V12.4659H37.9256Z" fill="#651905"/>
</g>
<defs>
<filter id="filter0_d_1297_7711" x="0" y="0" width="49" height="28.7059" filterUnits="userSpaceOnUse" color-interpolation-filters="sRGB">
<feFlood flood-opacity="0" result="BackgroundImageFix"/>
<feColorMatrix in="SourceAlpha" type="matrix" values="0 0 0 0 0 0 0 0 0 0 0 0 0 0 0 0 0 0 127 0" result="hardAlpha"/>
<feOffset dy="2"/>
<feGaussianBlur stdDeviation="1"/>
<feComposite in2="hardAlpha" operator="out"/>
<feColorMatrix type="matrix" values="0 0 0 0 0 0 0 0 0 0 0 0 0 0 0 0 0 0 0.25 0"/>
<feBlend mode="normal" in2="BackgroundImageFix" result="effect1_dropShadow_1297_7711"/>
<feBlend mode="normal" in="SourceGraphic" in2="effect1_dropShadow_1297_7711" result="shape"/>
</filter>
<radialGradient id="paint0_radial_1297_7711" cx="0" cy="0" r="1" gradientUnits="userSpaceOnUse" gradientTransform="translate(24.2935 -35.5822) scale(98.0012 93.1271)">
<stop stop-color="#F3BD38"/>
<stop offset="0.03" stop-color="#E4B035"/>
<stop offset="0.09" stop-color="#D5A433"/>
<stop offset="0.13" stop-color="#D09F32"/>
<stop offset="0.19" stop-color="#BB821A"/>
<stop offset="0.24" stop-color="#E1A034"/>
<stop offset="0.31" stop-color="#F7CC58"/>
<stop offset="0.4" stop-color="#FBE37D"/>
<stop offset="0.46" stop-color="#FDEF91"/>
<stop offset="0.5" stop-color="#FCE580"/>
<stop offset="0.57" stop-color="#FBD460"/>
<stop offset="0.71" stop-color="#D6A738"/>
<stop offset="0.76" stop-color="#FCE575"/>
<stop offset="0.85" stop-color="#D09F32"/>
<stop offset="0.95" stop-color="#F9D160"/>
<stop offset="1" stop-color="#D09F32"/>
</radialGradient>
<clipPath id="clip0_1297_7711">
<rect width="45" height="24.7059" fill="white" transform="translate(2)"/>
</clipPath>
</defs>
</svg>
