<svg width="172" height="172" viewBox="0 0 172 172" fill="none" xmlns="http://www.w3.org/2000/svg">
<g filter="url(#filter0_d_1008_5723)">
<path d="M145.031 84.2062C141.898 84.3043 138.816 83.3417 136.285 81.4749C133.755 79.608 131.926 76.9466 131.094 73.9233C130.262 70.9 130.478 67.6925 131.705 64.8222C132.932 61.9518 135.099 59.5874 137.853 58.1132L134.361 45.4176C133.636 42.7871 131.897 40.5436 129.525 39.1802C127.154 37.8167 124.344 37.4448 121.713 38.1463L105.063 42.5928C105.354 43.6503 105.213 44.7766 104.671 45.7241C104.129 46.6715 103.231 47.3624 102.173 47.6448C101.116 47.9272 99.9862 47.778 99.0329 47.2299C98.0795 46.6818 97.3804 45.7798 97.0896 44.7223L30.2367 62.5763C27.6203 63.3015 25.4011 65.0246 24.0565 67.3751C22.7118 69.7256 22.349 72.5159 23.046 75.1459L26.5382 87.8415C29.6939 87.6956 32.8127 88.6317 35.3769 90.4944C37.9411 92.3572 39.7963 95.0345 40.6345 98.0819C41.4727 101.129 41.2435 104.363 39.985 107.247C38.7264 110.131 36.5141 112.49 33.7156 113.935L37.2484 126.654C37.599 127.956 38.2044 129.178 39.0297 130.249C39.8549 131.32 40.8836 132.219 42.0562 132.893C43.2287 133.567 44.5219 134.003 45.8607 134.176C47.1996 134.349 48.5576 134.256 49.8561 133.901L116.75 116.071C116.465 115.022 116.607 113.906 117.144 112.968C117.681 112.029 118.57 111.343 119.617 111.059C120.136 110.909 120.681 110.866 121.219 110.932C121.757 110.998 122.278 111.171 122.749 111.442C123.219 111.712 123.632 112.075 123.96 112.507C124.288 112.94 124.526 113.433 124.66 113.958L141.332 109.471C143.962 108.768 146.197 107.049 147.546 104.692C148.894 102.335 149.245 99.5329 148.523 96.9019L145.031 84.2062ZM106.525 63.4665C107.574 63.1905 108.693 63.3404 109.638 63.8835C110.582 64.4266 111.276 65.3188 111.568 66.3657C111.766 66.901 111.85 67.4706 111.816 68.0383C111.781 68.606 111.629 69.1595 111.368 69.6638C111.108 70.168 110.745 70.612 110.303 70.9675C109.86 71.3231 109.348 71.5825 108.798 71.7293C108.248 71.8761 107.673 71.9072 107.109 71.8204C106.545 71.7337 106.004 71.5311 105.521 71.2254C105.038 70.9198 104.623 70.5178 104.302 70.0449C103.981 69.572 103.762 69.0385 103.658 68.4782C103.374 67.4293 103.516 66.3138 104.053 65.375C104.59 64.4362 105.479 63.7501 106.525 63.4665ZM103.261 51.6003C103.781 51.4505 104.326 51.4072 104.864 51.4729C105.402 51.5386 105.922 51.7121 106.393 51.9828C106.864 52.2535 107.276 52.616 107.605 53.0484C107.933 53.4809 108.171 53.9744 108.304 54.4994C108.523 55.285 108.504 56.1162 108.25 56.8874C107.995 57.6586 107.515 58.3352 106.873 58.8313C106.23 59.3274 105.453 59.6207 104.639 59.674C103.826 59.7272 103.013 59.5381 102.304 59.1305C101.595 58.723 101.022 58.1153 100.657 57.3847C100.292 56.6541 100.152 55.8334 100.255 55.0267C100.357 54.22 100.698 53.4637 101.233 52.8537C101.768 52.2437 102.474 51.8074 103.261 51.6003ZM111.983 83.3074C111.198 83.5132 110.369 83.4822 109.598 83.2183C108.828 82.9544 108.151 82.4693 107.654 81.8243C107.156 81.1793 106.86 80.4032 106.802 79.5937C106.744 78.7842 106.928 77.9776 107.33 77.2755C107.731 76.5734 108.333 76.0072 109.059 75.6483C109.785 75.2893 110.603 75.1537 111.41 75.2585C112.216 75.3633 112.976 75.7038 113.592 76.2371C114.208 76.7704 114.654 77.4726 114.873 78.2553C115.156 79.3125 115.012 80.4353 114.471 81.3808C113.93 82.3263 113.036 83.0184 111.983 83.3074ZM115.247 95.1737C114.728 95.3235 114.182 95.3668 113.644 95.3011C113.106 95.2353 112.586 95.0619 112.115 94.7911C111.644 94.5204 111.232 94.158 110.904 93.7255C110.575 93.2931 110.337 92.7995 110.204 92.2745C110.016 91.2611 110.215 90.2171 110.763 89.3489C111.31 88.4807 112.166 87.8516 113.16 87.586C114.154 87.3205 115.215 87.4378 116.132 87.9148C117.05 88.3918 117.757 89.1938 118.114 90.162C118.268 90.6815 118.315 91.2259 118.254 91.7626C118.192 92.2993 118.022 92.8171 117.754 93.2851C117.487 93.7531 117.126 94.1616 116.696 94.4862C116.265 94.8107 115.772 95.0445 115.247 95.1737ZM118.488 107.08C117.439 107.356 116.32 107.207 115.376 106.663C114.431 106.12 113.737 105.228 113.445 104.181C113.162 103.124 113.306 102.001 113.847 101.056C114.388 100.11 115.282 99.4181 116.335 99.1291C116.857 98.9919 117.402 98.9589 117.938 99.032C118.475 99.1051 118.992 99.2828 119.461 99.5549C119.93 99.8271 120.342 100.188 120.672 100.618C121.003 101.048 121.245 101.538 121.387 102.06C121.528 102.582 121.565 103.126 121.496 103.661C121.427 104.196 121.253 104.711 120.984 105.177C120.714 105.643 120.355 106.051 119.927 106.378C119.499 106.705 119.01 106.943 118.488 107.08Z" fill="url(#paint0_radial_1008_5723)"/>
</g>
<path d="M55.8831 99.1996L53.0427 99.9584L50.0329 88.6553C49.9842 88.4727 49.8842 88.2603 49.519 88.3578L47.5713 88.8782C47.3887 88.927 47.1764 89.0272 47.2736 89.3924L50.759 102.481C50.8076 102.664 50.9076 102.876 51.2728 102.779L64.4198 99.2665C64.785 99.169 64.7661 98.9349 64.7175 98.7523L61.2321 85.6634C61.1835 85.4807 61.0834 85.2684 60.7183 85.3659L58.7706 85.8863C58.4054 85.9838 58.4242 86.2179 58.4729 86.4005L61.4827 97.7036L58.6423 98.4625L55.6325 87.1593C55.5838 86.9767 55.4838 86.7643 55.1186 86.8619L53.1709 87.3822C52.9883 87.431 52.776 87.5312 52.8733 87.8965L55.8831 99.1996ZM67.7221 83.4948C67.4583 83.5653 67.4704 83.6925 67.4582 83.8914L66.9332 98.1603C66.925 98.2929 66.9195 98.5987 67.3456 98.4849L69.5164 97.9049C69.7802 97.8345 69.7735 97.7276 69.7682 97.3812L69.7246 93.8715L73.2142 92.9393L74.9823 95.9882C75.2121 96.3616 75.2784 96.3656 75.5218 96.3006L77.7738 95.6989C77.8753 95.6718 78.0931 95.5919 78.0336 95.3687C78.0066 95.2672 77.9498 95.2172 77.9079 95.1414L70.446 83.1149C70.3311 82.9282 70.2581 82.8173 70.0552 82.8715L67.7221 83.4948ZM72.2207 91.2484L69.5426 91.9639L69.5059 88.235C69.4982 86.7372 69.3591 85.9702 69.2335 85.4168L69.2944 85.4006C69.8295 86.7574 70.1553 87.4094 70.4594 87.9803L72.2207 91.2484ZM80.1614 94.6263C80.2641 95.0119 80.4724 94.978 80.6753 94.9238L82.6229 94.4035C82.8258 94.3493 83.0233 94.2748 82.9206 93.8892L81.3968 88.1666L85.2313 87.1422L86.7552 92.8648C86.8578 93.2504 87.0661 93.2164 87.269 93.1622L89.2167 92.6419C89.6022 92.5389 89.5684 92.3306 89.5144 92.1276L86.029 79.0387C85.975 78.8358 85.9007 78.6383 85.5152 78.7413L83.5675 79.2616C83.3646 79.3158 83.1671 79.3903 83.2698 79.7759L84.6477 84.9506L80.8132 85.975L79.4353 80.8003C79.3326 80.4147 79.1243 80.4486 78.9214 80.5028L76.9738 81.0232C76.7709 81.0774 76.5734 81.1519 76.6761 81.5374L80.1614 94.6263ZM99.6702 87.2843C99.5823 87.1991 99.5147 87.1085 99.3524 87.1518C99.2104 87.1898 99.0805 87.3549 98.91 87.5308C98.4487 88.0019 97.9496 88.3309 97.3815 88.4826C96.4482 88.7319 95.7815 88.4319 95.3691 88.1073C94.374 87.3081 93.6971 85.0109 93.4593 84.1181C92.7461 81.4394 92.691 80.1717 93.1321 79.38C93.4095 78.8711 93.9128 78.4759 94.6026 78.2916C95.2518 78.1181 95.8401 78.287 96.4811 78.5722C96.6041 78.6263 96.8245 78.7196 96.9665 78.6816C97.0883 78.6491 97.1018 78.5368 97.1357 78.4191L97.5838 77.0821C97.6027 76.9901 97.642 76.8927 97.6149 76.7912C97.5825 76.6695 97.4379 76.5342 97.089 76.3666C96.0883 75.8732 94.7697 75.8994 93.7755 76.165C91.6249 76.7395 88.9465 78.7593 90.6162 85.0298C91.3835 87.9114 93.0958 91.9751 97.7216 90.7393C98.9389 90.4141 100.079 89.7182 100.633 88.94C100.698 88.8574 100.822 88.672 100.784 88.53C100.763 88.4488 100.721 88.373 100.602 88.2527L99.6702 87.2843Z" fill="#651905"/>
<defs>
<filter id="filter0_d_1008_5723" x="22.6992" y="37.7996" width="135.191" height="104.461" filterUnits="userSpaceOnUse" color-interpolation-filters="sRGB">
<feFlood flood-opacity="0" result="BackgroundImageFix"/>
<feColorMatrix in="SourceAlpha" type="matrix" values="0 0 0 0 0 0 0 0 0 0 0 0 0 0 0 0 0 0 127 0" result="hardAlpha"/>
<feOffset dx="5" dy="4"/>
<feGaussianBlur stdDeviation="2"/>
<feComposite in2="hardAlpha" operator="out"/>
<feColorMatrix type="matrix" values="0 0 0 0 0 0 0 0 0 0 0 0 0 0 0 0 0 0 0.25 0"/>
<feBlend mode="normal" in2="BackgroundImageFix" result="effect1_dropShadow_1008_5723"/>
<feBlend mode="normal" in="SourceGraphic" in2="effect1_dropShadow_1008_5723" result="shape"/>
</filter>
<radialGradient id="paint0_radial_1008_5723" cx="0" cy="0" r="1" gradientUnits="userSpaceOnUse" gradientTransform="translate(205.329 -123.887) rotate(29.8939) scale(274.188 468.884)">
<stop stop-color="#F3BD38"/>
<stop offset="0.03" stop-color="#E4B035"/>
<stop offset="0.09" stop-color="#D5A433"/>
<stop offset="0.13" stop-color="#D09F32"/>
<stop offset="0.19" stop-color="#BB821A"/>
<stop offset="0.24" stop-color="#E1A034"/>
<stop offset="0.31" stop-color="#F7CC58"/>
<stop offset="0.4" stop-color="#FBE37D"/>
<stop offset="0.46" stop-color="#FDEF91"/>
<stop offset="0.5" stop-color="#FCE580"/>
<stop offset="0.57" stop-color="#FBD460"/>
<stop offset="0.71" stop-color="#D6A738"/>
<stop offset="0.76" stop-color="#FCE575"/>
<stop offset="0.85" stop-color="#D09F32"/>
<stop offset="0.95" stop-color="#F9D160"/>
<stop offset="1" stop-color="#D09F32"/>
</radialGradient>
</defs>
</svg>
