<svg width="50" height="24" viewBox="0 0 50 24" fill="none" xmlns="http://www.w3.org/2000/svg">
<g clip-path="url(#clip0_1297_7703)">
<path d="M43.1507 0H6.84932C3.06654 0 0 3.06654 0 6.84932V16.4384C0 20.2211 3.06654 23.2877 6.84932 23.2877H43.1507C46.9335 23.2877 50 20.2211 50 16.4384V6.84932C50 3.06654 46.9335 0 43.1507 0Z" fill="white"/>
<path d="M7.40479 9.50143H8.38348L9.6041 11.3143L10.8357 9.50143H11.8144V13.7865H10.7257V11.2908L9.6041 12.8565L8.49348 11.2908V13.7865H7.40479V9.50143Z" fill="black"/>
<path d="M14.2783 9.50143H17.6652V10.5021H15.356V11.1495H17.2034V12.1384H15.356V12.7741H17.6652V13.7865H14.2783V9.50143Z" fill="black"/>
<path d="M21.8332 11.1843H24.0105C24.0984 12.338 23.7026 13.9037 21.8661 13.9037C20.5795 13.9037 19.6338 12.8913 19.6338 11.6434C19.6338 10.3955 20.5795 9.38315 21.8661 9.38315C22.3241 9.37815 22.7726 9.52178 23.1528 9.79521C23.313 9.91041 23.4573 10.0491 23.5816 10.2072L22.9218 10.996C22.8304 10.8966 22.731 10.806 22.6249 10.7252C22.4049 10.5516 22.1394 10.4569 21.8661 10.4545C21.5716 10.4545 21.2891 10.5797 21.0808 10.8027C20.8725 11.0257 20.7555 11.3281 20.7555 11.6434C20.7555 11.9588 20.8725 12.2612 21.0808 12.4842C21.2891 12.7072 21.5716 12.8324 21.8661 12.8324C22.7569 12.8324 22.8998 12.0908 22.8998 12.0908H21.8332V11.1843Z" fill="black"/>
<path d="M34.1378 11.1845H36.3151C36.4031 12.3382 36.0072 13.9038 34.1598 13.9038C32.8842 13.9038 31.9385 12.8914 31.9385 11.6436C31.9385 10.3957 32.8842 9.38329 34.1598 9.38329C34.618 9.37603 35.0672 9.51986 35.4464 9.79534C35.6066 9.91055 35.7509 10.0492 35.8753 10.2073L35.2155 10.9961C35.1305 10.894 35.0345 10.8032 34.9295 10.7253C34.7051 10.5523 34.4363 10.4577 34.1598 10.4546C33.8652 10.4546 33.5827 10.5799 33.3744 10.8028C33.1661 11.0258 33.0491 11.3282 33.0491 11.6436C33.0491 11.9589 33.1661 12.2613 33.3744 12.4843C33.5827 12.7073 33.8652 12.8325 34.1598 12.8325C35.0615 12.8325 35.2044 12.0909 35.2044 12.0909H34.1378V11.1845Z" fill="black"/>
<path d="M27.9796 12.8329C28.1993 12.8329 28.414 12.7632 28.5967 12.6326C28.7793 12.5019 28.9217 12.3162 29.0057 12.099C29.0898 11.8817 29.1118 11.6427 29.069 11.412C29.0261 11.1814 28.9203 10.9695 28.765 10.8032C28.6096 10.6369 28.4118 10.5237 28.1963 10.4778C27.9809 10.4319 27.7575 10.4555 27.5546 10.5455C27.3516 10.6355 27.1782 10.7879 27.0562 10.9834C26.9341 11.1789 26.869 11.4088 26.869 11.644C26.8659 11.801 26.8927 11.9571 26.9474 12.1027C27.0022 12.2484 27.0839 12.3808 27.1876 12.4918C27.2914 12.6029 27.415 12.6903 27.5511 12.749C27.6872 12.8076 27.8329 12.8362 27.9796 12.8329ZM27.9796 9.3837C29.2553 9.3837 30.212 10.3843 30.212 11.644C30.212 12.9036 29.2553 13.9042 27.9796 13.9042C26.704 13.9042 25.7473 12.8918 25.7473 11.644C25.7473 10.3961 26.704 9.3837 27.9796 9.3837Z" fill="black"/>
<path d="M40.3737 12.8329C40.5929 12.8306 40.8066 12.759 40.9877 12.6269C41.1689 12.4949 41.3096 12.3084 41.392 12.0909C41.4743 11.8734 41.4948 11.6347 41.4507 11.4049C41.4066 11.175 41.2999 10.9642 41.1442 10.7992C40.9884 10.634 40.7905 10.522 40.5754 10.4771C40.3603 10.4321 40.1375 10.4563 39.9352 10.5466C39.7329 10.637 39.5601 10.7894 39.4385 10.9847C39.3169 11.1799 39.252 11.4093 39.252 11.644C39.2505 11.8016 39.2786 11.9579 39.3346 12.1036C39.3905 12.2494 39.4733 12.3816 39.5779 12.4925C39.6825 12.6034 39.8068 12.6906 39.9435 12.7491C40.0803 12.8076 40.2265 12.8361 40.3737 12.8329ZM40.3737 9.3837C41.6493 9.3837 42.595 10.3843 42.595 11.644C42.595 12.9036 41.6493 13.9042 40.3737 13.9042C39.0981 13.9042 38.1414 12.8918 38.1414 11.644C38.1414 10.3961 39.0871 9.3837 40.3737 9.3837Z" fill="black"/>
</g>
<defs>
<clipPath id="clip0_1297_7703">
<rect width="50" height="23.2877" fill="white"/>
</clipPath>
</defs>
</svg>
