<svg width="162" height="114" viewBox="0 0 162 114" fill="none" xmlns="http://www.w3.org/2000/svg">
<g filter="url(#filter0_d_1008_5733)">
<path d="M139.177 70.4468C139.375 67.3506 140.794 64.4594 143.121 62.4093C145.447 60.3591 148.491 59.318 151.583 59.515L153 37.4119L32.6681 29.7469L19.5673 41.2906L16.8185 84.1812L28.3391 97.2932L148.671 104.958L150.087 82.8552C148.557 82.7588 147.06 82.3614 145.683 81.6855C144.307 81.0097 143.076 80.0687 142.063 78.9164C141.05 77.764 140.273 76.4229 139.778 74.9697C139.283 73.5164 139.079 71.9795 139.177 70.4468Z" fill="url(#paint0_linear_1008_5733)"/>
</g>
<g filter="url(#filter1_d_1008_5733)">
<path d="M125.422 36.3905C124.841 33.3424 125.493 30.1895 127.235 27.6253C128.977 25.0612 131.665 23.2959 134.708 22.7177L130.564 0.958395L12.1178 23.4581L2.31146 37.8962L10.3534 80.1198L24.7827 89.9541L143.229 67.4543L139.085 45.695C137.578 45.9823 136.03 45.9695 134.528 45.6573C133.026 45.3452 131.599 44.7397 130.331 43.8756C129.062 43.0115 127.975 41.9057 127.133 40.6214C126.291 39.3371 125.709 37.8994 125.422 36.3905Z" fill="url(#paint1_radial_1008_5733)"/>
</g>
<path d="M25.1462 50.8459L28.6832 50.1752L30.7709 61.1178C30.8047 61.2946 30.8852 61.5032 31.2389 61.4362L33.1253 61.0785C33.3021 61.0449 33.5108 60.9646 33.4433 60.611L31.0257 47.9396C30.992 47.7628 30.9114 47.5541 30.5577 47.6212L22.462 49.1564C22.2852 49.1899 22.0765 49.2702 22.144 49.6238L24.5616 62.2952C24.5953 62.4721 24.6758 62.6807 25.0295 62.6136L26.9159 62.2559C27.2696 62.1889 27.2677 61.9653 27.234 61.7885L25.1462 50.8459ZM37.512 48.4399L38.3766 48.2759C39.1233 48.1343 40.3847 47.9155 40.7295 49.7229C41.0931 51.6285 40.003 51.9981 38.8633 52.2142L38.2542 52.3297L37.512 48.4399ZM38.659 54.4515L39.7004 54.254C42.4907 53.7249 43.8704 51.6719 43.3756 49.0786C43.0121 47.173 41.9984 46.4492 41.173 46.1782C40.1717 45.8388 38.9459 46.0306 38.0617 46.1982L34.8391 46.8093C34.6622 46.8429 34.4536 46.9231 34.5211 47.2768L36.9387 59.9482C36.9724 60.125 37.0529 60.3337 37.4066 60.2666L39.293 59.9089C39.6467 59.8418 39.6448 59.6183 39.611 59.4414L38.659 54.4515ZM55.8031 49.8162C55.5407 48.441 54.3555 42.7624 49.5609 43.6716C44.7664 44.5808 45.7439 50.2377 46.0175 51.6718C46.2874 53.0863 47.4614 58.706 52.2559 57.7968C57.0505 56.8876 56.073 51.2307 55.8031 49.8162ZM51.8511 55.6751C49.8665 56.0514 49.1151 52.7537 48.8078 51.1427C48.4517 49.2764 48.0794 46.151 49.9658 45.7933C51.8521 45.4356 52.653 48.4593 53.0128 50.3453C53.3202 51.9563 53.8357 55.2987 51.8511 55.6751ZM63.1117 51.9723C63.2044 52.1379 63.2147 52.2988 63.5291 52.2392L64.9242 51.9747C65.1993 51.9225 65.1694 51.7653 65.1946 51.5773L65.6623 47.5191C65.7771 46.5203 65.7741 45.5437 65.7616 44.3044L65.8205 44.2932C65.9217 44.8236 66.0192 45.3344 66.1204 45.8648C66.1504 46.022 66.1766 46.1595 66.2066 46.3167C66.3115 46.8668 66.3378 47.0043 66.4399 47.4328L67.8677 54.0628C67.9202 54.3379 68.0054 54.4642 68.2412 54.4195L70.2062 54.0469C70.3634 54.0171 70.5093 53.9283 70.4222 53.5784L67.5031 41.2667C67.371 40.6811 67.2457 40.6641 66.9706 40.7163L64.9663 41.0964C64.7108 41.1448 64.6978 41.2898 64.6725 41.4778L63.9469 46.7452C63.8208 47.6851 63.7096 48.2762 63.7679 49.2219L63.7286 49.2294C63.5909 48.828 63.0404 47.6499 62.6893 46.9837L60.1531 42.3348C59.9949 42.0391 59.9359 42.0503 59.7591 42.0838L57.6762 42.4788C57.46 42.5198 57.3964 42.6133 57.4405 42.951L59.3004 55.6874C59.3445 56.0251 59.497 56.0776 59.6935 56.0404L61.3245 55.7311C61.5996 55.6789 61.6089 55.5143 61.5601 55.2589L60.6313 49.4299C60.5385 48.8368 60.3998 48.1099 59.9059 45.4148L59.9649 45.4036C60.5127 46.8875 61.0754 48.0225 61.2411 48.3575L63.1117 51.9723ZM81.2865 44.9838C81.0241 43.6087 79.8389 37.9301 75.0443 38.8392C70.2498 39.7484 71.2273 45.4053 71.5009 46.8395C71.7707 48.254 72.9447 53.8736 77.7393 52.9644C82.5338 52.0553 81.5564 46.3983 81.2865 44.9838ZM77.3345 50.8427C75.3499 51.2191 74.5985 47.9213 74.2911 46.3104C73.9351 44.444 73.5627 41.3187 75.4491 40.961C77.3355 40.6033 78.1364 43.627 78.4962 45.513C78.8036 47.1239 79.3191 50.4664 77.3345 50.8427ZM87.5349 50.7609C87.7314 50.7236 87.9241 50.6667 87.8529 50.2934L86.7959 44.7534L87.6408 44.5931C88.8591 44.3621 89.155 45.0592 89.3854 45.6262L90.3067 47.8943C90.5446 48.5006 90.7928 49.2678 91.5031 49.6827C92.3033 50.1416 93.4542 49.9844 93.6704 49.9435C94.0044 49.8801 94.0175 49.7351 94.0465 49.5668L94.2725 47.9769C94.2893 47.8515 94.2677 47.6317 94.001 47.6212L93.4676 47.6002C92.8519 47.5745 92.7049 47.3377 92.3519 46.4479L91.7227 44.8573C91.5729 44.4989 91.0775 43.29 89.5569 43.1102L89.5456 43.0513C90.5355 42.4768 90.7271 41.6669 90.7147 40.855L90.6844 39.4154C90.6542 38.4034 90.8797 38.1978 91.3091 37.9942L91.7779 37.7831C91.9472 37.7103 91.9921 37.5186 91.8957 37.3333L91.2169 36.0167C91.1205 35.8315 90.9558 35.822 90.7986 35.8518C90.4056 35.9263 89.7244 36.198 89.222 36.6597C88.439 37.3578 88.4083 38.1575 88.4245 38.989L88.4483 40.7148C88.4608 41.9542 88.0024 42.3261 87.0592 42.5049L86.3911 42.6316L85.4353 37.622C85.3641 37.2487 85.1638 37.2663 84.9673 37.3036L83.081 37.6613C82.8845 37.6986 82.6917 37.7555 82.7629 38.1288L85.1805 50.8002C85.2517 51.1735 85.452 51.1558 85.6485 51.1186L87.5349 50.7609ZM104.218 40.6355C103.955 39.2603 102.77 33.5817 97.9755 34.4908C93.181 35.4 94.1585 41.0569 94.4321 42.4911C94.7019 43.9056 95.8759 49.5252 100.67 48.616C105.465 47.7069 104.488 42.0499 104.218 40.6355ZM100.266 46.4943C98.2811 46.8707 97.5297 43.5729 97.2223 41.962C96.8663 40.0956 96.4939 36.9703 98.3803 36.6126C100.267 36.2549 101.068 39.2786 101.427 41.1646C101.735 42.7755 102.25 46.118 100.266 46.4943ZM114.907 45.5704L115.439 48.36C115.473 48.5368 115.553 48.7455 115.907 48.6784L117.617 48.3543C117.97 48.2872 117.968 48.0636 117.935 47.8868L117.073 43.3683C117.039 43.1915 116.958 42.9829 116.605 43.0499L115.819 43.199L113.731 32.2564C113.697 32.0796 113.617 31.8709 113.263 31.938L106.837 33.1564C106.484 33.2235 106.486 33.4471 106.519 33.6239L107.223 37.4192C107.291 37.7728 107.616 39.5839 107.663 41.3256C107.695 42.5613 107.608 43.5957 107.192 44.8348L106.819 44.9056C106.465 44.9726 106.467 45.1962 106.501 45.373L107.363 49.8915C107.397 50.0683 107.477 50.277 107.831 50.2099L109.541 49.8857C109.717 49.8522 109.926 49.7719 109.859 49.4183L109.326 46.6286L114.907 45.5704ZM113.146 43.7057L109.806 44.3392C110.049 43.4788 110.17 42.6212 110.194 41.6802C110.226 40.7786 110.152 39.4288 109.794 37.3389L109.364 34.8757L111.388 34.4919L113.146 43.7057Z" fill="#651905"/>
<defs>
<filter id="filter0_d_1008_5733" x="16.8184" y="29.7469" width="145.182" height="84.2113" filterUnits="userSpaceOnUse" color-interpolation-filters="sRGB">
<feFlood flood-opacity="0" result="BackgroundImageFix"/>
<feColorMatrix in="SourceAlpha" type="matrix" values="0 0 0 0 0 0 0 0 0 0 0 0 0 0 0 0 0 0 127 0" result="hardAlpha"/>
<feOffset dx="5" dy="5"/>
<feGaussianBlur stdDeviation="2"/>
<feComposite in2="hardAlpha" operator="out"/>
<feColorMatrix type="matrix" values="0 0 0 0 0 0 0 0 0 0 0 0 0 0 0 0 0 0 0.25 0"/>
<feBlend mode="normal" in2="BackgroundImageFix" result="effect1_dropShadow_1008_5733"/>
<feBlend mode="normal" in="SourceGraphic" in2="effect1_dropShadow_1008_5733" result="shape"/>
</filter>
<filter id="filter1_d_1008_5733" x="2.31055" y="0.958374" width="149.918" height="97.9957" filterUnits="userSpaceOnUse" color-interpolation-filters="sRGB">
<feFlood flood-opacity="0" result="BackgroundImageFix"/>
<feColorMatrix in="SourceAlpha" type="matrix" values="0 0 0 0 0 0 0 0 0 0 0 0 0 0 0 0 0 0 127 0" result="hardAlpha"/>
<feOffset dx="5" dy="5"/>
<feGaussianBlur stdDeviation="2"/>
<feComposite in2="hardAlpha" operator="out"/>
<feColorMatrix type="matrix" values="0 0 0 0 0 0 0 0 0 0 0 0 0 0 0 0 0 0 0.25 0"/>
<feBlend mode="normal" in2="BackgroundImageFix" result="effect1_dropShadow_1008_5733"/>
<feBlend mode="normal" in="SourceGraphic" in2="effect1_dropShadow_1008_5733" result="shape"/>
</filter>
<linearGradient id="paint0_linear_1008_5733" x1="-196.91" y1="-82.2063" x2="381.651" y2="-45.1265" gradientUnits="userSpaceOnUse">
<stop stop-color="#651905"/>
<stop offset="0.911458" stop-color="#651905"/>
</linearGradient>
<radialGradient id="paint1_radial_1008_5733" cx="0" cy="0" r="1" gradientUnits="userSpaceOnUse" gradientTransform="translate(46.6015 -81.9711) rotate(-10.7556) scale(289.847 254.244)">
<stop stop-color="#F3BD38"/>
<stop offset="0.03" stop-color="#E4B035"/>
<stop offset="0.09" stop-color="#D5A433"/>
<stop offset="0.13" stop-color="#D09F32"/>
<stop offset="0.19" stop-color="#BB821A"/>
<stop offset="0.24" stop-color="#E1A034"/>
<stop offset="0.31" stop-color="#F7CC58"/>
<stop offset="0.4" stop-color="#FBE37D"/>
<stop offset="0.46" stop-color="#FDEF91"/>
<stop offset="0.5" stop-color="#FCE580"/>
<stop offset="0.57" stop-color="#FBD460"/>
<stop offset="0.71" stop-color="#D6A738"/>
<stop offset="0.76" stop-color="#FCE575"/>
<stop offset="0.85" stop-color="#D09F32"/>
<stop offset="0.95" stop-color="#F9D160"/>
<stop offset="1" stop-color="#D09F32"/>
</radialGradient>
</defs>
</svg>
