<svg width="56" height="39" viewBox="0 0 56 39" fill="none" xmlns="http://www.w3.org/2000/svg">
<g clip-path="url(#clip0_1297_7728)">
<g filter="url(#filter0_d_1297_7728)">
<path d="M45.4829 22.811C45.5478 21.7941 46.0114 20.8444 46.7717 20.171C47.5321 19.4976 48.5269 19.1557 49.5373 19.2204L50.0003 11.9604L10.6762 9.44275L6.39489 13.2344L5.49658 27.3223L9.26148 31.629L48.5856 34.1467L49.0485 26.8867C48.5482 26.8551 48.0592 26.7245 47.6093 26.5025C47.1593 26.2806 46.7573 25.9715 46.4262 25.593C46.095 25.2145 45.8413 24.774 45.6795 24.2967C45.5176 23.8193 45.4509 23.3145 45.4829 22.811Z" fill="url(#paint0_linear_1297_7728)"/>
</g>
<g filter="url(#filter1_d_1297_7728)">
<path d="M40.9945 11.6361C40.8044 10.6351 41.0173 9.59963 41.5862 8.75767C42.1552 7.91572 43.0336 7.33621 44.0283 7.14664L42.6716 0L3.96147 7.37792L0.757812 12.1187L3.3903 25.9866L8.10726 29.2179L46.8174 21.8399L45.4609 14.6933C44.9685 14.7875 44.4624 14.7832 43.9715 14.6805C43.4806 14.5778 43.0143 14.3788 42.5996 14.0949C42.1848 13.811 41.8295 13.4477 41.5541 13.0258C41.2787 12.604 41.0885 12.1318 40.9945 11.6361Z" fill="url(#paint1_radial_1297_7728)"/>
</g>
<path d="M7.76626 16.3533L8.84444 16.1479L9.47785 19.4846C9.48803 19.5385 9.51254 19.6021 9.62035 19.5816L10.1954 19.472C10.2493 19.4618 10.3129 19.4372 10.2924 19.3294L9.55895 15.4654C9.5487 15.4115 9.52425 15.3479 9.41645 15.3685L6.94864 15.8388C6.89474 15.8491 6.83114 15.8736 6.85157 15.9815L7.58504 19.8454C7.59529 19.8993 7.6198 19.9629 7.72761 19.9424L8.30261 19.8327C8.41041 19.8122 8.40992 19.744 8.39968 19.6901L7.76626 16.3533ZM11.5357 15.6163L11.7993 15.5661C12.0269 15.5227 12.4113 15.4556 12.516 16.0068C12.6263 16.5879 12.2939 16.7008 11.9465 16.7671L11.7608 16.8024L11.5357 15.6163ZM11.8836 17.4494L12.2011 17.389C13.0517 17.2268 13.4727 16.6003 13.3226 15.8096C13.2123 15.2285 12.9036 15.008 12.6521 14.9256C12.347 14.8223 11.9733 14.8811 11.7038 14.9325L10.7215 15.1197C10.6675 15.13 10.6039 15.1546 10.6244 15.2624L11.3579 19.1263C11.3682 19.1802 11.3926 19.2438 11.5004 19.2233L12.0755 19.1137C12.1833 19.0932 12.1827 19.0249 12.1725 18.971L11.8836 17.4494ZM17.11 16.0312C17.0303 15.6119 16.6707 13.8804 15.2091 14.1589C13.7477 14.4374 14.0441 16.1624 14.1271 16.5997C14.2089 17.0311 14.5653 18.7447 16.0268 18.4661C17.4883 18.1875 17.1919 16.4625 17.11 16.0312ZM15.9039 17.8191C15.299 17.9344 15.0709 16.9289 14.9776 16.4377C14.8696 15.8685 14.7569 14.9155 15.3319 14.8058C15.907 14.6963 16.1503 15.6182 16.2594 16.1933C16.3527 16.6846 16.5089 17.7038 15.9039 17.8191ZM19.3369 16.6869C19.365 16.7374 19.3682 16.7865 19.464 16.7682L19.8893 16.6871C19.9732 16.6711 19.9641 16.6232 19.9718 16.5658L20.1154 15.328C20.1507 15.0234 20.15 14.7256 20.1465 14.3476L20.1645 14.3441C20.1952 14.5059 20.2247 14.6616 20.2555 14.8234C20.2646 14.8713 20.2725 14.9133 20.2816 14.9612C20.3135 15.129 20.3214 15.1708 20.3524 15.3015L20.7858 17.3232C20.8018 17.4071 20.8277 17.4455 20.8996 17.4319L21.4985 17.3177C21.5464 17.3086 21.591 17.2815 21.5645 17.1748L20.6781 13.4207C20.638 13.2421 20.5998 13.237 20.5159 13.253L19.905 13.3694C19.8271 13.3843 19.8231 13.4285 19.8154 13.4858L19.5928 15.0925C19.5541 15.3792 19.52 15.5594 19.5375 15.8479L19.5256 15.8502C19.4838 15.7278 19.3163 15.3686 19.2094 15.1655L18.4377 13.7484C18.3896 13.6582 18.3716 13.6616 18.3177 13.6719L17.6828 13.793C17.6169 13.8055 17.5975 13.834 17.6108 13.937L18.1743 17.8209C18.1877 17.9239 18.2341 17.9399 18.294 17.9285L18.7911 17.8337C18.875 17.8177 18.8779 17.7675 18.8631 17.6896L18.5816 15.9121C18.5535 15.7313 18.5114 15.5096 18.3616 14.6878L18.3796 14.6844C18.5461 15.1368 18.7173 15.4828 18.7677 15.5849L19.3369 16.6869ZM24.8779 14.5507C24.7983 14.1314 24.4386 12.3998 22.9771 12.6783C21.5156 12.9569 21.812 14.6819 21.895 15.1193C21.9769 15.5505 22.3332 17.2641 23.7947 16.9856C25.2562 16.7071 24.9598 14.9821 24.8779 14.5507ZM23.6719 16.3386C23.0669 16.4539 22.8388 15.4483 22.7456 14.9571C22.6375 14.388 22.5249 13.4349 23.0999 13.3254C23.6749 13.2158 23.9182 14.1377 24.0274 14.7128C24.1206 15.2041 24.2769 16.2233 23.6719 16.3386ZM26.7807 16.311C26.8407 16.2996 26.8994 16.2821 26.8778 16.1683L26.5571 14.479L26.8147 14.4299C27.186 14.3591 27.276 14.5716 27.3461 14.7445L27.6263 15.436C27.6986 15.6208 27.7741 15.8547 27.9904 15.9811C28.2342 16.1208 28.585 16.0726 28.6509 16.06C28.7527 16.0407 28.7568 15.9964 28.7656 15.945L28.8349 15.4601C28.8401 15.4219 28.8336 15.3548 28.7523 15.3517L28.5897 15.3454C28.4021 15.3377 28.3574 15.2656 28.25 14.9943L28.0586 14.5094C28.013 14.4001 27.8624 14.0316 27.399 13.9771L27.3956 13.9591C27.6974 13.7836 27.7561 13.5366 27.7525 13.289L27.7436 12.85C27.7347 12.5413 27.8035 12.4785 27.9344 12.4163L28.0773 12.3519C28.129 12.3296 28.1427 12.2711 28.1133 12.2146L27.9068 11.8133C27.8775 11.7568 27.8273 11.754 27.7794 11.7631C27.6596 11.7859 27.4519 11.869 27.2986 12.0099C27.0599 12.223 27.0503 12.4669 27.055 12.7205L27.0618 13.2468C27.0653 13.6248 26.9255 13.7383 26.638 13.7932L26.4343 13.832L26.1443 12.3044C26.1227 12.1905 26.0617 12.196 26.0018 12.2074L25.4268 12.317C25.3669 12.3284 25.3081 12.3458 25.3297 12.4596L26.0632 16.3236C26.0848 16.4374 26.1458 16.4319 26.2057 16.4205L26.7807 16.311ZM31.8679 13.2185C31.7883 12.7991 31.4286 11.0675 29.9671 11.3461C28.5056 11.6247 28.802 13.3497 28.885 13.787C28.9669 14.2183 29.3232 15.9319 30.7847 15.6533C32.2462 15.3748 31.9498 13.6498 31.8679 13.2185ZM30.6619 15.0064C30.0569 15.1217 29.8288 14.1161 29.7355 13.6249C29.6275 13.0558 29.5149 12.1027 30.0899 11.9931C30.6649 11.8835 30.9082 12.8055 31.0174 13.3806C31.1106 13.8718 31.2669 14.8911 30.6619 15.0064ZM35.1244 14.7207L35.2859 15.5714C35.2961 15.6253 35.3206 15.6889 35.4284 15.6683L35.9495 15.569C36.0574 15.5485 36.0568 15.4803 36.0466 15.4264L35.785 14.0486C35.7748 13.9946 35.7503 13.931 35.6425 13.9516L35.4029 13.9972L34.7695 10.6605C34.7593 10.6066 34.7347 10.543 34.6269 10.5635L32.6683 10.9368C32.5605 10.9574 32.561 11.0255 32.5713 11.0794L32.7847 12.2368C32.8052 12.3446 32.9038 12.8969 32.9178 13.428C32.9272 13.8049 32.9002 14.1204 32.7734 14.4984L32.6596 14.5201C32.5518 14.5407 32.5523 14.6088 32.5625 14.6627L32.8241 16.0406C32.8343 16.0945 32.8588 16.1581 32.9666 16.1375L33.4877 16.0382C33.5416 16.028 33.6052 16.0034 33.5848 15.8956L33.4233 15.0449L35.1244 14.7207ZM34.5883 14.1525L33.57 14.3466C33.6443 14.0841 33.6816 13.8225 33.6892 13.5355C33.699 13.2605 33.6768 12.8489 33.5682 12.2116L33.438 11.4605L34.055 11.3429L34.5883 14.1525Z" fill="#651905"/>
</g>
<defs>
<filter id="filter0_d_1297_7728" x="3.49658" y="8.44275" width="48.5037" height="28.704" filterUnits="userSpaceOnUse" color-interpolation-filters="sRGB">
<feFlood flood-opacity="0" result="BackgroundImageFix"/>
<feColorMatrix in="SourceAlpha" type="matrix" values="0 0 0 0 0 0 0 0 0 0 0 0 0 0 0 0 0 0 127 0" result="hardAlpha"/>
<feOffset dy="1"/>
<feGaussianBlur stdDeviation="1"/>
<feComposite in2="hardAlpha" operator="out"/>
<feColorMatrix type="matrix" values="0 0 0 0 0 0 0 0 0 0 0 0 0 0 0 0 0 0 0.25 0"/>
<feBlend mode="normal" in2="BackgroundImageFix" result="effect1_dropShadow_1297_7728"/>
<feBlend mode="normal" in="SourceGraphic" in2="effect1_dropShadow_1297_7728" result="shape"/>
</filter>
<filter id="filter1_d_1297_7728" x="-1.24219" y="0" width="50.0596" height="33.2179" filterUnits="userSpaceOnUse" color-interpolation-filters="sRGB">
<feFlood flood-opacity="0" result="BackgroundImageFix"/>
<feColorMatrix in="SourceAlpha" type="matrix" values="0 0 0 0 0 0 0 0 0 0 0 0 0 0 0 0 0 0 127 0" result="hardAlpha"/>
<feOffset dy="2"/>
<feGaussianBlur stdDeviation="1"/>
<feComposite in2="hardAlpha" operator="out"/>
<feColorMatrix type="matrix" values="0 0 0 0 0 0 0 0 0 0 0 0 0 0 0 0 0 0 0.25 0"/>
<feBlend mode="normal" in2="BackgroundImageFix" result="effect1_dropShadow_1297_7728"/>
<feBlend mode="normal" in="SourceGraphic" in2="effect1_dropShadow_1297_7728" result="shape"/>
</filter>
<linearGradient id="paint0_linear_1297_7728" x1="-64.3494" y1="-27.3295" x2="124.73" y2="-15.2727" gradientUnits="userSpaceOnUse">
<stop stop-color="#651905"/>
<stop offset="0.911458" stop-color="#651905"/>
</linearGradient>
<radialGradient id="paint1_radial_1297_7728" cx="0" cy="0" r="1" gradientUnits="userSpaceOnUse" gradientTransform="translate(15.2217 -27.244) rotate(-10.7908) scale(94.7378 83.4939)">
<stop stop-color="#F3BD38"/>
<stop offset="0.03" stop-color="#E4B035"/>
<stop offset="0.09" stop-color="#D5A433"/>
<stop offset="0.13" stop-color="#D09F32"/>
<stop offset="0.19" stop-color="#BB821A"/>
<stop offset="0.24" stop-color="#E1A034"/>
<stop offset="0.31" stop-color="#F7CC58"/>
<stop offset="0.4" stop-color="#FBE37D"/>
<stop offset="0.46" stop-color="#FDEF91"/>
<stop offset="0.5" stop-color="#FCE580"/>
<stop offset="0.57" stop-color="#FBD460"/>
<stop offset="0.71" stop-color="#D6A738"/>
<stop offset="0.76" stop-color="#FCE575"/>
<stop offset="0.85" stop-color="#D09F32"/>
<stop offset="0.95" stop-color="#F9D160"/>
<stop offset="1" stop-color="#D09F32"/>
</radialGradient>
<clipPath id="clip0_1297_7728">
<rect width="56" height="39" fill="white"/>
</clipPath>
</defs>
</svg>
