<svg width="35" height="34" viewBox="0 0 35 34" fill="none" xmlns="http://www.w3.org/2000/svg">
<g clip-path="url(#clip0_1304_11269)">
<path fill-rule="evenodd" clip-rule="evenodd" d="M9.34253 2.40082C5.60651 2.58707 1.63751 1.43063 0.268555 4.55583C-0.274706 5.79604 -0.0240751 18.1637 -0.025749 21.1936C-0.0290968 26.3994 2.28866 26.0782 6.36662 26.0782C8.26758 26.0782 10.1748 26.0934 12.0748 26.074L11.6541 23.7721C10.0342 23.4983 3.66279 24.0555 2.82523 23.5126C1.95175 22.9466 2.30525 20.6184 2.30525 19.4082C2.30525 17.253 2.18884 6.00478 2.41893 5.45871C2.85658 4.41969 5.00436 4.77755 6.24093 4.77755C7.72858 4.77755 9.43064 4.85483 10.8923 4.7534C11.1593 3.96674 11.5717 2.94387 12.0187 2.46602C13.59 2.25607 16.2514 2.41486 17.9387 2.41486C18.7312 2.41486 20.2494 2.17382 20.7283 2.68019C20.9155 2.87837 21.5814 4.46572 21.6764 4.77151C32.3593 4.94071 29.8407 3.20997 30.2808 10.9807C31.4157 11.4912 32.0826 12.1764 32.5608 12.382C32.6691 10.8766 32.5856 9.08426 32.5857 7.54761C32.5863 4.12613 32.0936 2.40972 28.0013 2.41606C26.4177 2.41863 24.8243 2.43206 23.2415 2.41214C21.7322 -0.616622 20.5418 0.0461225 16.3036 0.0461225C12.4613 0.0461225 10.7071 -0.663411 9.34253 2.40082Z" fill="#D3BD9B"/>
<path fill-rule="evenodd" clip-rule="evenodd" d="M16.3217 23.3615C15.8749 18.5199 19.3889 14.7021 23.5948 14.2912C28.4032 13.8214 32.1446 17.405 32.5484 21.6982C33.0065 26.5684 29.4611 30.3732 25.2397 30.7744C20.4787 31.2267 16.7161 27.6361 16.3217 23.3615ZM13.9744 23.2341C14.3629 28.8455 19.0717 33.531 25.1045 33.1593C30.6639 32.8167 35.2778 27.9091 34.8956 21.8261C34.5424 16.2058 29.7375 11.5089 23.7216 11.9063C18.2398 12.2684 13.5551 17.1763 13.9744 23.2341Z" fill="#D3BD9B"/>
<path fill-rule="evenodd" clip-rule="evenodd" d="M23.2677 21.3424L18.6302 21.3534L18.6143 23.679L23.2635 23.7186L23.2717 28.4029L25.5832 28.4492L25.6027 23.7226L30.2286 23.7136L30.2548 21.3563L25.6062 21.3457L25.5978 16.6294L23.2801 16.6255L23.2677 21.3424Z" fill="#D3BD9B"/>
<path fill-rule="evenodd" clip-rule="evenodd" d="M11.9015 19.6443C11.9931 19.4511 12.611 17.5451 12.6214 17.4517C12.689 16.8378 12.1486 16.8413 11.7809 15.45C11.2921 13.6002 12.0186 11.8681 12.9694 10.926C16.0722 7.85193 18.9097 10.5968 19.4001 10.5483C19.4004 10.5482 21.4904 9.85042 21.6547 9.78643C16.8722 4.18563 8.93436 8.26563 9.30658 14.6674C9.41478 16.5265 10.7547 19.2529 11.9015 19.6443Z" fill="#D3BD9B"/>
<path fill-rule="evenodd" clip-rule="evenodd" d="M4.63379 9.4647L6.96175 9.50198L6.96342 7.18879L4.63775 7.15437L4.63379 9.4647Z" fill="#D3BD9B"/>
</g>
<defs>
<clipPath id="clip0_1304_11269">
<rect width="35" height="33.2051" fill="white"/>
</clipPath>
</defs>
</svg>
