<svg width="30" height="30" viewBox="0 0 30 30" fill="none" xmlns="http://www.w3.org/2000/svg">
<g clip-path="url(#clip0_1297_7687)">
<path fill-rule="evenodd" clip-rule="evenodd" d="M5.02969 3.09706C2.81441 3.1305 1.63721 2.89287 0.580864 4.43228C0.0668755 5.18122 0.0292198 5.76598 0.0346729 6.83799C0.0452106 8.9197 -0.0862526 26.6736 0.104457 27.5419C0.285219 28.365 0.735098 28.9793 1.2202 29.361C1.85659 29.8619 2.49732 29.9936 3.47748 29.9975L26.411 30C27.4072 30.0018 28.0181 29.9454 28.7194 29.4134C29.2119 29.0396 29.6949 28.4625 29.8871 27.6486C30.0663 26.8902 29.9766 25.6106 29.9827 24.7723C30.0259 18.8396 29.937 12.8409 29.981 6.90419C29.9887 5.85578 29.9685 5.22787 29.4618 4.47122C28.4207 2.91624 27.2152 3.1247 24.9872 3.09736C24.9951 4.24153 25.1374 5.30393 24.6297 6.18542C23.65 7.88656 21.3598 7.84693 20.3702 6.21169C19.7545 5.1945 20.1158 4.30446 19.9885 3.10141L10.029 3.09942C9.87968 4.2972 10.2421 5.1483 9.66671 6.16763C8.75487 7.78271 6.46156 7.94452 5.40882 6.22734C4.8815 5.36723 5.01569 4.23932 5.02969 3.09706ZM25.7685 24.7236H22.5048C22.2996 24.7236 22.1317 24.5497 22.1317 24.337V22.2323C22.1317 22.0196 22.2996 21.8457 22.5048 21.8457H25.7685C25.9737 21.8457 26.1416 22.0196 26.1416 22.2323V24.337C26.1416 24.5497 25.9737 24.7236 25.7685 24.7236ZM7.73353 20.6155H4.46986C4.26464 20.6155 4.09677 20.4416 4.09677 20.2289V18.1242C4.09677 17.9116 4.26464 17.7376 4.46986 17.7376H7.73353C7.93875 17.7376 8.10662 17.9116 8.10662 18.1242V20.2289C8.10662 20.4416 7.93875 20.6155 7.73353 20.6155ZM13.6802 20.6155H10.4165C10.2113 20.6155 10.0434 20.4416 10.0434 20.2289V18.1242C10.0434 17.9116 10.2113 17.7376 10.4165 17.7376H13.6802C13.8854 17.7376 14.0533 17.9116 14.0533 18.1242V20.2289C14.0533 20.4416 13.8854 20.6155 13.6802 20.6155ZM13.6802 16.4921H10.4165C10.2113 16.4921 10.0434 16.3182 10.0434 16.1055V14.0008C10.0434 13.7882 10.2113 13.6142 10.4165 13.6142H13.6802C13.8854 13.6142 14.0533 13.7882 14.0533 14.0008V16.1055C14.0533 16.3182 13.8854 16.4921 13.6802 16.4921ZM19.7243 20.6155H16.4607C16.2554 20.6155 16.0876 20.4416 16.0876 20.2289V18.1242C16.0876 17.9116 16.2554 17.7376 16.4607 17.7376H19.7243C19.9295 17.7376 20.0974 17.9116 20.0974 18.1242V20.2289C20.0974 20.4416 19.9295 20.6155 19.7243 20.6155ZM19.7243 16.4921H16.4607C16.2554 16.4921 16.0876 16.3182 16.0876 16.1055V14.0008C16.0876 13.7882 16.2554 13.6142 16.4607 13.6142H19.7243C19.9295 13.6142 20.0974 13.7882 20.0974 14.0008V16.1055C20.0974 16.3182 19.9295 16.4921 19.7243 16.4921ZM25.7685 20.6155H22.5048C22.2996 20.6155 22.1317 20.4416 22.1317 20.2289V18.1242C22.1317 17.9116 22.2996 17.7376 22.5048 17.7376H25.7685C25.9737 17.7376 26.1416 17.9116 26.1416 18.1242V20.2289C26.1416 20.4416 25.9737 20.6155 25.7685 20.6155ZM25.7685 16.4921H22.5048C22.2996 16.4921 22.1317 16.3182 22.1317 16.1055V14.0008C22.1317 13.7882 22.2996 13.6142 22.5048 13.6142H25.7685C25.9737 13.6142 26.1416 13.7882 26.1416 14.0008V16.1055C26.1416 16.3182 25.9737 16.4921 25.7685 16.4921ZM7.73353 24.7236H4.46986C4.26464 24.7236 4.09677 24.5497 4.09677 24.337V22.2323C4.09677 22.0196 4.26464 21.8457 4.46986 21.8457H7.73353C7.93875 21.8457 8.10662 22.0196 8.10662 22.2323V24.337C8.10662 24.5497 7.93875 24.7236 7.73353 24.7236ZM13.6802 24.7236H10.4165C10.2113 24.7236 10.0434 24.5497 10.0434 24.337V22.2323C10.0434 22.0196 10.2113 21.8457 10.4165 21.8457H13.6802C13.8854 21.8457 14.0533 22.0196 14.0533 22.2323V24.337C14.0533 24.5497 13.8854 24.7236 13.6802 24.7236ZM19.7243 24.7236H16.4607C16.2554 24.7236 16.0876 24.5497 16.0876 24.337V22.2323C16.0876 22.0196 16.2554 21.8457 16.4607 21.8457H19.7243C19.9295 21.8457 20.0974 22.0196 20.0974 22.2323V24.337C20.0974 24.5497 19.9295 24.7236 19.7243 24.7236ZM2.93136 11.0361H26.9455C27.589 11.0361 28.1153 11.5815 28.1153 12.2483V25.8184C28.1153 26.4852 27.589 27.0306 26.9455 27.0306H2.93136C2.2879 27.0306 1.76153 26.4852 1.76153 25.8184V12.2483C1.76153 11.5815 2.2879 11.0361 2.93136 11.0361ZM21.0014 3.79384C21.0014 4.6199 20.9389 5.23497 21.4242 5.71749C21.8219 6.11296 22.4099 6.39388 23.1009 6.0666C24.3012 5.49811 23.9967 3.92869 23.9943 2.33789C23.9932 1.54711 24.0311 0.979606 23.5902 0.495105C23.2268 0.0959734 22.5784 -0.167085 21.9126 0.122928C20.6853 0.657369 21.0014 2.26878 21.0014 3.79384ZM7.17444 0.0551974C5.73203 0.427298 6.02075 1.94655 6.02554 3.5291C6.02797 4.32752 5.91434 4.9807 6.3105 5.5569C6.58565 5.95703 7.17075 6.3541 7.92217 6.14457C9.28986 5.76308 9.01389 4.16716 9.02259 2.66876C9.02701 1.91234 9.10763 1.18898 8.73925 0.657751C8.44007 0.226472 7.88739 -0.128676 7.17444 0.0551974Z" fill="#72040D"/>
</g>
<defs>
<clipPath id="clip0_1297_7687">
<rect width="30" height="30" fill="white"/>
</clipPath>
</defs>
</svg>
