<svg width="54" height="57" viewBox="0 0 54 57" fill="none" xmlns="http://www.w3.org/2000/svg">
<g clip-path="url(#clip0_1008_6993)">
<g filter="url(#filter0_d_1008_6993)">
<path d="M53.5225 0.090332H0.655273V17.1878H53.5225V0.090332Z" fill="#FFFDED"/>
<path d="M51.3845 1.76294H2.79199V15.5161H51.3845V1.76294Z" fill="#D09F32"/>
<path d="M47.9843 6.64062H6.19336V10.6382H47.9843V6.64062Z" fill="#F0D286"/>
<path d="M47.1093 7.81079H7.06641V9.46783H47.1093V7.81079Z" fill="#998931"/>
<path d="M45.4116 38.4018L46.037 8.82739H27.579H9.13867L9.76407 38.4018C9.85449 42.6566 9.75402 46.8232 9.46518 51.0704L9.13867 55.7389H27.579H46.037L45.7105 51.0704C45.4216 46.8257 45.3212 42.6566 45.4116 38.4018Z" fill="url(#paint0_linear_1008_6993)"/>
<path d="M45.4116 39.1584L46.037 9.58398H27.579H9.13867L9.76407 39.1584C9.85449 43.4132 9.75402 47.5798 9.46518 51.827L9.13867 56.4955H27.579H46.037L45.7105 51.827C45.4216 47.5823 45.3212 43.4132 45.4116 39.1584Z" fill="url(#paint1_linear_1008_6993)"/>
<path d="M13.198 17.6045L13.1503 17.6902L12.9743 17.5868C12.9618 17.5792 12.9517 17.5717 12.9391 17.5641C12.9291 17.5565 12.919 17.5464 12.9115 17.5364C12.9215 17.5616 12.9266 17.5868 12.9266 17.6145V17.8163H12.8285V17.6171C12.8285 17.6045 12.8285 17.5893 12.8311 17.5792C12.8336 17.5666 12.8361 17.554 12.8411 17.5439C12.8336 17.554 12.826 17.5616 12.816 17.5691C12.8059 17.5767 12.7959 17.5843 12.7833 17.5918L12.6098 17.6927L12.5621 17.607L12.7355 17.5061C12.7481 17.4985 12.7607 17.4935 12.7707 17.4884C12.7833 17.4834 12.7959 17.4809 12.8084 17.4809C12.7833 17.4783 12.7582 17.4683 12.7355 17.4531L12.5596 17.3497L12.6073 17.264L12.7833 17.3674C12.7959 17.3749 12.8059 17.3825 12.816 17.3901C12.826 17.3976 12.8336 17.4077 12.8411 17.4203C12.8361 17.4077 12.8311 17.3951 12.8285 17.3825C12.826 17.3699 12.826 17.3548 12.826 17.3422V17.1404H12.9241V17.3396C12.9241 17.3522 12.9241 17.3674 12.9215 17.38C12.919 17.3926 12.9165 17.4052 12.9115 17.4178C12.919 17.4077 12.9266 17.3976 12.9366 17.3901C12.9467 17.3825 12.9567 17.3749 12.9693 17.3674L13.1427 17.2665L13.1905 17.3522L13.0171 17.4531C13.0045 17.4607 12.9944 17.4657 12.9819 17.4708C12.9693 17.4758 12.9592 17.4783 12.9467 17.4809C12.9693 17.4834 12.9944 17.4935 13.0171 17.5061L13.198 17.6045Z" fill="#D09F32"/>
<path d="M14.4055 17.6045L14.3577 17.6902L14.1818 17.5868C14.1692 17.5792 14.1592 17.5717 14.1466 17.5641C14.1365 17.5565 14.1265 17.5464 14.1189 17.5364C14.129 17.5616 14.134 17.5868 14.134 17.6145V17.8163H14.0385V17.6171C14.0385 17.6045 14.0385 17.5893 14.041 17.5792C14.0435 17.5666 14.046 17.554 14.0511 17.5439C14.0435 17.554 14.036 17.5616 14.0259 17.5691C14.0159 17.5767 14.0058 17.5843 13.9933 17.5918L13.8198 17.6927L13.772 17.607L13.9455 17.5061C13.9581 17.4985 13.9706 17.4935 13.9807 17.4884C13.9932 17.4834 14.0058 17.4809 14.0184 17.4809C13.9933 17.4783 13.9681 17.4683 13.9455 17.4531L13.7695 17.3497L13.8173 17.264L13.9933 17.3674C14.0058 17.3749 14.0159 17.3825 14.0259 17.3901C14.036 17.3976 14.0435 17.4077 14.0511 17.4203C14.046 17.4077 14.041 17.3951 14.0385 17.3825C14.036 17.3699 14.036 17.3548 14.036 17.3422V17.1404H14.134V17.3396C14.134 17.3522 14.134 17.3674 14.1315 17.38C14.129 17.3926 14.1265 17.4052 14.1214 17.4178C14.129 17.4077 14.1365 17.3976 14.1466 17.3901C14.1566 17.3825 14.1667 17.3749 14.1793 17.3674L14.3527 17.2665L14.4005 17.3522L14.227 17.4531C14.2145 17.4607 14.2044 17.4657 14.1918 17.4708C14.1793 17.4758 14.1692 17.4783 14.1566 17.4809C14.1793 17.4834 14.2044 17.4935 14.227 17.5061L14.4055 17.6045Z" fill="#D09F32"/>
<path d="M15.6141 17.6045L15.5663 17.6902L15.3903 17.5868C15.3778 17.5792 15.3677 17.5717 15.3552 17.5641C15.3451 17.5565 15.335 17.5464 15.3275 17.5364C15.3376 17.5616 15.3426 17.5868 15.3426 17.6145V17.8163H15.2446V17.6171C15.2446 17.6045 15.2446 17.5893 15.2471 17.5792C15.2496 17.5666 15.2521 17.554 15.2571 17.5439C15.2496 17.554 15.242 17.5616 15.232 17.5691C15.2219 17.5767 15.2119 17.5843 15.1993 17.5918L15.0259 17.6927L14.9781 17.607L15.1515 17.5061C15.1641 17.4985 15.1767 17.4935 15.1867 17.4884C15.1993 17.4834 15.2119 17.4809 15.2244 17.4809C15.1993 17.4783 15.1742 17.4683 15.1515 17.4531L14.9756 17.3497L15.0233 17.264L15.1993 17.3674C15.2119 17.3749 15.2219 17.3825 15.232 17.3901C15.242 17.3976 15.2496 17.4077 15.2571 17.4203C15.2521 17.4077 15.2471 17.3951 15.2446 17.3825C15.242 17.3699 15.242 17.3548 15.242 17.3422V17.1404H15.3401V17.3396C15.3401 17.3522 15.3401 17.3674 15.3376 17.38C15.335 17.3926 15.3325 17.4052 15.3275 17.4178C15.335 17.4077 15.3426 17.3976 15.3526 17.3901C15.3627 17.3825 15.3727 17.3749 15.3853 17.3674L15.5588 17.2665L15.6065 17.3522L15.4331 17.4531C15.4205 17.4607 15.4105 17.4657 15.3979 17.4708C15.3853 17.4758 15.3753 17.4783 15.3627 17.4809C15.3853 17.4834 15.4105 17.4935 15.4331 17.5061L15.6141 17.6045Z" fill="#D09F32"/>
<path d="M16.8211 17.6045L16.7733 17.6902L16.5974 17.5868C16.5848 17.5792 16.5748 17.5717 16.5622 17.5641C16.5521 17.5565 16.5421 17.5464 16.5345 17.5364C16.5446 17.5616 16.5496 17.5868 16.5496 17.6145V17.8163H16.4516V17.6171C16.4516 17.6045 16.4516 17.5893 16.4541 17.5792C16.4566 17.5666 16.4591 17.554 16.4642 17.5439C16.4566 17.554 16.4491 17.5616 16.439 17.5691C16.429 17.5767 16.4189 17.5843 16.4063 17.5918L16.2329 17.6927L16.1851 17.607L16.3586 17.5061C16.3711 17.4985 16.3837 17.4935 16.3938 17.4884C16.4063 17.4834 16.4189 17.4809 16.4315 17.4809C16.4063 17.4783 16.3812 17.4683 16.3586 17.4531L16.1826 17.3497L16.2304 17.264L16.4063 17.3674C16.4189 17.3749 16.429 17.3825 16.439 17.3901C16.4491 17.3976 16.4566 17.4077 16.4642 17.4203C16.4591 17.4077 16.4541 17.3951 16.4516 17.3825C16.4491 17.3699 16.4491 17.3548 16.4491 17.3422V17.1404H16.5471V17.3396C16.5471 17.3522 16.5471 17.3674 16.5446 17.38C16.5421 17.3926 16.5396 17.4052 16.5345 17.4178C16.5421 17.4077 16.5496 17.3976 16.5597 17.3901C16.5697 17.3825 16.5798 17.3749 16.5923 17.3674L16.7658 17.2665L16.8136 17.3522L16.6401 17.4531C16.6275 17.4607 16.6175 17.4657 16.6049 17.4708C16.5923 17.4758 16.5823 17.4783 16.5697 17.4809C16.5924 17.4834 16.6175 17.4935 16.6401 17.5061L16.8211 17.6045Z" fill="#D09F32"/>
<path d="M18.0291 17.6045L17.9813 17.6902L17.8054 17.5868C17.7928 17.5792 17.7828 17.5717 17.7702 17.5641C17.7601 17.5565 17.7501 17.5464 17.7425 17.5364C17.7526 17.5616 17.7576 17.5868 17.7576 17.6145V17.8163H17.6596V17.6171C17.6596 17.6045 17.6596 17.5893 17.6621 17.5792C17.6646 17.5666 17.6671 17.554 17.6722 17.5439C17.6646 17.554 17.6571 17.5616 17.647 17.5691C17.637 17.5767 17.6269 17.5843 17.6143 17.5918L17.4409 17.6927L17.3931 17.607L17.5666 17.5061C17.5792 17.4985 17.5917 17.4935 17.6018 17.4884C17.6143 17.4834 17.6269 17.4809 17.6395 17.4809C17.6143 17.4783 17.5892 17.4683 17.5666 17.4531L17.3906 17.3497L17.4384 17.264L17.6143 17.3674C17.6269 17.3749 17.637 17.3825 17.647 17.3901C17.6571 17.3976 17.6646 17.4077 17.6722 17.4203C17.6671 17.4077 17.6621 17.3951 17.6596 17.3825C17.6571 17.3699 17.6571 17.3548 17.6571 17.3422V17.1404H17.7551V17.3396C17.7551 17.3522 17.7551 17.3674 17.7526 17.38C17.7501 17.3926 17.7476 17.4052 17.7425 17.4178C17.7501 17.4077 17.7576 17.3976 17.7677 17.3901C17.7777 17.3825 17.7878 17.3749 17.8004 17.3674L17.9738 17.2665L18.0216 17.3522L17.8481 17.4531C17.8355 17.4607 17.8255 17.4657 17.8129 17.4708C17.8004 17.4758 17.7903 17.4783 17.7777 17.4809C17.8004 17.4834 17.8255 17.4935 17.8481 17.5061L18.0291 17.6045Z" fill="#D09F32"/>
<path d="M19.2381 17.6045L19.1903 17.6902L19.0144 17.5868C19.0018 17.5792 18.9917 17.5717 18.9792 17.5641C18.9691 17.5565 18.9591 17.5464 18.9515 17.5364C18.9616 17.5616 18.9666 17.5868 18.9666 17.6145V17.8163H18.8686V17.6171C18.8686 17.6045 18.8686 17.5893 18.8711 17.5792C18.8736 17.5666 18.8761 17.554 18.8811 17.5439C18.8736 17.554 18.8661 17.5616 18.856 17.5691C18.846 17.5767 18.8359 17.5843 18.8233 17.5918L18.6499 17.6927L18.6021 17.607L18.7756 17.5061C18.7881 17.4985 18.8007 17.4935 18.8108 17.4884C18.8233 17.4834 18.8359 17.4809 18.8485 17.4809C18.8233 17.4783 18.7982 17.4683 18.7756 17.4531L18.5996 17.3497L18.6474 17.264L18.8233 17.3674C18.8359 17.3749 18.846 17.3825 18.856 17.3901C18.8661 17.3976 18.8736 17.4077 18.8811 17.4203C18.8761 17.4077 18.8711 17.3951 18.8686 17.3825C18.8661 17.3699 18.8661 17.3548 18.8661 17.3422V17.1404H18.9641V17.3396C18.9641 17.3522 18.9641 17.3674 18.9616 17.38C18.9591 17.3926 18.9566 17.4052 18.9515 17.4178C18.9591 17.4077 18.9666 17.3976 18.9767 17.3901C18.9867 17.3825 18.9968 17.3749 19.0093 17.3674L19.1828 17.2665L19.2305 17.3522L19.0571 17.4531C19.0445 17.4607 19.0345 17.4657 19.0219 17.4708C19.0093 17.4758 18.9993 17.4783 18.9867 17.4809C19.0093 17.4834 19.0345 17.4935 19.0571 17.5061L19.2381 17.6045Z" fill="#D09F32"/>
<path d="M20.4461 17.6045L20.3983 17.6902L20.2224 17.5868C20.2098 17.5792 20.1998 17.5717 20.1872 17.5641C20.1771 17.5565 20.1671 17.5464 20.1595 17.5364C20.1696 17.5616 20.1746 17.5868 20.1746 17.6145V17.8163H20.0766V17.6171C20.0766 17.6045 20.0766 17.5893 20.0791 17.5792C20.0816 17.5666 20.0841 17.554 20.0892 17.5439C20.0816 17.554 20.0741 17.5616 20.064 17.5691C20.054 17.5767 20.0439 17.5843 20.0313 17.5918L19.8579 17.6927L19.8101 17.607L19.9836 17.5061C19.9961 17.4985 20.0087 17.4935 20.0188 17.4884C20.0313 17.4834 20.0439 17.4809 20.0565 17.4809C20.0313 17.4783 20.0062 17.4683 19.9836 17.4531L19.8076 17.3497L19.8554 17.264L20.0313 17.3674C20.0439 17.3749 20.054 17.3825 20.064 17.3901C20.0741 17.3976 20.0816 17.4077 20.0892 17.4203C20.0841 17.4077 20.0791 17.3951 20.0766 17.3825C20.0741 17.3699 20.0741 17.3548 20.0741 17.3422V17.1404H20.1721V17.3396C20.1721 17.3522 20.1721 17.3674 20.1696 17.38C20.1671 17.3926 20.1646 17.4052 20.1595 17.4178C20.1671 17.4077 20.1746 17.3976 20.1847 17.3901C20.1947 17.3825 20.2048 17.3749 20.2173 17.3674L20.3908 17.2665L20.4386 17.3522L20.2651 17.4531C20.2525 17.4607 20.2425 17.4657 20.2299 17.4708C20.2173 17.4758 20.2073 17.4783 20.1947 17.4809C20.2174 17.4834 20.2425 17.4935 20.2651 17.5061L20.4461 17.6045Z" fill="#D09F32"/>
<path d="M21.6551 17.6045L21.6073 17.6902L21.4314 17.5868C21.4188 17.5792 21.4087 17.5717 21.3962 17.5641C21.3861 17.5565 21.3761 17.5464 21.3685 17.5364C21.3786 17.5616 21.3836 17.5868 21.3836 17.6145V17.8163H21.2856V17.6171C21.2856 17.6045 21.2856 17.5893 21.2881 17.5792C21.2906 17.5666 21.2931 17.554 21.2981 17.5439C21.2906 17.554 21.2831 17.5616 21.273 17.5691C21.2629 17.5767 21.2529 17.5843 21.2403 17.5918L21.0669 17.6927L21.0191 17.607L21.1926 17.5061C21.2051 17.4985 21.2177 17.4935 21.2278 17.4884C21.2403 17.4834 21.2529 17.4809 21.2655 17.4809C21.2403 17.4783 21.2152 17.4683 21.1926 17.4531L21.0166 17.3497L21.0644 17.264L21.2403 17.3674C21.2529 17.3749 21.2629 17.3825 21.273 17.3901C21.2831 17.3976 21.2906 17.4077 21.2981 17.4203C21.2931 17.4077 21.2881 17.3951 21.2856 17.3825C21.2831 17.3699 21.2831 17.3548 21.2831 17.3422V17.1404H21.3811V17.3396C21.3811 17.3522 21.3811 17.3674 21.3786 17.38C21.3761 17.3926 21.3735 17.4052 21.3685 17.4178C21.3761 17.4077 21.3836 17.3976 21.3937 17.3901C21.4037 17.3825 21.4138 17.3749 21.4263 17.3674L21.5998 17.2665L21.6475 17.3522L21.4741 17.4531C21.4615 17.4607 21.4515 17.4657 21.4389 17.4708C21.4263 17.4758 21.4163 17.4783 21.4037 17.4809C21.4263 17.4834 21.4515 17.4935 21.4741 17.5061L21.6551 17.6045Z" fill="#D09F32"/>
<path d="M22.8631 17.6043L22.8153 17.69L22.6394 17.5866C22.6268 17.5791 22.6167 17.5715 22.6042 17.5639C22.5941 17.5564 22.5841 17.5463 22.5765 17.5362C22.5866 17.5614 22.5916 17.5866 22.5916 17.6144V17.8161H22.4936V17.6169C22.4936 17.6043 22.4936 17.5892 22.4961 17.5791C22.4986 17.5665 22.5011 17.5538 22.5061 17.5438C22.4986 17.5538 22.4911 17.5614 22.481 17.569C22.471 17.5765 22.4609 17.5841 22.4483 17.5917L22.2749 17.6926L22.2271 17.6043L22.4006 17.5034C22.4131 17.4958 22.4257 17.4908 22.4358 17.4858C22.4483 17.4807 22.4609 17.4782 22.4735 17.4782C22.4483 17.4757 22.4232 17.4656 22.4006 17.4504L22.2246 17.347L22.2724 17.2613L22.4483 17.3647C22.4609 17.3723 22.471 17.3798 22.481 17.3874C22.4911 17.395 22.4986 17.405 22.5061 17.4177C22.5011 17.405 22.4961 17.3924 22.4936 17.3798C22.4911 17.3672 22.4911 17.3521 22.4911 17.3395V17.1377H22.5891V17.3369C22.5891 17.3496 22.5891 17.3647 22.5866 17.3773C22.5841 17.3899 22.5816 17.4025 22.5765 17.4151C22.5841 17.405 22.5916 17.395 22.6017 17.3874C22.6117 17.3798 22.6218 17.3723 22.6343 17.3647L22.8078 17.2638L22.8555 17.3496L22.6821 17.4504C22.6695 17.458 22.6595 17.4631 22.6469 17.4681C22.6343 17.4731 22.6243 17.4757 22.6117 17.4782C22.6343 17.4807 22.6595 17.4908 22.6821 17.5034L22.8631 17.6043Z" fill="#D09F32"/>
<path d="M24.0701 17.6045L24.0224 17.6902L23.8464 17.5868C23.8338 17.5792 23.8238 17.5717 23.8112 17.5641C23.8012 17.5565 23.7911 17.5464 23.7836 17.5364C23.7936 17.5616 23.7986 17.5868 23.7986 17.6145V17.8163H23.7006V17.6171C23.7006 17.6045 23.7006 17.5893 23.7031 17.5792C23.7056 17.5666 23.7081 17.554 23.7132 17.5439C23.7056 17.554 23.6981 17.5616 23.688 17.5691C23.678 17.5767 23.6679 17.5843 23.6554 17.5918L23.4819 17.6927L23.4342 17.607L23.6076 17.5061C23.6202 17.4985 23.6327 17.4935 23.6428 17.4884C23.6554 17.4834 23.6679 17.4809 23.6805 17.4809C23.6554 17.4783 23.6302 17.4683 23.6076 17.4531L23.4316 17.3497L23.4794 17.264L23.6554 17.3674C23.6679 17.3749 23.678 17.3825 23.688 17.3901C23.6981 17.3976 23.7056 17.4077 23.7132 17.4203C23.7081 17.4077 23.7031 17.3951 23.7006 17.3825C23.6981 17.3699 23.6981 17.3548 23.6981 17.3422V17.1404H23.7961V17.3396C23.7961 17.3522 23.7961 17.3674 23.7936 17.38C23.7911 17.3926 23.7886 17.4052 23.7836 17.4178C23.7911 17.4077 23.7986 17.3976 23.8087 17.3901C23.8188 17.3825 23.8288 17.3749 23.8414 17.3674L24.0148 17.2665L24.0626 17.3522L23.8891 17.4531C23.8766 17.4607 23.8665 17.4657 23.8539 17.4708C23.8414 17.4758 23.8313 17.4783 23.8187 17.4809C23.8414 17.4834 23.8665 17.4935 23.8891 17.5061L24.0701 17.6045Z" fill="#D09F32"/>
<path d="M25.2762 17.6045L25.2284 17.6902L25.0525 17.5868C25.0399 17.5792 25.0298 17.5717 25.0173 17.5641C25.0072 17.5565 24.9972 17.5464 24.9896 17.5364C24.9997 17.5616 25.0047 17.5868 25.0047 17.6145V17.8163H24.9067V17.6171C24.9067 17.6045 24.9067 17.5893 24.9092 17.5792C24.9117 17.5666 24.9142 17.554 24.9192 17.5439C24.9117 17.554 24.9041 17.5616 24.8941 17.5691C24.884 17.5767 24.874 17.5843 24.8614 17.5918L24.688 17.6927L24.6402 17.607L24.8137 17.5061C24.8262 17.4985 24.8388 17.4935 24.8488 17.4884C24.8614 17.4834 24.874 17.4809 24.8866 17.4809C24.8614 17.4783 24.8363 17.4683 24.8137 17.4531L24.6377 17.3497L24.6855 17.264L24.8614 17.3674C24.874 17.3749 24.884 17.3825 24.8941 17.3901C24.9041 17.3976 24.9117 17.4077 24.9192 17.4203C24.9142 17.4077 24.9092 17.3951 24.9067 17.3825C24.9041 17.3699 24.9041 17.3548 24.9041 17.3422V17.1404H25.0022V17.3396C25.0022 17.3522 25.0022 17.3674 24.9997 17.38C24.9972 17.3926 24.9946 17.4052 24.9896 17.4178C24.9972 17.4077 25.0047 17.3976 25.0147 17.3901C25.0248 17.3825 25.0349 17.3749 25.0474 17.3674L25.2209 17.2665L25.2686 17.3522L25.0952 17.4531C25.0826 17.4607 25.0726 17.4657 25.06 17.4708C25.0474 17.4758 25.0374 17.4783 25.0248 17.4809C25.0474 17.4834 25.0726 17.4935 25.0952 17.5061L25.2762 17.6045Z" fill="#D09F32"/>
<path d="M26.4842 17.6045L26.4364 17.6902L26.2605 17.5868C26.2479 17.5792 26.2378 17.5717 26.2253 17.5641C26.2152 17.5565 26.2052 17.5464 26.1976 17.5364C26.2077 17.5616 26.2127 17.5868 26.2127 17.6145V17.8163H26.1147V17.6171C26.1147 17.6045 26.1147 17.5893 26.1172 17.5792C26.1197 17.5666 26.1222 17.554 26.1272 17.5439C26.1197 17.554 26.1122 17.5616 26.1021 17.5691C26.092 17.5767 26.082 17.5843 26.0694 17.5918L25.896 17.6927L25.8482 17.607L26.0217 17.5061C26.0342 17.4985 26.0468 17.4935 26.0569 17.4884C26.0694 17.4834 26.082 17.4809 26.0946 17.4809C26.0694 17.4783 26.0443 17.4683 26.0217 17.4531L25.8457 17.3497L25.8935 17.264L26.0694 17.3674C26.082 17.3749 26.092 17.3825 26.1021 17.3901C26.1122 17.3976 26.1197 17.4077 26.1272 17.4203C26.1222 17.4077 26.1172 17.3951 26.1147 17.3825C26.1122 17.3699 26.1122 17.3548 26.1122 17.3422V17.1404H26.2102V17.3396C26.2102 17.3522 26.2102 17.3674 26.2077 17.38C26.2052 17.3926 26.2026 17.4052 26.1976 17.4178C26.2052 17.4077 26.2127 17.3976 26.2228 17.3901C26.2328 17.3825 26.2429 17.3749 26.2554 17.3674L26.4289 17.2665L26.4766 17.3522L26.3032 17.4531C26.2906 17.4607 26.2806 17.4657 26.268 17.4708C26.2554 17.4758 26.2454 17.4783 26.2328 17.4809C26.2554 17.4834 26.2806 17.4935 26.3032 17.5061L26.4842 17.6045Z" fill="#D09F32"/>
<path d="M27.6922 17.6045L27.6444 17.6902L27.4685 17.5868C27.4559 17.5792 27.4458 17.5717 27.4333 17.5641C27.4232 17.5565 27.4132 17.5464 27.4056 17.5364C27.4157 17.5616 27.4207 17.5868 27.4207 17.6145V17.8163H27.3227V17.6171C27.3227 17.6045 27.3227 17.5893 27.3252 17.5792C27.3277 17.5666 27.3302 17.554 27.3352 17.5439C27.3277 17.554 27.3202 17.5616 27.3101 17.5691C27.3001 17.5767 27.29 17.5843 27.2774 17.5918L27.104 17.6927L27.0562 17.607L27.2297 17.5061C27.2422 17.4985 27.2548 17.4935 27.2649 17.4884C27.2774 17.4834 27.29 17.4809 27.3026 17.4809C27.2774 17.4783 27.2523 17.4683 27.2297 17.4531L27.0537 17.3497L27.1015 17.264L27.2774 17.3674C27.29 17.3749 27.3001 17.3825 27.3101 17.3901C27.3202 17.3976 27.3277 17.4077 27.3352 17.4203C27.3302 17.4077 27.3252 17.3951 27.3227 17.3825C27.3202 17.3699 27.3202 17.3548 27.3202 17.3422V17.1404H27.4182V17.3396C27.4182 17.3522 27.4182 17.3674 27.4157 17.38C27.4132 17.3926 27.4107 17.4052 27.4056 17.4178C27.4132 17.4077 27.4207 17.3976 27.4308 17.3901C27.4408 17.3825 27.4509 17.3749 27.4634 17.3674L27.6369 17.2665L27.6847 17.3522L27.5112 17.4531C27.4986 17.4607 27.4886 17.4657 27.476 17.4708C27.4634 17.4758 27.4534 17.4783 27.4408 17.4809C27.4634 17.4834 27.4886 17.4935 27.5112 17.5061L27.6922 17.6045Z" fill="#D09F32"/>
<path d="M28.9012 17.6045L28.8534 17.6902L28.6775 17.5868C28.6649 17.5792 28.6548 17.5717 28.6423 17.5641C28.6322 17.5565 28.6222 17.5464 28.6146 17.5364C28.6247 17.5616 28.6297 17.5868 28.6297 17.6145V17.8163H28.5317V17.6171C28.5317 17.6045 28.5317 17.5893 28.5342 17.5792C28.5367 17.5666 28.5392 17.554 28.5442 17.5439C28.5367 17.554 28.5291 17.5616 28.5191 17.5691C28.509 17.5767 28.499 17.5843 28.4864 17.5918L28.313 17.6927L28.2652 17.607L28.4387 17.5061C28.4512 17.4985 28.4638 17.4935 28.4738 17.4884C28.4864 17.4834 28.499 17.4809 28.5116 17.4809C28.4864 17.4783 28.4613 17.4683 28.4387 17.4531L28.2627 17.3497L28.3105 17.264L28.4864 17.3674C28.499 17.3749 28.509 17.3825 28.5191 17.3901C28.5291 17.3976 28.5367 17.4077 28.5442 17.4203C28.5392 17.4077 28.5342 17.3951 28.5317 17.3825C28.5291 17.3699 28.5291 17.3548 28.5291 17.3422V17.1404H28.6322V17.3396C28.6322 17.3522 28.6322 17.3674 28.6297 17.38C28.6272 17.3926 28.6247 17.4052 28.6196 17.4178C28.6272 17.4077 28.6347 17.3976 28.6448 17.3901C28.6548 17.3825 28.6649 17.3749 28.6775 17.3674L28.8509 17.2665L28.8987 17.3522L28.7252 17.4531C28.7126 17.4607 28.7026 17.4657 28.69 17.4708C28.6775 17.4758 28.6674 17.4783 28.6548 17.4809C28.6775 17.4834 28.7026 17.4935 28.7252 17.5061L28.9012 17.6045Z" fill="#D09F32"/>
<path d="M30.1092 17.6045L30.0614 17.6902L29.8855 17.5868C29.8729 17.5792 29.8628 17.5717 29.8503 17.5641C29.8402 17.5565 29.8302 17.5464 29.8226 17.5364C29.8327 17.5616 29.8377 17.5868 29.8377 17.6145V17.8163H29.7397V17.6171C29.7397 17.6045 29.7397 17.5893 29.7422 17.5792C29.7447 17.5666 29.7472 17.554 29.7522 17.5439C29.7447 17.554 29.7372 17.5616 29.7271 17.5691C29.717 17.5767 29.707 17.5843 29.6944 17.5918L29.521 17.6927L29.4732 17.607L29.6467 17.5061C29.6592 17.4985 29.6718 17.4935 29.6819 17.4884C29.6944 17.4834 29.707 17.4809 29.7196 17.4809C29.6944 17.4783 29.6693 17.4683 29.6467 17.4531L29.4707 17.3497L29.5185 17.264L29.6944 17.3674C29.707 17.3749 29.717 17.3825 29.7271 17.3901C29.7372 17.3976 29.7447 17.4077 29.7522 17.4203C29.7472 17.4077 29.7422 17.3951 29.7397 17.3825C29.7372 17.3699 29.7372 17.3548 29.7372 17.3422V17.1404H29.8352V17.3396C29.8352 17.3522 29.8352 17.3674 29.8327 17.38C29.8302 17.3926 29.8276 17.4052 29.8226 17.4178C29.8302 17.4077 29.8377 17.3976 29.8478 17.3901C29.8578 17.3825 29.8679 17.3749 29.8804 17.3674L30.0539 17.2665L30.1016 17.3522L29.9282 17.4531C29.9156 17.4607 29.9056 17.4657 29.893 17.4708C29.8804 17.4758 29.8704 17.4783 29.8578 17.4809C29.8804 17.4834 29.9056 17.4935 29.9282 17.5061L30.1092 17.6045Z" fill="#D09F32"/>
<path d="M31.3162 17.6045L31.2685 17.6902L31.0925 17.5868C31.0799 17.5792 31.0699 17.5717 31.0573 17.5641C31.0472 17.5565 31.0372 17.5464 31.0297 17.5364C31.0397 17.5616 31.0447 17.5868 31.0447 17.6145V17.8163H30.9467V17.6171C30.9467 17.6045 30.9467 17.5893 30.9492 17.5792C30.9517 17.5666 30.9542 17.554 30.9593 17.5439C30.9517 17.554 30.9442 17.5616 30.9341 17.5691C30.9241 17.5767 30.914 17.5843 30.9015 17.5918L30.728 17.6927L30.6802 17.607L30.8537 17.5061C30.8663 17.4985 30.8788 17.4935 30.8889 17.4884C30.9015 17.4834 30.914 17.4809 30.9266 17.4809C30.9015 17.4783 30.8763 17.4683 30.8537 17.4531L30.6777 17.3497L30.7255 17.264L30.9015 17.3674C30.914 17.3749 30.9241 17.3825 30.9341 17.3901C30.9442 17.3976 30.9517 17.4077 30.9593 17.4203C30.9542 17.4077 30.9492 17.3951 30.9467 17.3825C30.9442 17.3699 30.9442 17.3548 30.9442 17.3422V17.1404H31.0422V17.3396C31.0422 17.3522 31.0422 17.3674 31.0397 17.38C31.0372 17.3926 31.0347 17.4052 31.0297 17.4178C31.0372 17.4077 31.0447 17.3976 31.0548 17.3901C31.0648 17.3825 31.0749 17.3749 31.0875 17.3674L31.2609 17.2665L31.3087 17.3522L31.1352 17.4531C31.1227 17.4607 31.1126 17.4657 31.1 17.4708C31.0875 17.4758 31.0774 17.4783 31.0648 17.4809C31.0875 17.4834 31.1126 17.4935 31.1352 17.5061L31.3162 17.6045Z" fill="#D09F32"/>
<path d="M32.5242 17.6045L32.4765 17.6902L32.3005 17.5868C32.2879 17.5792 32.2779 17.5717 32.2653 17.5641C32.2553 17.5565 32.2452 17.5464 32.2377 17.5364C32.2477 17.5616 32.2527 17.5868 32.2527 17.6145V17.8163H32.1547V17.6171C32.1547 17.6045 32.1547 17.5893 32.1572 17.5792C32.1597 17.5666 32.1622 17.554 32.1673 17.5439C32.1597 17.554 32.1522 17.5616 32.1421 17.5691C32.1321 17.5767 32.122 17.5843 32.1095 17.5918L31.936 17.6927L31.8883 17.607L32.0617 17.5061C32.0743 17.4985 32.0868 17.4935 32.0969 17.4884C32.1095 17.4834 32.122 17.4809 32.1346 17.4809C32.1095 17.4783 32.0843 17.4683 32.0617 17.4531L31.8857 17.3497L31.9335 17.264L32.1095 17.3674C32.122 17.3749 32.1321 17.3825 32.1421 17.3901C32.1522 17.3976 32.1597 17.4077 32.1673 17.4203C32.1622 17.4077 32.1572 17.3951 32.1547 17.3825C32.1522 17.3699 32.1522 17.3548 32.1522 17.3422V17.1404H32.2502V17.3396C32.2502 17.3522 32.2502 17.3674 32.2477 17.38C32.2452 17.3926 32.2427 17.4052 32.2377 17.4178C32.2452 17.4077 32.2527 17.3976 32.2628 17.3901C32.2729 17.3825 32.2829 17.3749 32.2955 17.3674L32.4689 17.2665L32.5167 17.3522L32.3432 17.4531C32.3307 17.4607 32.3206 17.4657 32.308 17.4708C32.2955 17.4758 32.2854 17.4783 32.2729 17.4809C32.2955 17.4834 32.3206 17.4935 32.3432 17.5061L32.5242 17.6045Z" fill="#D09F32"/>
<path d="M33.7332 17.6045L33.6854 17.6902L33.5095 17.5868C33.4969 17.5792 33.4869 17.5717 33.4743 17.5641C33.4642 17.5565 33.4542 17.5464 33.4466 17.5364C33.4567 17.5616 33.4617 17.5868 33.4617 17.6145V17.8163H33.3637V17.6171C33.3637 17.6045 33.3637 17.5893 33.3662 17.5792C33.3687 17.5666 33.3712 17.554 33.3763 17.5439C33.3687 17.554 33.3612 17.5616 33.3511 17.5691C33.3411 17.5767 33.331 17.5843 33.3184 17.5918L33.145 17.6927L33.0972 17.607L33.2707 17.5061C33.2833 17.4985 33.2958 17.4935 33.3059 17.4884C33.3184 17.4834 33.331 17.4809 33.3436 17.4809C33.3184 17.4783 33.2933 17.4683 33.2707 17.4531L33.0947 17.3497L33.1425 17.264L33.3184 17.3674C33.331 17.3749 33.3411 17.3825 33.3511 17.3901C33.3612 17.3976 33.3687 17.4077 33.3763 17.4203C33.3712 17.4077 33.3662 17.3951 33.3637 17.3825C33.3612 17.3699 33.3612 17.3548 33.3612 17.3422V17.1404H33.4592V17.3396C33.4592 17.3522 33.4592 17.3674 33.4567 17.38C33.4542 17.3926 33.4517 17.4052 33.4466 17.4178C33.4542 17.4077 33.4617 17.3976 33.4718 17.3901C33.4818 17.3825 33.4919 17.3749 33.5045 17.3674L33.6779 17.2665L33.7257 17.3522L33.5522 17.4531C33.5396 17.4607 33.5296 17.4657 33.517 17.4708C33.5045 17.4758 33.4944 17.4783 33.4818 17.4809C33.5045 17.4834 33.5296 17.4935 33.5522 17.5061L33.7332 17.6045Z" fill="#D09F32"/>
<path d="M34.9412 17.6045L34.8935 17.6902L34.7175 17.5868C34.7049 17.5792 34.6949 17.5717 34.6823 17.5641C34.6722 17.5565 34.6622 17.5464 34.6547 17.5364C34.6647 17.5616 34.6697 17.5868 34.6697 17.6145V17.8163H34.5717V17.6171C34.5717 17.6045 34.5717 17.5893 34.5742 17.5792C34.5767 17.5666 34.5792 17.554 34.5843 17.5439C34.5767 17.554 34.5692 17.5616 34.5591 17.5691C34.5491 17.5767 34.539 17.5843 34.5265 17.5918L34.353 17.6927L34.3052 17.607L34.4787 17.5061C34.4913 17.4985 34.5038 17.4935 34.5139 17.4884C34.5265 17.4834 34.539 17.4809 34.5516 17.4809C34.5265 17.4783 34.5013 17.4683 34.4787 17.4531L34.3027 17.3497L34.3505 17.264L34.5265 17.3674C34.539 17.3749 34.5491 17.3825 34.5591 17.3901C34.5692 17.3976 34.5767 17.4077 34.5843 17.4203C34.5792 17.4077 34.5742 17.3951 34.5717 17.3825C34.5692 17.3699 34.5692 17.3548 34.5692 17.3422V17.1404H34.6672V17.3396C34.6672 17.3522 34.6672 17.3674 34.6647 17.38C34.6622 17.3926 34.6597 17.4052 34.6547 17.4178C34.6622 17.4077 34.6697 17.3976 34.6798 17.3901C34.6898 17.3825 34.6999 17.3749 34.7125 17.3674L34.8859 17.2665L34.9337 17.3522L34.7602 17.4531C34.7477 17.4607 34.7376 17.4657 34.725 17.4708C34.7125 17.4758 34.7024 17.4783 34.6898 17.4809C34.7125 17.4834 34.7376 17.4935 34.7602 17.5061L34.9412 17.6045Z" fill="#D09F32"/>
<path d="M36.1492 17.6045L36.1015 17.6902L35.9255 17.5868C35.9129 17.5792 35.9029 17.5717 35.8903 17.5641C35.8803 17.5565 35.8702 17.5464 35.8627 17.5364C35.8727 17.5616 35.8777 17.5868 35.8777 17.6145V17.8163H35.7797V17.6171C35.7797 17.6045 35.7797 17.5893 35.7822 17.5792C35.7847 17.5666 35.7872 17.554 35.7923 17.5439C35.7847 17.554 35.7772 17.5616 35.7671 17.5691C35.7571 17.5767 35.747 17.5843 35.7345 17.5918L35.561 17.6927L35.5133 17.607L35.6867 17.5061C35.6993 17.4985 35.7118 17.4935 35.7219 17.4884C35.7345 17.4834 35.747 17.4809 35.7596 17.4809C35.7345 17.4783 35.7093 17.4683 35.6867 17.4531L35.5107 17.3497L35.5585 17.264L35.7345 17.3674C35.747 17.3749 35.7571 17.3825 35.7671 17.3901C35.7772 17.3976 35.7847 17.4077 35.7923 17.4203C35.7872 17.4077 35.7822 17.3951 35.7797 17.3825C35.7772 17.3699 35.7772 17.3548 35.7772 17.3422V17.1404H35.8752V17.3396C35.8752 17.3522 35.8752 17.3674 35.8727 17.38C35.8702 17.3926 35.8677 17.4052 35.8627 17.4178C35.8702 17.4077 35.8777 17.3976 35.8878 17.3901C35.8979 17.3825 35.9079 17.3749 35.9205 17.3674L36.0939 17.2665L36.1417 17.3522L35.9682 17.4531C35.9557 17.4607 35.9456 17.4657 35.933 17.4708C35.9205 17.4758 35.9104 17.4783 35.8978 17.4809C35.9205 17.4834 35.9456 17.4935 35.9682 17.5061L36.1492 17.6045Z" fill="#D09F32"/>
<path d="M37.3572 17.6045L37.3095 17.6902L37.1335 17.5868C37.1209 17.5792 37.1109 17.5717 37.0983 17.5641C37.0883 17.5565 37.0782 17.5464 37.0707 17.5364C37.0807 17.5616 37.0858 17.5868 37.0858 17.6145V17.8163H36.9877V17.6171C36.9877 17.6045 36.9877 17.5893 36.9902 17.5792C36.9927 17.5666 36.9953 17.554 37.0003 17.5439C36.9927 17.554 36.9852 17.5616 36.9751 17.5691C36.9651 17.5767 36.955 17.5843 36.9425 17.5918L36.769 17.6927L36.7213 17.607L36.8947 17.5061C36.9073 17.4985 36.9198 17.4935 36.9299 17.4884C36.9425 17.4834 36.955 17.4809 36.9676 17.4809C36.9425 17.4783 36.9173 17.4683 36.8947 17.4531L36.7188 17.3497L36.7665 17.264L36.9425 17.3674C36.955 17.3749 36.9651 17.3825 36.9751 17.3901C36.9852 17.3976 36.9927 17.4077 37.0003 17.4203C36.9953 17.4077 36.9902 17.3951 36.9877 17.3825C36.9852 17.3699 36.9852 17.3548 36.9852 17.3422V17.1404H37.0832V17.3396C37.0832 17.3522 37.0832 17.3674 37.0807 17.38C37.0782 17.3926 37.0757 17.4052 37.0707 17.4178C37.0782 17.4077 37.0857 17.3976 37.0958 17.3901C37.1059 17.3825 37.1159 17.3749 37.1285 17.3674L37.3019 17.2665L37.3497 17.3522L37.1762 17.4531C37.1637 17.4607 37.1536 17.4657 37.1411 17.4708C37.1285 17.4758 37.1184 17.4783 37.1059 17.4809C37.1285 17.4834 37.1536 17.4935 37.1762 17.5061L37.3572 17.6045Z" fill="#D09F32"/>
<path d="M38.5643 17.6045L38.5165 17.6902L38.3405 17.5868C38.328 17.5792 38.3179 17.5717 38.3054 17.5641C38.2953 17.5565 38.2852 17.5464 38.2777 17.5364C38.2878 17.5616 38.2928 17.5868 38.2928 17.6145V17.8163H38.1947V17.6171C38.1947 17.6045 38.1947 17.5893 38.1973 17.5792C38.1998 17.5666 38.2023 17.554 38.2073 17.5439C38.1998 17.554 38.1922 17.5616 38.1822 17.5691C38.1721 17.5767 38.1621 17.5843 38.1495 17.5918L37.9761 17.6927L37.9283 17.607L38.1017 17.5061C38.1143 17.4985 38.1269 17.4935 38.1369 17.4884C38.1495 17.4834 38.1621 17.4809 38.1746 17.4809C38.1495 17.4783 38.1244 17.4683 38.1017 17.4531L37.9258 17.3497L37.9735 17.264L38.1495 17.3674C38.1621 17.3749 38.1721 17.3825 38.1822 17.3901C38.1922 17.3976 38.1998 17.4077 38.2073 17.4203C38.2023 17.4077 38.1973 17.3951 38.1947 17.3825C38.1922 17.3699 38.1922 17.3548 38.1922 17.3422V17.1404H38.2903V17.3396C38.2903 17.3522 38.2903 17.3674 38.2878 17.38C38.2852 17.3926 38.2827 17.4052 38.2777 17.4178C38.2852 17.4077 38.2928 17.3976 38.3028 17.3901C38.3129 17.3825 38.3229 17.3749 38.3355 17.3674L38.509 17.2665L38.5567 17.3522L38.3833 17.4531C38.3707 17.4607 38.3607 17.4657 38.3481 17.4708C38.3355 17.4758 38.3255 17.4783 38.3129 17.4809C38.3355 17.4834 38.3607 17.4935 38.3833 17.5061L38.5643 17.6045Z" fill="#D09F32"/>
<path d="M39.7732 17.6045L39.7255 17.6902L39.5495 17.5868C39.537 17.5792 39.5269 17.5717 39.5143 17.5641C39.5043 17.5565 39.4942 17.5464 39.4867 17.5364C39.4967 17.5616 39.5018 17.5868 39.5018 17.6145V17.8163H39.4037V17.6171C39.4037 17.6045 39.4037 17.5893 39.4062 17.5792C39.4088 17.5666 39.4113 17.554 39.4163 17.5439C39.4088 17.554 39.4012 17.5616 39.3912 17.5691C39.3811 17.5767 39.3711 17.5843 39.3585 17.5918L39.185 17.6927L39.1373 17.607L39.3107 17.5061C39.3233 17.4985 39.3359 17.4935 39.3459 17.4884C39.3585 17.4834 39.3711 17.4809 39.3836 17.4809C39.3585 17.4783 39.3333 17.4683 39.3107 17.4531L39.1348 17.3497L39.1825 17.264L39.3585 17.3674C39.3711 17.3749 39.3811 17.3825 39.3912 17.3901C39.4012 17.3976 39.4088 17.4077 39.4163 17.4203C39.4113 17.4077 39.4062 17.3951 39.4037 17.3825C39.4012 17.3699 39.4012 17.3548 39.4012 17.3422V17.1404H39.4993V17.3396C39.4993 17.3522 39.4992 17.3674 39.4967 17.38C39.4942 17.3926 39.4917 17.4052 39.4867 17.4178C39.4942 17.4077 39.5018 17.3976 39.5118 17.3901C39.5219 17.3825 39.5319 17.3749 39.5445 17.3674L39.7179 17.2665L39.7657 17.3522L39.5923 17.4531C39.5797 17.4607 39.5696 17.4657 39.5571 17.4708C39.5445 17.4758 39.5344 17.4783 39.5219 17.4809C39.5445 17.4834 39.5696 17.4935 39.5923 17.5061L39.7732 17.6045Z" fill="#D09F32"/>
<path d="M40.9783 17.6045L40.9306 17.6902L40.7546 17.5868C40.742 17.5792 40.732 17.5717 40.7194 17.5641C40.7094 17.5565 40.6993 17.5464 40.6918 17.5364C40.7018 17.5616 40.7068 17.5868 40.7068 17.6145V17.8163H40.6088V17.6171C40.6088 17.6045 40.6088 17.5893 40.6113 17.5792C40.6138 17.5666 40.6164 17.554 40.6214 17.5439C40.6138 17.554 40.6063 17.5616 40.5962 17.5691C40.5862 17.5767 40.5761 17.5843 40.5636 17.5918L40.3901 17.6927L40.3424 17.607L40.5158 17.5061C40.5284 17.4985 40.5409 17.4935 40.551 17.4884C40.5636 17.4834 40.5761 17.4809 40.5887 17.4809C40.5636 17.4783 40.5384 17.4683 40.5158 17.4531L40.3398 17.3497L40.3876 17.264L40.5636 17.3674C40.5761 17.3749 40.5862 17.3825 40.5962 17.3901C40.6063 17.3976 40.6138 17.4077 40.6214 17.4203C40.6164 17.4077 40.6113 17.3951 40.6088 17.3825C40.6063 17.3699 40.6063 17.3548 40.6063 17.3422V17.1404H40.7043V17.3396C40.7043 17.3522 40.7043 17.3674 40.7018 17.38C40.6993 17.3926 40.6968 17.4052 40.6918 17.4178C40.6993 17.4077 40.7068 17.3976 40.7169 17.3901C40.727 17.3825 40.737 17.3749 40.7496 17.3674L40.923 17.2665L40.9708 17.3522L40.7973 17.4531C40.7848 17.4607 40.7747 17.4657 40.7621 17.4708C40.7496 17.4758 40.7395 17.4783 40.727 17.4809C40.7496 17.4834 40.7747 17.4935 40.7973 17.5061L40.9783 17.6045Z" fill="#D09F32"/>
<path d="M42.1873 17.6045L42.1396 17.6902L41.9636 17.5868C41.951 17.5792 41.941 17.5717 41.9284 17.5641C41.9183 17.5565 41.9083 17.5464 41.9008 17.5364C41.9108 17.5616 41.9158 17.5868 41.9158 17.6145V17.8163H41.8178V17.6171C41.8178 17.6045 41.8178 17.5893 41.8203 17.5792C41.8228 17.5666 41.8253 17.554 41.8304 17.5439C41.8228 17.554 41.8153 17.5616 41.8052 17.5691C41.7952 17.5767 41.7851 17.5843 41.7726 17.5918L41.5991 17.6927L41.5513 17.607L41.7248 17.5061C41.7374 17.4985 41.7499 17.4935 41.76 17.4884C41.7726 17.4834 41.7851 17.4809 41.7977 17.4809C41.7726 17.4783 41.7474 17.4683 41.7248 17.4531L41.5488 17.3497L41.5966 17.264L41.7726 17.3674C41.7851 17.3749 41.7952 17.3825 41.8052 17.3901C41.8153 17.3976 41.8228 17.4077 41.8304 17.4203C41.8253 17.4077 41.8203 17.3951 41.8178 17.3825C41.8153 17.3699 41.8153 17.3548 41.8153 17.3422V17.1404H41.9133V17.3396C41.9133 17.3522 41.9133 17.3674 41.9108 17.38C41.9083 17.3926 41.9058 17.4052 41.9008 17.4178C41.9083 17.4077 41.9158 17.3976 41.9259 17.3901C41.9359 17.3825 41.946 17.3749 41.9586 17.3674L42.132 17.2665L42.1798 17.3522L42.0063 17.4531C41.9938 17.4607 41.9837 17.4657 41.9711 17.4708C41.9586 17.4758 41.9485 17.4783 41.9359 17.4809C41.9586 17.4834 41.9837 17.4935 42.0063 17.5061L42.1873 17.6045Z" fill="#D09F32"/>
<path d="M25.696 20.356H12.3467V21.327H25.696V20.356Z" fill="#D09F32"/>
<path d="M23.4832 22.6384H12.3467V23.6094H23.4832V22.6384Z" fill="#D09F32"/>
<path d="M23.5134 24.9236H12.3467V25.8946H23.5134V24.9236Z" fill="#D09F32"/>
<path d="M26.6102 27.2061H12.3467V28.1771H26.6102V27.2061Z" fill="#D09F32"/>
<path d="M25.0379 29.491H12.3467V30.462H25.0379V29.491Z" fill="#D09F32"/>
<path d="M22.3078 31.7734H12.3467V32.7445H22.3078V31.7734Z" fill="#D09F32"/>
<path d="M21.3157 34.0586H12.3467V35.0296H21.3157V34.0586Z" fill="#D09F32"/>
<path d="M23.3677 36.3411H12.3467V37.3121H23.3677V36.3411Z" fill="#D09F32"/>
<path d="M22.0642 38.6262H12.3467V39.5972H22.0642V38.6262Z" fill="#D09F32"/>
<path d="M42.206 20.356H37.9287V21.327H42.206V20.356Z" fill="#D09F32"/>
<path d="M42.206 22.6384H37.9287V23.6094H42.206V22.6384Z" fill="#D09F32"/>
<path d="M42.206 24.9236H37.9287V25.8946H42.206V24.9236Z" fill="#D09F32"/>
<path d="M42.206 27.2061H37.9287V28.1771H42.206V27.2061Z" fill="#D09F32"/>
<path d="M42.206 29.4912H37.9287V30.4622H42.206V29.4912Z" fill="#D09F32"/>
<path d="M42.206 31.7737H37.9287V32.7447H42.206V31.7737Z" fill="#D09F32"/>
<path d="M42.206 34.0586H37.9287V35.0296H42.206V34.0586Z" fill="#D09F32"/>
<path d="M42.206 36.3413H37.9287V37.3123H42.206V36.3413Z" fill="#D09F32"/>
<path d="M42.206 38.6262H37.9287V39.5972H42.206V38.6262Z" fill="#D09F32"/>
<path d="M12.6454 42.9795V43.1359H12.0547V42.9795H12.6454Z" fill="#D09F32"/>
<path d="M13.3798 42.9795V43.1359H12.7891V42.9795H13.3798Z" fill="#D09F32"/>
<path d="M14.1122 42.9795V43.1359H13.5215V42.9795H14.1122Z" fill="#D09F32"/>
<path d="M14.8436 42.9795V43.1359H14.2529V42.9795H14.8436Z" fill="#D09F32"/>
<path d="M15.577 42.9795V43.1359H14.9863V42.9795H15.577Z" fill="#D09F32"/>
<path d="M16.3104 42.9795V43.1359H15.7197V42.9795H16.3104Z" fill="#D09F32"/>
<path d="M17.0438 42.9795V43.1359H16.4531V42.9795H17.0438Z" fill="#D09F32"/>
<path d="M17.7763 42.9795V43.1359H17.1855V42.9795H17.7763Z" fill="#D09F32"/>
<path d="M18.5077 42.9795V43.1359H17.917V42.9795H18.5077Z" fill="#D09F32"/>
<path d="M19.2401 42.9795V43.1359H18.6494V42.9795H19.2401Z" fill="#D09F32"/>
<path d="M19.9745 42.9795V43.1359H19.3838V42.9795H19.9745Z" fill="#D09F32"/>
<path d="M20.7079 42.9795V43.1359H20.1172V42.9795H20.7079Z" fill="#D09F32"/>
<path d="M21.4413 42.9795V43.1359H20.8506V42.9795H21.4413Z" fill="#D09F32"/>
<path d="M22.1737 42.9795V43.1359H21.583V42.9795H22.1737Z" fill="#D09F32"/>
<path d="M22.9052 42.9795V43.1359H22.3145V42.9795H22.9052Z" fill="#D09F32"/>
<path d="M23.6386 42.9795V43.1359H23.0479V42.9795H23.6386Z" fill="#D09F32"/>
<path d="M24.372 42.9795V43.1359H23.7812V42.9795H24.372Z" fill="#D09F32"/>
<path d="M25.1054 42.9795V43.1359H24.5146V42.9795H25.1054Z" fill="#D09F32"/>
<path d="M25.8388 42.9795V43.1359H25.248V42.9795H25.8388Z" fill="#D09F32"/>
<path d="M26.5722 42.9795V43.1359H25.9814V42.9795H26.5722Z" fill="#D09F32"/>
<path d="M27.3036 42.9795V43.1359H26.7129V42.9795H27.3036Z" fill="#D09F32"/>
<path d="M28.037 42.9795V43.1359H27.4463V42.9795H28.037Z" fill="#D09F32"/>
<path d="M28.7704 42.9795V43.1359H28.1797V42.9795H28.7704Z" fill="#D09F32"/>
<path d="M29.5038 42.9795V43.1359H28.9131V42.9795H29.5038Z" fill="#D09F32"/>
<path d="M30.2372 42.9795V43.1359H29.6465V42.9795H30.2372Z" fill="#D09F32"/>
<path d="M30.9696 42.9795V43.1359H30.3789V42.9795H30.9696Z" fill="#D09F32"/>
<path d="M31.703 42.9795V43.1359H31.1123V42.9795H31.703Z" fill="#D09F32"/>
<path d="M32.4345 42.9795V43.1359H31.8438V42.9795H32.4345Z" fill="#D09F32"/>
<path d="M33.1679 42.9795V43.1359H32.5771V42.9795H33.1679Z" fill="#D09F32"/>
<path d="M33.9013 42.9795V43.1359H33.3105V42.9795H33.9013Z" fill="#D09F32"/>
<path d="M34.6347 42.9795V43.1359H34.0439V42.9795H34.6347Z" fill="#D09F32"/>
<path d="M35.3681 42.9795V43.1359H34.7773V42.9795H35.3681Z" fill="#D09F32"/>
<path d="M36.0985 42.9795V43.1359H35.5078V42.9795H36.0985Z" fill="#D09F32"/>
<path d="M36.8329 42.9795V43.1359H36.2422V42.9795H36.8329Z" fill="#D09F32"/>
<path d="M37.5663 42.9795V43.1359H36.9756V42.9795H37.5663Z" fill="#D09F32"/>
<path d="M38.2997 42.9795V43.1359H37.709V42.9795H38.2997Z" fill="#D09F32"/>
<path d="M39.0331 42.9795V43.1359H38.4424V42.9795H39.0331Z" fill="#D09F32"/>
<path d="M39.7665 42.9795V43.1359H39.1758V42.9795H39.7665Z" fill="#D09F32"/>
<path d="M40.497 42.9795V43.1359H39.9062V42.9795H40.497Z" fill="#D09F32"/>
<path d="M41.2313 42.9795V43.1359H40.6406V42.9795H41.2313Z" fill="#D09F32"/>
<path d="M41.9638 42.9795V43.1359H41.373V42.9795H41.9638Z" fill="#D09F32"/>
<path d="M42.6972 42.9795V43.1359H42.1064V42.9795H42.6972Z" fill="#D09F32"/>
</g>
</g>
<defs>
<filter id="filter0_d_1008_6993" x="-0.344727" y="0.090332" width="60.8672" height="64.4053" filterUnits="userSpaceOnUse" color-interpolation-filters="sRGB">
<feFlood flood-opacity="0" result="BackgroundImageFix"/>
<feColorMatrix in="SourceAlpha" type="matrix" values="0 0 0 0 0 0 0 0 0 0 0 0 0 0 0 0 0 0 127 0" result="hardAlpha"/>
<feOffset dx="3" dy="4"/>
<feGaussianBlur stdDeviation="2"/>
<feComposite in2="hardAlpha" operator="out"/>
<feColorMatrix type="matrix" values="0 0 0 0 0 0 0 0 0 0 0 0 0 0 0 0 0 0 0.25 0"/>
<feBlend mode="normal" in2="BackgroundImageFix" result="effect1_dropShadow_1008_6993"/>
<feBlend mode="normal" in="SourceGraphic" in2="effect1_dropShadow_1008_6993" result="shape"/>
</filter>
<linearGradient id="paint0_linear_1008_6993" x1="27.5872" y1="7.56214" x2="27.5872" y2="59.6166" gradientUnits="userSpaceOnUse">
<stop stop-color="#F6F7F7"/>
<stop offset="0.25" stop-color="white"/>
<stop offset="0.4322" stop-color="#F0F1F1"/>
<stop offset="0.6346" stop-color="#E4E5E6"/>
<stop offset="1" stop-color="white"/>
</linearGradient>
<linearGradient id="paint1_linear_1008_6993" x1="27.5872" y1="8.31874" x2="27.5872" y2="60.3732" gradientUnits="userSpaceOnUse">
<stop stop-color="#FAFBFB"/>
<stop offset="0.0368" stop-color="#FBFCFC"/>
<stop offset="0.25" stop-color="white"/>
<stop offset="0.521" stop-color="#F3F4F4"/>
<stop offset="0.6058" stop-color="#EEEFF0"/>
<stop offset="0.7894" stop-color="#F8F9F9"/>
<stop offset="1" stop-color="white"/>
</linearGradient>
<clipPath id="clip0_1008_6993">
<rect width="54" height="57" fill="white"/>
</clipPath>
</defs>
</svg>
