<svg width="54" height="57" viewBox="0 0 54 57" fill="none" xmlns="http://www.w3.org/2000/svg">
<g clip-path="url(#clip0_1008_7126)">
<g filter="url(#filter0_d_1008_7126)">
<path d="M53.5225 0.090332H0.655273V17.1878H53.5225V0.090332Z" fill="#E22222"/>
<path d="M51.3854 1.76294H2.79297V15.5161H51.3854V1.76294Z" fill="#FFF7DD"/>
<path d="M47.9843 6.64062H6.19336V10.6382H47.9843V6.64062Z" fill="#E50000"/>
<path d="M47.1103 7.81079H7.06738V9.46783H47.1103V7.81079Z" fill="#D3BD9B"/>
<path d="M45.4116 38.4018L46.037 8.82739H27.579H9.13867L9.76407 38.4018C9.85449 42.6566 9.75402 46.8232 9.46518 51.0704L9.13867 55.7389H27.579H46.037L45.7105 51.0704C45.4216 46.8257 45.3212 42.6566 45.4116 38.4018Z" fill="url(#paint0_linear_1008_7126)"/>
<path d="M45.4116 39.1584L46.037 9.58398H27.579H9.13867L9.76407 39.1584C9.85449 43.4132 9.75402 47.5798 9.46518 51.827L9.13867 56.4955H27.579H46.037L45.7105 51.827C45.4216 47.5823 45.3212 43.4132 45.4116 39.1584Z" fill="url(#paint1_linear_1008_7126)"/>
<path d="M13.1985 17.6049L13.1508 17.6907L12.975 17.5873C12.9624 17.5797 12.9524 17.5722 12.9398 17.5646C12.9298 17.557 12.9197 17.5469 12.9122 17.5368C12.9222 17.5621 12.9272 17.5873 12.9272 17.615V17.8168H12.8293V17.6175C12.8293 17.6049 12.8293 17.5898 12.8318 17.5797C12.8343 17.5671 12.8368 17.5545 12.8418 17.5444C12.8343 17.5545 12.8268 17.5621 12.8167 17.5696C12.8067 17.5772 12.7966 17.5848 12.7841 17.5923L12.6108 17.6932L12.5631 17.6075L12.7364 17.5066C12.7489 17.499 12.7615 17.494 12.7715 17.4889C12.7841 17.4839 12.7966 17.4814 12.8092 17.4814C12.7841 17.4788 12.759 17.4687 12.7364 17.4536L12.5605 17.3502L12.6083 17.2645L12.7841 17.3679C12.7966 17.3754 12.8067 17.383 12.8167 17.3906C12.8268 17.3981 12.8343 17.4082 12.8418 17.4208C12.8368 17.4082 12.8318 17.3956 12.8293 17.383C12.8268 17.3704 12.8268 17.3553 12.8268 17.3426V17.1409H12.9247V17.3401C12.9247 17.3527 12.9247 17.3679 12.9222 17.3805C12.9197 17.3931 12.9172 17.4057 12.9122 17.4183C12.9197 17.4082 12.9272 17.3981 12.9373 17.3906C12.9473 17.383 12.9574 17.3754 12.9699 17.3679L13.1432 17.267L13.191 17.3527L13.0177 17.4536C13.0051 17.4612 12.9951 17.4662 12.9825 17.4713C12.9699 17.4763 12.9599 17.4788 12.9473 17.4814C12.9699 17.4839 12.9951 17.494 13.0177 17.5066L13.1985 17.6049Z" fill="#E22222"/>
<path d="M14.4069 17.6042L14.3592 17.69L14.1834 17.5866C14.1708 17.579 14.1608 17.5714 14.1482 17.5639C14.1382 17.5563 14.1281 17.5462 14.1206 17.5361C14.1306 17.5613 14.1357 17.5865 14.1357 17.6143V17.8161H14.0402V17.6168C14.0402 17.6042 14.0402 17.5891 14.0427 17.579C14.0453 17.5664 14.0478 17.5538 14.0528 17.5437C14.0453 17.5538 14.0377 17.5613 14.0277 17.5689C14.0176 17.5765 14.0076 17.584 13.995 17.5916L13.8217 17.6925L13.774 17.6067L13.9473 17.5058C13.9599 17.4983 13.9724 17.4932 13.9825 17.4882C13.995 17.4831 14.0076 17.4806 14.0201 17.4806C13.995 17.4781 13.9699 17.468 13.9473 17.4529L13.7715 17.3495L13.8192 17.2637L13.995 17.3671C14.0076 17.3747 14.0176 17.3823 14.0277 17.3898C14.0377 17.3974 14.0453 17.4075 14.0528 17.4201C14.0478 17.4075 14.0427 17.3949 14.0402 17.3823C14.0377 17.3696 14.0377 17.3545 14.0377 17.3419V17.1401H14.1357V17.3394C14.1357 17.352 14.1357 17.3671 14.1332 17.3797C14.1306 17.3923 14.1281 17.405 14.1231 17.4176C14.1306 17.4075 14.1382 17.3974 14.1482 17.3898C14.1583 17.3823 14.1683 17.3747 14.1809 17.3671L14.3542 17.2662L14.4019 17.352L14.2286 17.4529C14.216 17.4604 14.206 17.4655 14.1934 17.4705C14.1809 17.4756 14.1708 17.4781 14.1583 17.4806C14.1809 17.4831 14.206 17.4932 14.2286 17.5058L14.4069 17.6042Z" fill="#E22222"/>
<path d="M15.6155 17.6042L15.5678 17.69L15.392 17.5866C15.3794 17.579 15.3694 17.5714 15.3568 17.5639C15.3467 17.5563 15.3367 17.5462 15.3292 17.5361C15.3392 17.5613 15.3442 17.5865 15.3442 17.6143V17.8161H15.2463V17.6168C15.2463 17.6042 15.2463 17.5891 15.2488 17.579C15.2513 17.5664 15.2538 17.5538 15.2588 17.5437C15.2513 17.5538 15.2438 17.5613 15.2337 17.5689C15.2237 17.5765 15.2136 17.584 15.2011 17.5916L15.0278 17.6925L14.9801 17.6067L15.1534 17.5058C15.1659 17.4983 15.1785 17.4932 15.1885 17.4882C15.2011 17.4831 15.2136 17.4806 15.2262 17.4806C15.2011 17.4781 15.176 17.468 15.1534 17.4529L14.9775 17.3495L15.0253 17.2637L15.2011 17.3671C15.2136 17.3747 15.2237 17.3823 15.2337 17.3898C15.2438 17.3974 15.2513 17.4075 15.2588 17.4201C15.2538 17.4075 15.2488 17.3949 15.2463 17.3823C15.2438 17.3696 15.2438 17.3545 15.2438 17.3419V17.1401H15.3417V17.3394C15.3417 17.352 15.3417 17.3671 15.3392 17.3797C15.3367 17.3923 15.3342 17.405 15.3292 17.4176C15.3367 17.4075 15.3442 17.3974 15.3543 17.3898C15.3643 17.3823 15.3744 17.3747 15.3869 17.3671L15.5602 17.2662L15.608 17.352L15.4347 17.4529C15.4221 17.4604 15.4121 17.4655 15.3995 17.4705C15.3869 17.4756 15.3769 17.4781 15.3643 17.4806C15.3869 17.4831 15.4121 17.4932 15.4347 17.5058L15.6155 17.6042Z" fill="#E22222"/>
<path d="M16.8225 17.6042L16.7748 17.69L16.599 17.5866C16.5864 17.579 16.5764 17.5714 16.5638 17.5639C16.5538 17.5563 16.5437 17.5462 16.5362 17.5361C16.5462 17.5613 16.5513 17.5865 16.5513 17.6143V17.8161H16.4533V17.6168C16.4533 17.6042 16.4533 17.5891 16.4558 17.579C16.4583 17.5664 16.4608 17.5538 16.4659 17.5437C16.4583 17.5538 16.4508 17.5613 16.4408 17.5689C16.4307 17.5765 16.4207 17.584 16.4081 17.5916L16.2348 17.6925L16.1871 17.6067L16.3604 17.5058C16.3729 17.4983 16.3855 17.4932 16.3955 17.4882C16.4081 17.4831 16.4207 17.4806 16.4332 17.4806C16.4081 17.4781 16.383 17.468 16.3604 17.4529L16.1846 17.3495L16.2323 17.2637L16.4081 17.3671C16.4207 17.3747 16.4307 17.3823 16.4408 17.3898C16.4508 17.3974 16.4583 17.4075 16.4659 17.4201C16.4608 17.4075 16.4558 17.3949 16.4533 17.3823C16.4508 17.3696 16.4508 17.3545 16.4508 17.3419V17.1401H16.5488V17.3394C16.5488 17.352 16.5488 17.3671 16.5462 17.3797C16.5437 17.3923 16.5412 17.405 16.5362 17.4176C16.5437 17.4075 16.5513 17.3974 16.5613 17.3898C16.5714 17.3823 16.5814 17.3747 16.594 17.3671L16.7673 17.2662L16.815 17.352L16.6417 17.4529C16.6291 17.4604 16.6191 17.4655 16.6065 17.4705C16.594 17.4756 16.5839 17.4781 16.5714 17.4806C16.594 17.4831 16.6191 17.4932 16.6417 17.5058L16.8225 17.6042Z" fill="#E22222"/>
<path d="M18.0305 17.6042L17.9828 17.69L17.807 17.5866C17.7944 17.579 17.7844 17.5714 17.7718 17.5639C17.7618 17.5563 17.7517 17.5462 17.7442 17.5361C17.7543 17.5613 17.7593 17.5865 17.7593 17.6143V17.8161H17.6613V17.6168C17.6613 17.6042 17.6613 17.5891 17.6638 17.579C17.6663 17.5664 17.6689 17.5538 17.6739 17.5437C17.6663 17.5538 17.6588 17.5613 17.6488 17.5689C17.6387 17.5765 17.6287 17.584 17.6161 17.5916L17.4428 17.6925L17.3951 17.6067L17.5684 17.5058C17.5809 17.4983 17.5935 17.4932 17.6036 17.4882C17.6161 17.4831 17.6287 17.4806 17.6412 17.4806C17.6161 17.4781 17.591 17.468 17.5684 17.4529L17.3926 17.3495L17.4403 17.2637L17.6161 17.3671C17.6287 17.3747 17.6387 17.3823 17.6488 17.3898C17.6588 17.3974 17.6663 17.4075 17.6739 17.4201C17.6689 17.4075 17.6638 17.3949 17.6613 17.3823C17.6588 17.3696 17.6588 17.3545 17.6588 17.3419V17.1401H17.7568V17.3394C17.7568 17.352 17.7568 17.3671 17.7543 17.3797C17.7517 17.3923 17.7492 17.405 17.7442 17.4176C17.7517 17.4075 17.7593 17.3974 17.7693 17.3898C17.7794 17.3823 17.7894 17.3747 17.802 17.3671L17.9753 17.2662L18.023 17.352L17.8497 17.4529C17.8371 17.4604 17.8271 17.4655 17.8145 17.4705C17.802 17.4756 17.7919 17.4781 17.7794 17.4806C17.802 17.4831 17.8271 17.4932 17.8497 17.5058L18.0305 17.6042Z" fill="#E22222"/>
<path d="M19.2395 17.6042L19.1918 17.69L19.016 17.5866C19.0034 17.579 18.9934 17.5714 18.9808 17.5639C18.9708 17.5563 18.9607 17.5462 18.9532 17.5361C18.9632 17.5613 18.9683 17.5865 18.9683 17.6143V17.8161H18.8703V17.6168C18.8703 17.6042 18.8703 17.5891 18.8728 17.579C18.8753 17.5664 18.8778 17.5538 18.8829 17.5437C18.8753 17.5538 18.8678 17.5613 18.8578 17.5689C18.8477 17.5765 18.8377 17.584 18.8251 17.5916L18.6518 17.6925L18.6041 17.6067L18.7774 17.5058C18.7899 17.4983 18.8025 17.4932 18.8125 17.4882C18.8251 17.4831 18.8377 17.4806 18.8502 17.4806C18.8251 17.4781 18.8 17.468 18.7774 17.4529L18.6016 17.3495L18.6493 17.2637L18.8251 17.3671C18.8377 17.3747 18.8477 17.3823 18.8578 17.3898C18.8678 17.3974 18.8753 17.4075 18.8829 17.4201C18.8778 17.4075 18.8728 17.3949 18.8703 17.3823C18.8678 17.3696 18.8678 17.3545 18.8678 17.3419V17.1401H18.9658V17.3394C18.9658 17.352 18.9657 17.3671 18.9632 17.3797C18.9607 17.3923 18.9582 17.405 18.9532 17.4176C18.9607 17.4075 18.9683 17.3974 18.9783 17.3898C18.9884 17.3823 18.9984 17.3747 19.011 17.3671L19.1843 17.2662L19.232 17.352L19.0587 17.4529C19.0461 17.4604 19.0361 17.4655 19.0235 17.4705C19.011 17.4756 19.0009 17.4781 18.9884 17.4806C19.011 17.4831 19.0361 17.4932 19.0587 17.5058L19.2395 17.6042Z" fill="#E22222"/>
<path d="M20.4465 17.6042L20.3988 17.69L20.223 17.5866C20.2105 17.579 20.2004 17.5714 20.1878 17.5639C20.1778 17.5563 20.1678 17.5462 20.1602 17.5361C20.1703 17.5613 20.1753 17.5865 20.1753 17.6143V17.8161H20.0773V17.6168C20.0773 17.6042 20.0773 17.5891 20.0798 17.579C20.0824 17.5664 20.0849 17.5538 20.0899 17.5437C20.0824 17.5538 20.0748 17.5613 20.0648 17.5689C20.0547 17.5765 20.0447 17.584 20.0321 17.5916L19.8588 17.6925L19.8111 17.6067L19.9844 17.5058C19.997 17.4983 20.0095 17.4932 20.0196 17.4882C20.0321 17.4831 20.0447 17.4806 20.0572 17.4806C20.0321 17.4781 20.007 17.468 19.9844 17.4529L19.8086 17.3495L19.8563 17.2637L20.0321 17.3671C20.0447 17.3747 20.0547 17.3823 20.0648 17.3898C20.0748 17.3974 20.0824 17.4075 20.0899 17.4201C20.0849 17.4075 20.0798 17.3949 20.0773 17.3823C20.0748 17.3696 20.0748 17.3545 20.0748 17.3419V17.1401H20.1728V17.3394C20.1728 17.352 20.1728 17.3671 20.1703 17.3797C20.1678 17.3923 20.1652 17.405 20.1602 17.4176C20.1678 17.4075 20.1753 17.3974 20.1853 17.3898C20.1954 17.3823 20.2054 17.3747 20.218 17.3671L20.3913 17.2662L20.439 17.352L20.2657 17.4529C20.2532 17.4604 20.2431 17.4655 20.2305 17.4705C20.218 17.4756 20.2079 17.4781 20.1954 17.4806C20.218 17.4831 20.2431 17.4932 20.2657 17.5058L20.4465 17.6042Z" fill="#E22222"/>
<path d="M21.6555 17.6042L21.6078 17.69L21.432 17.5866C21.4194 17.579 21.4094 17.5714 21.3968 17.5639C21.3868 17.5563 21.3767 17.5462 21.3692 17.5361C21.3793 17.5613 21.3843 17.5865 21.3843 17.6143V17.8161H21.2863V17.6168C21.2863 17.6042 21.2863 17.5891 21.2888 17.579C21.2913 17.5664 21.2939 17.5538 21.2989 17.5437C21.2913 17.5538 21.2838 17.5613 21.2738 17.5689C21.2637 17.5765 21.2537 17.584 21.2411 17.5916L21.0678 17.6925L21.0201 17.6067L21.1934 17.5058C21.2059 17.4983 21.2185 17.4932 21.2286 17.4882C21.2411 17.4831 21.2537 17.4806 21.2662 17.4806C21.2411 17.4781 21.216 17.468 21.1934 17.4529L21.0176 17.3495L21.0653 17.2637L21.2411 17.3671C21.2537 17.3747 21.2637 17.3823 21.2738 17.3898C21.2838 17.3974 21.2913 17.4075 21.2989 17.4201C21.2939 17.4075 21.2888 17.3949 21.2863 17.3823C21.2838 17.3696 21.2838 17.3545 21.2838 17.3419V17.1401H21.3818V17.3394C21.3818 17.352 21.3818 17.3671 21.3793 17.3797C21.3767 17.3923 21.3742 17.405 21.3692 17.4176C21.3767 17.4075 21.3843 17.3974 21.3943 17.3898C21.4044 17.3823 21.4144 17.3747 21.427 17.3671L21.6003 17.2662L21.648 17.352L21.4747 17.4529C21.4621 17.4604 21.4521 17.4655 21.4395 17.4705C21.427 17.4756 21.4169 17.4781 21.4044 17.4806C21.427 17.4831 21.4521 17.4932 21.4747 17.5058L21.6555 17.6042Z" fill="#E22222"/>
<path d="M22.8635 17.6043L22.8158 17.69L22.64 17.5866C22.6274 17.5791 22.6174 17.5715 22.6048 17.5639C22.5948 17.5564 22.5847 17.5463 22.5772 17.5362C22.5873 17.5614 22.5923 17.5866 22.5923 17.6144V17.8161H22.4943V17.6169C22.4943 17.6043 22.4943 17.5892 22.4968 17.5791C22.4994 17.5665 22.5019 17.5538 22.5069 17.5438C22.4994 17.5538 22.4918 17.5614 22.4818 17.569C22.4717 17.5765 22.4617 17.5841 22.4491 17.5917L22.2758 17.6926L22.2281 17.6043L22.4014 17.5034C22.414 17.4958 22.4265 17.4908 22.4366 17.4857C22.4491 17.4807 22.4617 17.4782 22.4742 17.4782C22.4491 17.4757 22.424 17.4656 22.4014 17.4504L22.2256 17.347L22.2733 17.2613L22.4491 17.3647C22.4617 17.3723 22.4717 17.3798 22.4818 17.3874C22.4918 17.395 22.4994 17.405 22.5069 17.4177C22.5019 17.405 22.4968 17.3924 22.4943 17.3798C22.4918 17.3672 22.4918 17.3521 22.4918 17.3395V17.1377H22.5898V17.3369C22.5898 17.3496 22.5898 17.3647 22.5873 17.3773C22.5847 17.3899 22.5822 17.4025 22.5772 17.4151C22.5847 17.405 22.5923 17.395 22.6023 17.3874C22.6124 17.3798 22.6224 17.3723 22.635 17.3647L22.8083 17.2638L22.856 17.3496L22.6827 17.4504C22.6701 17.458 22.6601 17.4631 22.6475 17.4681C22.635 17.4731 22.6249 17.4757 22.6124 17.4782C22.635 17.4807 22.6601 17.4908 22.6827 17.5034L22.8635 17.6043Z" fill="#E22222"/>
<path d="M24.0706 17.6042L24.0229 17.69L23.847 17.5866C23.8345 17.579 23.8244 17.5714 23.8119 17.5639C23.8018 17.5563 23.7918 17.5462 23.7842 17.5361C23.7943 17.5613 23.7993 17.5865 23.7993 17.6143V17.8161H23.7014V17.6168C23.7014 17.6042 23.7014 17.5891 23.7039 17.579C23.7064 17.5664 23.7089 17.5538 23.7139 17.5437C23.7064 17.5538 23.6988 17.5613 23.6888 17.5689C23.6788 17.5765 23.6687 17.584 23.6562 17.5916L23.4828 17.6925L23.4351 17.6067L23.6084 17.5058C23.621 17.4983 23.6335 17.4932 23.6436 17.4882C23.6562 17.4831 23.6687 17.4806 23.6813 17.4806C23.6562 17.4781 23.631 17.468 23.6084 17.4529L23.4326 17.3495L23.4803 17.2637L23.6562 17.3671C23.6687 17.3747 23.6788 17.3823 23.6888 17.3898C23.6988 17.3974 23.7064 17.4075 23.7139 17.4201C23.7089 17.4075 23.7039 17.3949 23.7014 17.3823C23.6989 17.3696 23.6988 17.3545 23.6988 17.3419V17.1401H23.7968V17.3394C23.7968 17.352 23.7968 17.3671 23.7943 17.3797C23.7918 17.3923 23.7893 17.405 23.7842 17.4176C23.7918 17.4075 23.7993 17.3974 23.8094 17.3898C23.8194 17.3823 23.8295 17.3747 23.842 17.3671L24.0153 17.2662L24.063 17.352L23.8897 17.4529C23.8772 17.4604 23.8671 17.4655 23.8546 17.4705C23.842 17.4756 23.832 17.4781 23.8194 17.4806C23.842 17.4831 23.8671 17.4932 23.8897 17.5058L24.0706 17.6042Z" fill="#E22222"/>
<path d="M25.2766 17.6042L25.2289 17.69L25.0531 17.5866C25.0405 17.579 25.0305 17.5714 25.0179 17.5639C25.0079 17.5563 24.9978 17.5462 24.9903 17.5361C25.0003 17.5613 25.0054 17.5865 25.0054 17.6143V17.8161H24.9074V17.6168C24.9074 17.6042 24.9074 17.5891 24.9099 17.579C24.9124 17.5664 24.915 17.5538 24.92 17.5437C24.9124 17.5538 24.9049 17.5613 24.8949 17.5689C24.8848 17.5765 24.8748 17.584 24.8622 17.5916L24.6889 17.6925L24.6412 17.6067L24.8145 17.5058C24.827 17.4983 24.8396 17.4932 24.8496 17.4882C24.8622 17.4831 24.8748 17.4806 24.8873 17.4806C24.8622 17.4781 24.8371 17.468 24.8145 17.4529L24.6387 17.3495L24.6864 17.2637L24.8622 17.3671C24.8748 17.3747 24.8848 17.3823 24.8949 17.3898C24.9049 17.3974 24.9124 17.4075 24.92 17.4201C24.915 17.4075 24.9099 17.3949 24.9074 17.3823C24.9049 17.3696 24.9049 17.3545 24.9049 17.3419V17.1401H25.0029V17.3394C25.0029 17.352 25.0029 17.3671 25.0003 17.3797C24.9978 17.3923 24.9953 17.405 24.9903 17.4176C24.9978 17.4075 25.0054 17.3974 25.0154 17.3898C25.0255 17.3823 25.0355 17.3747 25.0481 17.3671L25.2214 17.2662L25.2691 17.352L25.0958 17.4529C25.0832 17.4604 25.0732 17.4655 25.0606 17.4705C25.0481 17.4756 25.038 17.4781 25.0255 17.4806C25.0481 17.4831 25.0732 17.4932 25.0958 17.5058L25.2766 17.6042Z" fill="#E22222"/>
<path d="M26.4846 17.6042L26.4369 17.69L26.2611 17.5866C26.2485 17.579 26.2385 17.5714 26.2259 17.5639C26.2159 17.5563 26.2058 17.5462 26.1983 17.5361C26.2084 17.5613 26.2134 17.5865 26.2134 17.6143V17.8161H26.1154V17.6168C26.1154 17.6042 26.1154 17.5891 26.1179 17.579C26.1204 17.5664 26.123 17.5538 26.128 17.5437C26.1204 17.5538 26.1129 17.5613 26.1029 17.5689C26.0928 17.5765 26.0828 17.584 26.0702 17.5916L25.8969 17.6925L25.8492 17.6067L26.0225 17.5058C26.0351 17.4983 26.0476 17.4932 26.0577 17.4882C26.0702 17.4831 26.0828 17.4806 26.0953 17.4806C26.0702 17.4781 26.0451 17.468 26.0225 17.4529L25.8467 17.3495L25.8944 17.2637L26.0702 17.3671C26.0828 17.3747 26.0928 17.3823 26.1029 17.3898C26.1129 17.3974 26.1204 17.4075 26.128 17.4201C26.123 17.4075 26.1179 17.3949 26.1154 17.3823C26.1129 17.3696 26.1129 17.3545 26.1129 17.3419V17.1401H26.2109V17.3394C26.2109 17.352 26.2109 17.3671 26.2084 17.3797C26.2058 17.3923 26.2033 17.405 26.1983 17.4176C26.2058 17.4075 26.2134 17.3974 26.2234 17.3898C26.2335 17.3823 26.2435 17.3747 26.2561 17.3671L26.4294 17.2662L26.4771 17.352L26.3038 17.4529C26.2912 17.4604 26.2812 17.4655 26.2686 17.4705C26.2561 17.4756 26.246 17.4781 26.2335 17.4806C26.2561 17.4831 26.2812 17.4932 26.3038 17.5058L26.4846 17.6042Z" fill="#E22222"/>
<path d="M27.6926 17.6042L27.6449 17.69L27.4691 17.5866C27.4566 17.579 27.4465 17.5714 27.4339 17.5639C27.4239 17.5563 27.4139 17.5462 27.4063 17.5361C27.4164 17.5613 27.4214 17.5865 27.4214 17.6143V17.8161H27.3234V17.6168C27.3234 17.6042 27.3234 17.5891 27.3259 17.579C27.3285 17.5664 27.331 17.5538 27.336 17.5437C27.3285 17.5538 27.3209 17.5613 27.3109 17.5689C27.3008 17.5765 27.2908 17.584 27.2782 17.5916L27.1049 17.6925L27.0572 17.6067L27.2305 17.5058C27.2431 17.4983 27.2556 17.4932 27.2657 17.4882C27.2782 17.4831 27.2908 17.4806 27.3033 17.4806C27.2782 17.4781 27.2531 17.468 27.2305 17.4529L27.0547 17.3495L27.1024 17.2637L27.2782 17.3671C27.2908 17.3747 27.3008 17.3823 27.3109 17.3898C27.3209 17.3974 27.3285 17.4075 27.336 17.4201C27.331 17.4075 27.3259 17.3949 27.3234 17.3823C27.3209 17.3696 27.3209 17.3545 27.3209 17.3419V17.1401H27.4189V17.3394C27.4189 17.352 27.4189 17.3671 27.4164 17.3797C27.4139 17.3923 27.4113 17.405 27.4063 17.4176C27.4139 17.4075 27.4214 17.3974 27.4314 17.3898C27.4415 17.3823 27.4515 17.3747 27.4641 17.3671L27.6374 17.2662L27.6851 17.352L27.5118 17.4529C27.4992 17.4604 27.4892 17.4655 27.4766 17.4705C27.4641 17.4756 27.454 17.4781 27.4415 17.4806C27.4641 17.4831 27.4892 17.4932 27.5118 17.5058L27.6926 17.6042Z" fill="#E22222"/>
<path d="M28.9016 17.6042L28.8539 17.69L28.6781 17.5866C28.6655 17.579 28.6555 17.5714 28.6429 17.5639C28.6329 17.5563 28.6228 17.5462 28.6153 17.5361C28.6253 17.5613 28.6304 17.5865 28.6304 17.6143V17.8161H28.5324V17.6168C28.5324 17.6042 28.5324 17.5891 28.5349 17.579C28.5374 17.5664 28.54 17.5538 28.545 17.5437C28.5374 17.5538 28.5299 17.5613 28.5199 17.5689C28.5098 17.5765 28.4998 17.584 28.4872 17.5916L28.3139 17.6925L28.2662 17.6067L28.4395 17.5058C28.452 17.4983 28.4646 17.4932 28.4747 17.4882C28.4872 17.4831 28.4998 17.4806 28.5123 17.4806C28.4872 17.4781 28.4621 17.468 28.4395 17.4529L28.2637 17.3495L28.3114 17.2637L28.4872 17.3671C28.4998 17.3747 28.5098 17.3823 28.5199 17.3898C28.5299 17.3974 28.5374 17.4075 28.545 17.4201C28.54 17.4075 28.5349 17.3949 28.5324 17.3823C28.5299 17.3696 28.5299 17.3545 28.5299 17.3419V17.1401H28.6329V17.3394C28.6329 17.352 28.6329 17.3671 28.6304 17.3797C28.6279 17.3923 28.6253 17.405 28.6203 17.4176C28.6279 17.4075 28.6354 17.3974 28.6454 17.3898C28.6555 17.3823 28.6655 17.3747 28.6781 17.3671L28.8514 17.2662L28.8991 17.352L28.7258 17.4529C28.7133 17.4604 28.7032 17.4655 28.6907 17.4705C28.6781 17.4756 28.668 17.4781 28.6555 17.4806C28.6781 17.4831 28.7032 17.4932 28.7258 17.5058L28.9016 17.6042Z" fill="#E22222"/>
<path d="M30.1096 17.6042L30.0619 17.69L29.8861 17.5866C29.8735 17.579 29.8635 17.5714 29.8509 17.5639C29.8409 17.5563 29.8308 17.5462 29.8233 17.5361C29.8334 17.5613 29.8384 17.5865 29.8384 17.6143V17.8161H29.7404V17.6168C29.7404 17.6042 29.7404 17.5891 29.7429 17.579C29.7454 17.5664 29.748 17.5538 29.753 17.5437C29.7454 17.5538 29.7379 17.5613 29.7279 17.5689C29.7178 17.5765 29.7078 17.584 29.6952 17.5916L29.5219 17.6925L29.4742 17.6067L29.6475 17.5058C29.6601 17.4983 29.6726 17.4932 29.6827 17.4882C29.6952 17.4831 29.7078 17.4806 29.7203 17.4806C29.6952 17.4781 29.6701 17.468 29.6475 17.4529L29.4717 17.3495L29.5194 17.2637L29.6952 17.3671C29.7078 17.3747 29.7178 17.3823 29.7279 17.3898C29.7379 17.3974 29.7454 17.4075 29.753 17.4201C29.748 17.4075 29.7429 17.3949 29.7404 17.3823C29.7379 17.3696 29.7379 17.3545 29.7379 17.3419V17.1401H29.8359V17.3394C29.8359 17.352 29.8359 17.3671 29.8334 17.3797C29.8308 17.3923 29.8283 17.405 29.8233 17.4176C29.8308 17.4075 29.8384 17.3974 29.8484 17.3898C29.8585 17.3823 29.8685 17.3747 29.8811 17.3671L30.0544 17.2662L30.1021 17.352L29.9288 17.4529C29.9162 17.4604 29.9062 17.4655 29.8936 17.4705C29.8811 17.4756 29.871 17.4781 29.8585 17.4806C29.8811 17.4831 29.9062 17.4932 29.9288 17.5058L30.1096 17.6042Z" fill="#E22222"/>
<path d="M31.3167 17.6042L31.2689 17.69L31.0931 17.5866C31.0806 17.579 31.0705 17.5714 31.058 17.5639C31.0479 17.5563 31.0379 17.5462 31.0303 17.5361C31.0404 17.5613 31.0454 17.5865 31.0454 17.6143V17.8161H30.9475V17.6168C30.9475 17.6042 30.9475 17.5891 30.95 17.579C30.9525 17.5664 30.955 17.5538 30.96 17.5437C30.9525 17.5538 30.9449 17.5613 30.9349 17.5689C30.9249 17.5765 30.9148 17.584 30.9022 17.5916L30.7289 17.6925L30.6812 17.6067L30.8545 17.5058C30.8671 17.4983 30.8796 17.4932 30.8897 17.4882C30.9022 17.4831 30.9148 17.4806 30.9274 17.4806C30.9022 17.4781 30.8771 17.468 30.8545 17.4529L30.6787 17.3495L30.7264 17.2637L30.9022 17.3671C30.9148 17.3747 30.9249 17.3823 30.9349 17.3898C30.9449 17.3974 30.9525 17.4075 30.96 17.4201C30.955 17.4075 30.95 17.3949 30.9475 17.3823C30.9449 17.3696 30.9449 17.3545 30.9449 17.3419V17.1401H31.0429V17.3394C31.0429 17.352 31.0429 17.3671 31.0404 17.3797C31.0379 17.3923 31.0354 17.405 31.0303 17.4176C31.0379 17.4075 31.0454 17.3974 31.0555 17.3898C31.0655 17.3823 31.0755 17.3747 31.0881 17.3671L31.2614 17.2662L31.3091 17.352L31.1358 17.4529C31.1233 17.4604 31.1132 17.4655 31.1007 17.4705C31.0881 17.4756 31.0781 17.4781 31.0655 17.4806C31.0881 17.4831 31.1132 17.4932 31.1358 17.5058L31.3167 17.6042Z" fill="#E22222"/>
<path d="M32.5256 17.6042L32.4779 17.69L32.3021 17.5866C32.2896 17.579 32.2795 17.5714 32.267 17.5639C32.2569 17.5563 32.2469 17.5462 32.2393 17.5361C32.2494 17.5613 32.2544 17.5865 32.2544 17.6143V17.8161H32.1564V17.6168C32.1564 17.6042 32.1564 17.5891 32.1589 17.579C32.1615 17.5664 32.164 17.5538 32.169 17.5437C32.1615 17.5538 32.1539 17.5613 32.1439 17.5689C32.1338 17.5765 32.1238 17.584 32.1112 17.5916L31.9379 17.6925L31.8902 17.6067L32.0635 17.5058C32.0761 17.4983 32.0886 17.4932 32.0987 17.4882C32.1112 17.4831 32.1238 17.4806 32.1363 17.4806C32.1112 17.4781 32.0861 17.468 32.0635 17.4529L31.8877 17.3495L31.9354 17.2637L32.1112 17.3671C32.1238 17.3747 32.1338 17.3823 32.1439 17.3898C32.1539 17.3974 32.1615 17.4075 32.169 17.4201C32.164 17.4075 32.159 17.3949 32.1564 17.3823C32.1539 17.3696 32.1539 17.3545 32.1539 17.3419V17.1401H32.2519V17.3394C32.2519 17.352 32.2519 17.3671 32.2494 17.3797C32.2469 17.3923 32.2443 17.405 32.2393 17.4176C32.2469 17.4075 32.2544 17.3974 32.2644 17.3898C32.2745 17.3823 32.2845 17.3747 32.2971 17.3671L32.4704 17.2662L32.5181 17.352L32.3448 17.4529C32.3323 17.4604 32.3222 17.4655 32.3096 17.4705C32.2971 17.4756 32.287 17.4781 32.2745 17.4806C32.2971 17.4831 32.3222 17.4932 32.3448 17.5058L32.5256 17.6042Z" fill="#E22222"/>
<path d="M33.7337 17.6042L33.6859 17.69L33.5101 17.5866C33.4976 17.579 33.4875 17.5714 33.475 17.5639C33.4649 17.5563 33.4549 17.5462 33.4473 17.5361C33.4574 17.5613 33.4624 17.5865 33.4624 17.6143V17.8161H33.3644V17.6168C33.3644 17.6042 33.3644 17.5891 33.367 17.579C33.3695 17.5664 33.372 17.5538 33.377 17.5437C33.3695 17.5538 33.3619 17.5613 33.3519 17.5689C33.3418 17.5765 33.3318 17.584 33.3192 17.5916L33.1459 17.6925L33.0982 17.6067L33.2715 17.5058C33.2841 17.4983 33.2966 17.4932 33.3067 17.4882C33.3192 17.4831 33.3318 17.4806 33.3444 17.4806C33.3192 17.4781 33.2941 17.468 33.2715 17.4529L33.0957 17.3495L33.1434 17.2637L33.3192 17.3671C33.3318 17.3747 33.3418 17.3823 33.3519 17.3898C33.3619 17.3974 33.3695 17.4075 33.377 17.4201C33.372 17.4075 33.367 17.3949 33.3644 17.3823C33.3619 17.3696 33.3619 17.3545 33.3619 17.3419V17.1401H33.4599V17.3394C33.4599 17.352 33.4599 17.3671 33.4574 17.3797C33.4549 17.3923 33.4524 17.405 33.4473 17.4176C33.4549 17.4075 33.4624 17.3974 33.4724 17.3898C33.4825 17.3823 33.4925 17.3747 33.5051 17.3671L33.6784 17.2662L33.7261 17.352L33.5528 17.4529C33.5403 17.4604 33.5302 17.4655 33.5177 17.4705C33.5051 17.4756 33.495 17.4781 33.4825 17.4806C33.5051 17.4831 33.5302 17.4932 33.5528 17.5058L33.7337 17.6042Z" fill="#E22222"/>
<path d="M34.9417 17.6042L34.8939 17.69L34.7181 17.5866C34.7056 17.579 34.6955 17.5714 34.683 17.5639C34.6729 17.5563 34.6629 17.5462 34.6553 17.5361C34.6654 17.5613 34.6704 17.5865 34.6704 17.6143V17.8161H34.5725V17.6168C34.5725 17.6042 34.5725 17.5891 34.575 17.579C34.5775 17.5664 34.58 17.5538 34.585 17.5437C34.5775 17.5538 34.5699 17.5613 34.5599 17.5689C34.5499 17.5765 34.5398 17.584 34.5272 17.5916L34.3539 17.6925L34.3062 17.6067L34.4795 17.5058C34.4921 17.4983 34.5046 17.4932 34.5147 17.4882C34.5272 17.4831 34.5398 17.4806 34.5524 17.4806C34.5272 17.4781 34.5021 17.468 34.4795 17.4529L34.3037 17.3495L34.3514 17.2637L34.5272 17.3671C34.5398 17.3747 34.5499 17.3823 34.5599 17.3898C34.5699 17.3974 34.5775 17.4075 34.585 17.4201C34.58 17.4075 34.575 17.3949 34.5725 17.3823C34.5699 17.3696 34.5699 17.3545 34.5699 17.3419V17.1401H34.6679V17.3394C34.6679 17.352 34.6679 17.3671 34.6654 17.3797C34.6629 17.3923 34.6604 17.405 34.6553 17.4176C34.6629 17.4075 34.6704 17.3974 34.6805 17.3898C34.6905 17.3823 34.7006 17.3747 34.7131 17.3671L34.8864 17.2662L34.9341 17.352L34.7608 17.4529C34.7483 17.4604 34.7382 17.4655 34.7257 17.4705C34.7131 17.4756 34.7031 17.4781 34.6905 17.4806C34.7131 17.4831 34.7382 17.4932 34.7608 17.5058L34.9417 17.6042Z" fill="#E22222"/>
<path d="M36.1506 17.6042L36.1029 17.69L35.9271 17.5866C35.9146 17.579 35.9045 17.5714 35.8919 17.5639C35.8819 17.5563 35.8719 17.5462 35.8643 17.5361C35.8744 17.5613 35.8794 17.5865 35.8794 17.6143V17.8161H35.7814V17.6168C35.7814 17.6042 35.7814 17.5891 35.784 17.579C35.7865 17.5664 35.789 17.5538 35.794 17.5437C35.7865 17.5538 35.7789 17.5613 35.7689 17.5689C35.7588 17.5765 35.7488 17.584 35.7362 17.5916L35.5629 17.6925L35.5152 17.6067L35.6885 17.5058C35.7011 17.4983 35.7136 17.4932 35.7237 17.4882C35.7362 17.4831 35.7488 17.4806 35.7613 17.4806C35.7362 17.4781 35.7111 17.468 35.6885 17.4529L35.5127 17.3495L35.5604 17.2637L35.7362 17.3671C35.7488 17.3747 35.7588 17.3823 35.7689 17.3898C35.7789 17.3974 35.7865 17.4075 35.794 17.4201C35.789 17.4075 35.784 17.3949 35.7814 17.3823C35.7789 17.3696 35.7789 17.3545 35.7789 17.3419V17.1401H35.8769V17.3394C35.8769 17.352 35.8769 17.3671 35.8744 17.3797C35.8719 17.3923 35.8693 17.405 35.8643 17.4176C35.8719 17.4075 35.8794 17.3974 35.8894 17.3898C35.8995 17.3823 35.9095 17.3747 35.9221 17.3671L36.0954 17.2662L36.1431 17.352L35.9698 17.4529C35.9573 17.4604 35.9472 17.4655 35.9347 17.4705C35.9221 17.4756 35.912 17.4781 35.8995 17.4806C35.9221 17.4831 35.9472 17.4932 35.9698 17.5058L36.1506 17.6042Z" fill="#E22222"/>
<path d="M37.3577 17.6042L37.31 17.69L37.1341 17.5866C37.1216 17.579 37.1115 17.5714 37.099 17.5639C37.0889 17.5563 37.0789 17.5462 37.0714 17.5361C37.0814 17.5613 37.0864 17.5865 37.0864 17.6143V17.8161H36.9885V17.6168C36.9885 17.6042 36.9885 17.5891 36.991 17.579C36.9935 17.5664 36.996 17.5538 37.001 17.5437C36.9935 17.5538 36.986 17.5613 36.9759 17.5689C36.9659 17.5765 36.9558 17.584 36.9433 17.5916L36.77 17.6925L36.7222 17.6067L36.8955 17.5058C36.9081 17.4983 36.9207 17.4932 36.9307 17.4882C36.9433 17.4831 36.9558 17.4806 36.9684 17.4806C36.9433 17.4781 36.9181 17.468 36.8955 17.4529L36.7197 17.3495L36.7674 17.2637L36.9433 17.3671C36.9558 17.3747 36.9659 17.3823 36.9759 17.3898C36.986 17.3974 36.9935 17.4075 37.001 17.4201C36.996 17.4075 36.991 17.3949 36.9885 17.3823C36.986 17.3696 36.986 17.3545 36.986 17.3419V17.1401H37.0839V17.3394C37.0839 17.352 37.0839 17.3671 37.0814 17.3797C37.0789 17.3923 37.0764 17.405 37.0714 17.4176C37.0789 17.4075 37.0864 17.3974 37.0965 17.3898C37.1065 17.3823 37.1166 17.3747 37.1291 17.3671L37.3024 17.2662L37.3501 17.352L37.1768 17.4529C37.1643 17.4604 37.1542 17.4655 37.1417 17.4705C37.1291 17.4756 37.1191 17.4781 37.1065 17.4806C37.1291 17.4831 37.1542 17.4932 37.1768 17.5058L37.3577 17.6042Z" fill="#E22222"/>
<path d="M38.5657 17.6042L38.518 17.69L38.3422 17.5866C38.3296 17.579 38.3196 17.5714 38.307 17.5639C38.2969 17.5563 38.2869 17.5462 38.2794 17.5361C38.2894 17.5613 38.2944 17.5865 38.2944 17.6143V17.8161H38.1965V17.6168C38.1965 17.6042 38.1965 17.5891 38.199 17.579C38.2015 17.5664 38.204 17.5538 38.209 17.5437C38.2015 17.5538 38.194 17.5613 38.1839 17.5689C38.1739 17.5765 38.1638 17.584 38.1513 17.5916L37.978 17.6925L37.9302 17.6067L38.1036 17.5058C38.1161 17.4983 38.1287 17.4932 38.1387 17.4882C38.1513 17.4831 38.1638 17.4806 38.1764 17.4806C38.1513 17.4781 38.1262 17.468 38.1036 17.4529L37.9277 17.3495L37.9755 17.2637L38.1513 17.3671C38.1638 17.3747 38.1739 17.3823 38.1839 17.3898C38.194 17.3974 38.2015 17.4075 38.209 17.4201C38.204 17.4075 38.199 17.3949 38.1965 17.3823C38.194 17.3696 38.194 17.3545 38.194 17.3419V17.1401H38.2919V17.3394C38.2919 17.352 38.2919 17.3671 38.2894 17.3797C38.2869 17.3923 38.2844 17.405 38.2794 17.4176C38.2869 17.4075 38.2944 17.3974 38.3045 17.3898C38.3145 17.3823 38.3246 17.3747 38.3371 17.3671L38.5104 17.2662L38.5582 17.352L38.3849 17.4529C38.3723 17.4604 38.3622 17.4655 38.3497 17.4705C38.3371 17.4756 38.3271 17.4781 38.3145 17.4806C38.3371 17.4831 38.3622 17.4932 38.3849 17.5058L38.5657 17.6042Z" fill="#E22222"/>
<path d="M39.7747 17.6042L39.727 17.69L39.5511 17.5866C39.5386 17.579 39.5285 17.5714 39.516 17.5639C39.5059 17.5563 39.4959 17.5462 39.4883 17.5361C39.4984 17.5613 39.5034 17.5865 39.5034 17.6143V17.8161H39.4055V17.6168C39.4055 17.6042 39.4055 17.5891 39.408 17.579C39.4105 17.5664 39.413 17.5538 39.418 17.5437C39.4105 17.5538 39.403 17.5613 39.3929 17.5689C39.3829 17.5765 39.3728 17.584 39.3603 17.5916L39.187 17.6925L39.1392 17.6067L39.3125 17.5058C39.3251 17.4983 39.3377 17.4932 39.3477 17.4882C39.3603 17.4831 39.3728 17.4806 39.3854 17.4806C39.3603 17.4781 39.3351 17.468 39.3125 17.4529L39.1367 17.3495L39.1844 17.2637L39.3603 17.3671C39.3728 17.3747 39.3829 17.3823 39.3929 17.3898C39.403 17.3974 39.4105 17.4075 39.418 17.4201C39.413 17.4075 39.408 17.3949 39.4055 17.3823C39.403 17.3696 39.403 17.3545 39.403 17.3419V17.1401H39.5009V17.3394C39.5009 17.352 39.5009 17.3671 39.4984 17.3797C39.4959 17.3923 39.4934 17.405 39.4883 17.4176C39.4959 17.4075 39.5034 17.3974 39.5135 17.3898C39.5235 17.3823 39.5336 17.3747 39.5461 17.3671L39.7194 17.2662L39.7671 17.352L39.5938 17.4529C39.5813 17.4604 39.5712 17.4655 39.5587 17.4705C39.5461 17.4756 39.5361 17.4781 39.5235 17.4806C39.5461 17.4831 39.5712 17.4932 39.5938 17.5058L39.7747 17.6042Z" fill="#E22222"/>
<path d="M40.9798 17.6042L40.932 17.69L40.7562 17.5866C40.7437 17.579 40.7336 17.5714 40.7211 17.5639C40.711 17.5563 40.701 17.5462 40.6934 17.5361C40.7035 17.5613 40.7085 17.5865 40.7085 17.6143V17.8161H40.6105V17.6168C40.6105 17.6042 40.6105 17.5891 40.6131 17.579C40.6156 17.5664 40.6181 17.5538 40.6231 17.5437C40.6156 17.5538 40.608 17.5613 40.598 17.5689C40.5879 17.5765 40.5779 17.584 40.5653 17.5916L40.392 17.6925L40.3443 17.6067L40.5176 17.5058C40.5302 17.4983 40.5427 17.4932 40.5528 17.4882C40.5653 17.4831 40.5779 17.4806 40.5904 17.4806C40.5653 17.4781 40.5402 17.468 40.5176 17.4529L40.3418 17.3495L40.3895 17.2637L40.5653 17.3671C40.5779 17.3747 40.5879 17.3823 40.598 17.3898C40.608 17.3974 40.6156 17.4075 40.6231 17.4201C40.6181 17.4075 40.6131 17.3949 40.6105 17.3823C40.608 17.3696 40.608 17.3545 40.608 17.3419V17.1401H40.706V17.3394C40.706 17.352 40.706 17.3671 40.7035 17.3797C40.701 17.3923 40.6984 17.405 40.6934 17.4176C40.701 17.4075 40.7085 17.3974 40.7185 17.3898C40.7286 17.3823 40.7386 17.3747 40.7512 17.3671L40.9245 17.2662L40.9722 17.352L40.7989 17.4529C40.7864 17.4604 40.7763 17.4655 40.7638 17.4705C40.7512 17.4756 40.7411 17.4781 40.7286 17.4806C40.7512 17.4831 40.7763 17.4932 40.7989 17.5058L40.9798 17.6042Z" fill="#E22222"/>
<path d="M42.1878 17.6042L42.14 17.69L41.9642 17.5866C41.9517 17.579 41.9416 17.5714 41.9291 17.5639C41.919 17.5563 41.909 17.5462 41.9014 17.5361C41.9115 17.5613 41.9165 17.5865 41.9165 17.6143V17.8161H41.8186V17.6168C41.8186 17.6042 41.8186 17.5891 41.8211 17.579C41.8236 17.5664 41.8261 17.5538 41.8311 17.5437C41.8236 17.5538 41.816 17.5613 41.806 17.5689C41.7959 17.5765 41.7859 17.584 41.7733 17.5916L41.6 17.6925L41.5523 17.6067L41.7256 17.5058C41.7382 17.4983 41.7507 17.4932 41.7608 17.4882C41.7733 17.4831 41.7859 17.4806 41.7985 17.4806C41.7733 17.4781 41.7482 17.468 41.7256 17.4529L41.5498 17.3495L41.5975 17.2637L41.7733 17.3671C41.7859 17.3747 41.7959 17.3823 41.806 17.3898C41.816 17.3974 41.8236 17.4075 41.8311 17.4201C41.8261 17.4075 41.8211 17.3949 41.8186 17.3823C41.816 17.3696 41.816 17.3545 41.816 17.3419V17.1401H41.914V17.3394C41.914 17.352 41.914 17.3671 41.9115 17.3797C41.909 17.3923 41.9065 17.405 41.9014 17.4176C41.909 17.4075 41.9165 17.3974 41.9266 17.3898C41.9366 17.3823 41.9466 17.3747 41.9592 17.3671L42.1325 17.2662L42.1802 17.352L42.0069 17.4529C41.9944 17.4604 41.9843 17.4655 41.9718 17.4705C41.9592 17.4756 41.9492 17.4781 41.9366 17.4806C41.9592 17.4831 41.9843 17.4932 42.0069 17.5058L42.1878 17.6042Z" fill="#E22222"/>
<path d="M25.696 20.356H12.3467V21.327H25.696V20.356Z" fill="#E22222"/>
<path d="M23.4832 22.6384H12.3467V23.6094H23.4832V22.6384Z" fill="#E22222"/>
<path d="M23.5134 24.9236H12.3467V25.8946H23.5134V24.9236Z" fill="#E22222"/>
<path d="M26.6102 27.2061H12.3467V28.1771H26.6102V27.2061Z" fill="#E22222"/>
<path d="M25.0379 29.491H12.3467V30.462H25.0379V29.491Z" fill="#E22222"/>
<path d="M22.3078 31.7734H12.3467V32.7445H22.3078V31.7734Z" fill="#E22222"/>
<path d="M21.3157 34.0586H12.3467V35.0296H21.3157V34.0586Z" fill="#E22222"/>
<path d="M23.3677 36.3413H12.3467V37.3123H23.3677V36.3413Z" fill="#E22222"/>
<path d="M22.0642 38.6262H12.3467V39.5972H22.0642V38.6262Z" fill="#E22222"/>
<path d="M42.208 20.356H37.9307V21.327H42.208V20.356Z" fill="#E22222"/>
<path d="M42.208 22.6384H37.9307V23.6094H42.208V22.6384Z" fill="#E22222"/>
<path d="M42.208 24.9236H37.9307V25.8946H42.208V24.9236Z" fill="#E22222"/>
<path d="M42.208 27.2061H37.9307V28.1771H42.208V27.2061Z" fill="#E22222"/>
<path d="M42.208 29.4912H37.9307V30.4622H42.208V29.4912Z" fill="#E22222"/>
<path d="M42.208 31.7737H37.9307V32.7447H42.208V31.7737Z" fill="#E22222"/>
<path d="M42.208 34.0586H37.9307V35.0296H42.208V34.0586Z" fill="#E22222"/>
<path d="M42.208 36.3411H37.9307V37.3121H42.208V36.3411Z" fill="#E22222"/>
<path d="M42.208 38.6262H37.9307V39.5972H42.208V38.6262Z" fill="#E22222"/>
<path d="M12.6459 42.9795V43.1359H12.0557V42.9795H12.6459Z" fill="#E22222"/>
<path d="M13.3793 42.9795V43.1359H12.7891V42.9795H13.3793Z" fill="#E22222"/>
<path d="M14.1127 42.9795V43.1359H13.5225V42.9795H14.1127Z" fill="#E22222"/>
<path d="M14.8441 42.9795V43.1359H14.2539V42.9795H14.8441Z" fill="#E22222"/>
<path d="M15.5766 42.9795V43.1359H14.9863V42.9795H15.5766Z" fill="#E22222"/>
<path d="M16.3109 42.9795V43.1359H15.7207V42.9795H16.3109Z" fill="#E22222"/>
<path d="M17.0443 42.9795V43.1359H16.4541V42.9795H17.0443Z" fill="#E22222"/>
<path d="M17.7768 42.9795V43.1359H17.1865V42.9795H17.7768Z" fill="#E22222"/>
<path d="M18.5082 42.9795V43.1359H17.918V42.9795H18.5082Z" fill="#E22222"/>
<path d="M19.2416 42.9795V43.1359H18.6514V42.9795H19.2416Z" fill="#E22222"/>
<path d="M19.975 42.9795V43.1359H19.3848V42.9795H19.975Z" fill="#E22222"/>
<path d="M20.7084 42.9795V43.1359H20.1182V42.9795H20.7084Z" fill="#E22222"/>
<path d="M21.4418 42.9795V43.1359H20.8516V42.9795H21.4418Z" fill="#E22222"/>
<path d="M22.1742 42.9795V43.1359H21.584V42.9795H22.1742Z" fill="#E22222"/>
<path d="M22.9057 42.9795V43.1359H22.3154V42.9795H22.9057Z" fill="#E22222"/>
<path d="M23.64 42.9795V43.1359H23.0498V42.9795H23.64Z" fill="#E22222"/>
<path d="M24.3725 42.9795V43.1359H23.7822V42.9795H24.3725Z" fill="#E22222"/>
<path d="M25.1059 42.9795V43.1359H24.5156V42.9795H25.1059Z" fill="#E22222"/>
<path d="M25.8393 42.9795V43.1359H25.249V42.9795H25.8393Z" fill="#E22222"/>
<path d="M26.5727 42.9795V43.1359H25.9824V42.9795H26.5727Z" fill="#E22222"/>
<path d="M27.3041 42.9795V43.1359H26.7139V42.9795H27.3041Z" fill="#E22222"/>
<path d="M28.0375 42.9795V43.1359H27.4473V42.9795H28.0375Z" fill="#E22222"/>
<path d="M28.7709 42.9795V43.1359H28.1807V42.9795H28.7709Z" fill="#E22222"/>
<path d="M29.5043 42.9795V43.1359H28.9141V42.9795H29.5043Z" fill="#E22222"/>
<path d="M30.2377 42.9795V43.1359H29.6475V42.9795H30.2377Z" fill="#E22222"/>
<path d="M30.9701 42.9795V43.1359H30.3799V42.9795H30.9701Z" fill="#E22222"/>
<path d="M31.7035 42.9795V43.1359H31.1133V42.9795H31.7035Z" fill="#E22222"/>
<path d="M32.435 42.9795V43.1359H31.8447V42.9795H32.435Z" fill="#E22222"/>
<path d="M33.1684 42.9795V43.1359H32.5781V42.9795H33.1684Z" fill="#E22222"/>
<path d="M33.9018 42.9795V43.1359H33.3115V42.9795H33.9018Z" fill="#E22222"/>
<path d="M34.6352 42.9795V43.1359H34.0449V42.9795H34.6352Z" fill="#E22222"/>
<path d="M35.3686 42.9795V43.1359H34.7783V42.9795H35.3686Z" fill="#E22222"/>
<path d="M36.099 42.9795V43.1359H35.5088V42.9795H36.099Z" fill="#E22222"/>
<path d="M36.8334 42.9795V43.1359H36.2432V42.9795H36.8334Z" fill="#E22222"/>
<path d="M37.5668 42.9795V43.1359H36.9766V42.9795H37.5668Z" fill="#E22222"/>
<path d="M38.2992 42.9795V43.1359H37.709V42.9795H38.2992Z" fill="#E22222"/>
<path d="M39.0336 42.9795V43.1359H38.4434V42.9795H39.0336Z" fill="#E22222"/>
<path d="M39.766 42.9795V43.1359H39.1758V42.9795H39.766Z" fill="#E22222"/>
<path d="M40.4975 42.9795V43.1359H39.9072V42.9795H40.4975Z" fill="#E22222"/>
<path d="M41.2309 42.9795V43.1359H40.6406V42.9795H41.2309Z" fill="#E22222"/>
<path d="M41.9643 42.9795V43.1359H41.374V42.9795H41.9643Z" fill="#E22222"/>
<path d="M42.6977 42.9795V43.1359H42.1074V42.9795H42.6977Z" fill="#E22222"/>
</g>
</g>
<defs>
<filter id="filter0_d_1008_7126" x="-0.344727" y="0.090332" width="60.8672" height="64.4053" filterUnits="userSpaceOnUse" color-interpolation-filters="sRGB">
<feFlood flood-opacity="0" result="BackgroundImageFix"/>
<feColorMatrix in="SourceAlpha" type="matrix" values="0 0 0 0 0 0 0 0 0 0 0 0 0 0 0 0 0 0 127 0" result="hardAlpha"/>
<feOffset dx="3" dy="4"/>
<feGaussianBlur stdDeviation="2"/>
<feComposite in2="hardAlpha" operator="out"/>
<feColorMatrix type="matrix" values="0 0 0 0 0 0 0 0 0 0 0 0 0 0 0 0 0 0 0.25 0"/>
<feBlend mode="normal" in2="BackgroundImageFix" result="effect1_dropShadow_1008_7126"/>
<feBlend mode="normal" in="SourceGraphic" in2="effect1_dropShadow_1008_7126" result="shape"/>
</filter>
<linearGradient id="paint0_linear_1008_7126" x1="27.5872" y1="7.56214" x2="27.5872" y2="59.6166" gradientUnits="userSpaceOnUse">
<stop stop-color="#F6F7F7"/>
<stop offset="0.25" stop-color="white"/>
<stop offset="0.4322" stop-color="#F0F1F1"/>
<stop offset="0.6346" stop-color="#E4E5E6"/>
<stop offset="1" stop-color="white"/>
</linearGradient>
<linearGradient id="paint1_linear_1008_7126" x1="27.5872" y1="8.31874" x2="27.5872" y2="60.3732" gradientUnits="userSpaceOnUse">
<stop stop-color="#FAFBFB"/>
<stop offset="0.0368" stop-color="#FBFCFC"/>
<stop offset="0.25" stop-color="white"/>
<stop offset="0.521" stop-color="#F3F4F4"/>
<stop offset="0.6058" stop-color="#EEEFF0"/>
<stop offset="0.7894" stop-color="#F8F9F9"/>
<stop offset="1" stop-color="white"/>
</linearGradient>
<clipPath id="clip0_1008_7126">
<rect width="54" height="57" fill="white"/>
</clipPath>
</defs>
</svg>
