<svg width="54" height="57" viewBox="0 0 54 57" fill="none" xmlns="http://www.w3.org/2000/svg">
<g clip-path="url(#clip0_1008_6862)">
<g filter="url(#filter0_d_1008_6862)">
<path d="M53.5225 0.090332H0.655273V17.1878H53.5225V0.090332Z" fill="#FFFDED"/>
<path d="M51.3854 1.76294H2.79297V15.5161H51.3854V1.76294Z" fill="#D3BD9B"/>
<path d="M47.9843 6.64087H6.19336V10.6384H47.9843V6.64087Z" fill="#F0D286"/>
<path d="M47.1103 7.81104H7.06738V9.46807H47.1103V7.81104Z" fill="#998931"/>
<path d="M45.4126 38.4018L46.038 8.82739H27.58H9.13965L9.76504 38.4018C9.85546 42.6566 9.755 46.8232 9.46616 51.0704L9.13965 55.7389H27.58H46.038L45.7115 51.0704C45.4226 46.8257 45.3222 42.6566 45.4126 38.4018Z" fill="url(#paint0_linear_1008_6862)"/>
<path d="M45.4126 39.1587L46.038 9.58423H27.58H9.13965L9.76504 39.1587C9.85546 43.4135 9.755 47.58 9.46616 51.8273L9.13965 56.4957H27.58H46.038L45.7115 51.8273C45.4226 47.5826 45.3222 43.4135 45.4126 39.1587Z" fill="url(#paint1_linear_1008_6862)"/>
<path d="M13.1985 17.6043L13.1508 17.69L12.975 17.5867C12.9624 17.5791 12.9524 17.5716 12.9398 17.564C12.9298 17.5564 12.9197 17.5464 12.9122 17.5363C12.9222 17.5615 12.9272 17.5867 12.9272 17.6144V17.816H12.8293V17.6169C12.8293 17.6043 12.8293 17.5892 12.8318 17.5791C12.8343 17.5665 12.8368 17.5539 12.8419 17.5438C12.8343 17.5539 12.8268 17.5615 12.8167 17.569C12.8067 17.5766 12.7966 17.5842 12.7841 17.5917L12.6108 17.6925L12.5631 17.6068L12.7364 17.506C12.7489 17.4985 12.7615 17.4934 12.7715 17.4884C12.7841 17.4834 12.7966 17.4808 12.8092 17.4808C12.7841 17.4783 12.759 17.4682 12.7364 17.4531L12.5605 17.3498L12.6083 17.2641L12.7841 17.3674C12.7966 17.375 12.8067 17.3825 12.8167 17.3901C12.8268 17.3977 12.8343 17.4078 12.8419 17.4204C12.8368 17.4078 12.8318 17.3951 12.8293 17.3825C12.8268 17.3699 12.8268 17.3548 12.8268 17.3422V17.1406H12.9247V17.3397C12.9247 17.3523 12.9247 17.3674 12.9222 17.38C12.9197 17.3926 12.9172 17.4052 12.9122 17.4178C12.9197 17.4077 12.9272 17.3977 12.9373 17.3901C12.9473 17.3825 12.9574 17.375 12.9699 17.3674L13.1432 17.2666L13.191 17.3523L13.0177 17.4531C13.0051 17.4607 12.9951 17.4657 12.9825 17.4708C12.9699 17.4758 12.9599 17.4783 12.9473 17.4808C12.9699 17.4834 12.9951 17.4934 13.0177 17.506L13.1985 17.6043Z" fill="#D3BD9B"/>
<path d="M14.4069 17.6043L14.3592 17.69L14.1834 17.5867C14.1708 17.5791 14.1608 17.5716 14.1482 17.564C14.1382 17.5564 14.1281 17.5464 14.1206 17.5363C14.1306 17.5615 14.1357 17.5867 14.1357 17.6144V17.816H14.0402V17.6169C14.0402 17.6043 14.0402 17.5892 14.0427 17.5791C14.0453 17.5665 14.0478 17.5539 14.0528 17.5438C14.0453 17.5539 14.0377 17.5615 14.0277 17.569C14.0176 17.5766 14.0076 17.5842 13.995 17.5917L13.8217 17.6925L13.774 17.6068L13.9473 17.506C13.9599 17.4985 13.9724 17.4934 13.9825 17.4884C13.995 17.4834 14.0076 17.4808 14.0201 17.4808C13.995 17.4783 13.9699 17.4682 13.9473 17.4531L13.7715 17.3498L13.8192 17.2641L13.995 17.3674C14.0076 17.375 14.0176 17.3825 14.0277 17.3901C14.0377 17.3977 14.0453 17.4078 14.0528 17.4204C14.0478 17.4078 14.0427 17.3951 14.0402 17.3825C14.0377 17.3699 14.0377 17.3548 14.0377 17.3422V17.1406H14.1357V17.3397C14.1357 17.3523 14.1357 17.3674 14.1332 17.38C14.1306 17.3926 14.1281 17.4052 14.1231 17.4178C14.1306 17.4077 14.1382 17.3977 14.1482 17.3901C14.1583 17.3825 14.1683 17.375 14.1809 17.3674L14.3542 17.2666L14.4019 17.3523L14.2286 17.4531C14.216 17.4607 14.206 17.4657 14.1934 17.4708C14.1809 17.4758 14.1708 17.4783 14.1583 17.4808C14.1809 17.4834 14.206 17.4934 14.2286 17.506L14.4069 17.6043Z" fill="#D3BD9B"/>
<path d="M15.6155 17.6043L15.5678 17.69L15.392 17.5867C15.3794 17.5791 15.3694 17.5716 15.3568 17.564C15.3467 17.5564 15.3367 17.5464 15.3292 17.5363C15.3392 17.5615 15.3442 17.5867 15.3442 17.6144V17.816H15.2463V17.6169C15.2463 17.6043 15.2463 17.5892 15.2488 17.5791C15.2513 17.5665 15.2538 17.5539 15.2588 17.5438C15.2513 17.5539 15.2438 17.5615 15.2337 17.569C15.2237 17.5766 15.2136 17.5842 15.2011 17.5917L15.0278 17.6925L14.9801 17.6068L15.1534 17.506C15.1659 17.4985 15.1785 17.4934 15.1885 17.4884C15.2011 17.4834 15.2136 17.4808 15.2262 17.4808C15.2011 17.4783 15.176 17.4682 15.1534 17.4531L14.9775 17.3498L15.0253 17.2641L15.2011 17.3674C15.2136 17.375 15.2237 17.3825 15.2337 17.3901C15.2438 17.3977 15.2513 17.4078 15.2588 17.4204C15.2538 17.4078 15.2488 17.3951 15.2463 17.3825C15.2438 17.3699 15.2438 17.3548 15.2438 17.3422V17.1406H15.3417V17.3397C15.3417 17.3523 15.3417 17.3674 15.3392 17.38C15.3367 17.3926 15.3342 17.4052 15.3292 17.4178C15.3367 17.4077 15.3442 17.3977 15.3543 17.3901C15.3643 17.3825 15.3744 17.375 15.3869 17.3674L15.5602 17.2666L15.608 17.3523L15.4347 17.4531C15.4221 17.4607 15.4121 17.4657 15.3995 17.4708C15.3869 17.4758 15.3769 17.4783 15.3643 17.4808C15.3869 17.4834 15.4121 17.4934 15.4347 17.506L15.6155 17.6043Z" fill="#D3BD9B"/>
<path d="M16.8225 17.6043L16.7748 17.69L16.599 17.5867C16.5864 17.5791 16.5764 17.5716 16.5638 17.564C16.5538 17.5564 16.5437 17.5464 16.5362 17.5363C16.5462 17.5615 16.5513 17.5867 16.5513 17.6144V17.816H16.4533V17.6169C16.4533 17.6043 16.4533 17.5892 16.4558 17.5791C16.4583 17.5665 16.4608 17.5539 16.4659 17.5438C16.4583 17.5539 16.4508 17.5615 16.4408 17.569C16.4307 17.5766 16.4207 17.5842 16.4081 17.5917L16.2348 17.6925L16.1871 17.6068L16.3604 17.506C16.3729 17.4985 16.3855 17.4934 16.3955 17.4884C16.4081 17.4834 16.4207 17.4808 16.4332 17.4808C16.4081 17.4783 16.383 17.4682 16.3604 17.4531L16.1846 17.3498L16.2323 17.2641L16.4081 17.3674C16.4207 17.375 16.4307 17.3825 16.4408 17.3901C16.4508 17.3977 16.4583 17.4078 16.4659 17.4204C16.4608 17.4078 16.4558 17.3951 16.4533 17.3825C16.4508 17.3699 16.4508 17.3548 16.4508 17.3422V17.1406H16.5488V17.3397C16.5488 17.3523 16.5488 17.3674 16.5462 17.38C16.5437 17.3926 16.5412 17.4052 16.5362 17.4178C16.5437 17.4077 16.5513 17.3977 16.5613 17.3901C16.5714 17.3825 16.5814 17.375 16.594 17.3674L16.7673 17.2666L16.815 17.3523L16.6417 17.4531C16.6291 17.4607 16.6191 17.4657 16.6065 17.4708C16.594 17.4758 16.5839 17.4783 16.5714 17.4808C16.594 17.4834 16.6191 17.4934 16.6417 17.506L16.8225 17.6043Z" fill="#D3BD9B"/>
<path d="M18.0305 17.6043L17.9828 17.69L17.807 17.5867C17.7944 17.5791 17.7844 17.5716 17.7718 17.564C17.7618 17.5564 17.7517 17.5464 17.7442 17.5363C17.7543 17.5615 17.7593 17.5867 17.7593 17.6144V17.816H17.6613V17.6169C17.6613 17.6043 17.6613 17.5892 17.6638 17.5791C17.6663 17.5665 17.6689 17.5539 17.6739 17.5438C17.6663 17.5539 17.6588 17.5615 17.6488 17.569C17.6387 17.5766 17.6287 17.5842 17.6161 17.5917L17.4428 17.6925L17.3951 17.6068L17.5684 17.506C17.5809 17.4985 17.5935 17.4934 17.6036 17.4884C17.6161 17.4834 17.6287 17.4808 17.6412 17.4808C17.6161 17.4783 17.591 17.4682 17.5684 17.4531L17.3926 17.3498L17.4403 17.2641L17.6161 17.3674C17.6287 17.375 17.6387 17.3825 17.6488 17.3901C17.6588 17.3977 17.6663 17.4078 17.6739 17.4204C17.6689 17.4078 17.6638 17.3951 17.6613 17.3825C17.6588 17.3699 17.6588 17.3548 17.6588 17.3422V17.1406H17.7568V17.3397C17.7568 17.3523 17.7568 17.3674 17.7543 17.38C17.7517 17.3926 17.7492 17.4052 17.7442 17.4178C17.7517 17.4077 17.7593 17.3977 17.7693 17.3901C17.7794 17.3825 17.7894 17.375 17.802 17.3674L17.9753 17.2666L18.023 17.3523L17.8497 17.4531C17.8371 17.4607 17.8271 17.4657 17.8145 17.4708C17.802 17.4758 17.7919 17.4783 17.7794 17.4808C17.802 17.4834 17.8271 17.4934 17.8497 17.506L18.0305 17.6043Z" fill="#D3BD9B"/>
<path d="M19.2385 17.6043L19.1908 17.69L19.015 17.5867C19.0024 17.5791 18.9924 17.5716 18.9798 17.564C18.9698 17.5564 18.9597 17.5464 18.9522 17.5363C18.9623 17.5615 18.9673 17.5867 18.9673 17.6144V17.816H18.8693V17.6169C18.8693 17.6043 18.8693 17.5892 18.8718 17.5791C18.8744 17.5665 18.8769 17.5539 18.8819 17.5438C18.8744 17.5539 18.8668 17.5615 18.8568 17.569C18.8467 17.5766 18.8367 17.5842 18.8241 17.5917L18.6508 17.6925L18.6031 17.6068L18.7764 17.506C18.789 17.4985 18.8015 17.4934 18.8116 17.4884C18.8241 17.4834 18.8367 17.4808 18.8492 17.4808C18.8241 17.4783 18.799 17.4682 18.7764 17.4531L18.6006 17.3498L18.6483 17.2641L18.8241 17.3674C18.8367 17.375 18.8467 17.3825 18.8568 17.3901C18.8668 17.3977 18.8744 17.4078 18.8819 17.4204C18.8769 17.4078 18.8718 17.3951 18.8693 17.3825C18.8668 17.3699 18.8668 17.3548 18.8668 17.3422V17.1406H18.9648V17.3397C18.9648 17.3523 18.9648 17.3674 18.9623 17.38C18.9597 17.3926 18.9572 17.4052 18.9522 17.4178C18.9597 17.4077 18.9673 17.3977 18.9773 17.3901C18.9874 17.3825 18.9974 17.375 19.01 17.3674L19.1833 17.2666L19.231 17.3523L19.0577 17.4531C19.0451 17.4607 19.0351 17.4657 19.0225 17.4708C19.01 17.4758 18.9999 17.4783 18.9874 17.4808C19.01 17.4834 19.0351 17.4934 19.0577 17.506L19.2385 17.6043Z" fill="#D3BD9B"/>
<path d="M20.4465 17.6043L20.3988 17.69L20.223 17.5867C20.2105 17.5791 20.2004 17.5716 20.1878 17.564C20.1778 17.5564 20.1678 17.5464 20.1602 17.5363C20.1703 17.5615 20.1753 17.5867 20.1753 17.6144V17.816H20.0773V17.6169C20.0773 17.6043 20.0773 17.5892 20.0798 17.5791C20.0824 17.5665 20.0849 17.5539 20.0899 17.5438C20.0824 17.5539 20.0748 17.5615 20.0648 17.569C20.0547 17.5766 20.0447 17.5842 20.0321 17.5917L19.8588 17.6925L19.8111 17.6068L19.9844 17.506C19.997 17.4985 20.0095 17.4934 20.0196 17.4884C20.0321 17.4834 20.0447 17.4808 20.0572 17.4808C20.0321 17.4783 20.007 17.4682 19.9844 17.4531L19.8086 17.3498L19.8563 17.2641L20.0321 17.3674C20.0447 17.375 20.0547 17.3825 20.0648 17.3901C20.0748 17.3977 20.0824 17.4078 20.0899 17.4204C20.0849 17.4078 20.0798 17.3951 20.0773 17.3825C20.0748 17.3699 20.0748 17.3548 20.0748 17.3422V17.1406H20.1728V17.3397C20.1728 17.3523 20.1728 17.3674 20.1703 17.38C20.1678 17.3926 20.1652 17.4052 20.1602 17.4178C20.1678 17.4077 20.1753 17.3977 20.1853 17.3901C20.1954 17.3825 20.2054 17.375 20.218 17.3674L20.3913 17.2666L20.439 17.3523L20.2657 17.4531C20.2532 17.4607 20.2431 17.4657 20.2305 17.4708C20.218 17.4758 20.2079 17.4783 20.1954 17.4808C20.218 17.4834 20.2431 17.4934 20.2657 17.506L20.4465 17.6043Z" fill="#D3BD9B"/>
<path d="M21.6555 17.6043L21.6078 17.69L21.432 17.5867C21.4194 17.5791 21.4094 17.5716 21.3968 17.564C21.3868 17.5564 21.3767 17.5464 21.3692 17.5363C21.3793 17.5615 21.3843 17.5867 21.3843 17.6144V17.816H21.2863V17.6169C21.2863 17.6043 21.2863 17.5892 21.2888 17.5791C21.2913 17.5665 21.2939 17.5539 21.2989 17.5438C21.2913 17.5539 21.2838 17.5615 21.2738 17.569C21.2637 17.5766 21.2537 17.5842 21.2411 17.5917L21.0678 17.6925L21.0201 17.6068L21.1934 17.506C21.2059 17.4985 21.2185 17.4934 21.2286 17.4884C21.2411 17.4834 21.2537 17.4808 21.2662 17.4808C21.2411 17.4783 21.216 17.4682 21.1934 17.4531L21.0176 17.3498L21.0653 17.2641L21.2411 17.3674C21.2537 17.375 21.2637 17.3825 21.2738 17.3901C21.2838 17.3977 21.2913 17.4078 21.2989 17.4204C21.2939 17.4078 21.2888 17.3951 21.2863 17.3825C21.2838 17.3699 21.2838 17.3548 21.2838 17.3422V17.1406H21.3818V17.3397C21.3818 17.3523 21.3818 17.3674 21.3793 17.38C21.3767 17.3926 21.3742 17.4052 21.3692 17.4178C21.3767 17.4077 21.3843 17.3977 21.3943 17.3901C21.4044 17.3825 21.4144 17.375 21.427 17.3674L21.6003 17.2666L21.648 17.3523L21.4747 17.4531C21.4621 17.4607 21.4521 17.4657 21.4395 17.4708C21.427 17.4758 21.4169 17.4783 21.4044 17.4808C21.427 17.4834 21.4521 17.4934 21.4747 17.506L21.6555 17.6043Z" fill="#D3BD9B"/>
<path d="M22.8635 17.6042L22.8158 17.6898L22.64 17.5865C22.6274 17.579 22.6174 17.5714 22.6048 17.5638C22.5948 17.5563 22.5847 17.5462 22.5772 17.5361C22.5873 17.5613 22.5923 17.5865 22.5923 17.6142V17.8158H22.4943V17.6167C22.4943 17.6041 22.4943 17.589 22.4968 17.5789C22.4994 17.5663 22.5019 17.5537 22.5069 17.5437C22.4994 17.5537 22.4918 17.5613 22.4818 17.5689C22.4717 17.5764 22.4617 17.584 22.4491 17.5915L22.2758 17.6924L22.2281 17.6042L22.4014 17.5033C22.414 17.4958 22.4265 17.4907 22.4366 17.4857C22.4491 17.4807 22.4617 17.4781 22.4742 17.4781C22.4491 17.4756 22.424 17.4655 22.4014 17.4504L22.2256 17.3471L22.2733 17.2614L22.4491 17.3647C22.4617 17.3723 22.4717 17.3799 22.4818 17.3874C22.4918 17.395 22.4994 17.4051 22.5069 17.4177C22.5019 17.4051 22.4968 17.3925 22.4943 17.3799C22.4918 17.3673 22.4918 17.3521 22.4918 17.3395V17.1379H22.5898V17.337C22.5898 17.3496 22.5898 17.3647 22.5873 17.3773C22.5847 17.3899 22.5822 17.4025 22.5772 17.4151C22.5847 17.4051 22.5923 17.395 22.6023 17.3874C22.6124 17.3799 22.6224 17.3723 22.635 17.3647L22.8083 17.2639L22.856 17.3496L22.6827 17.4504C22.6701 17.458 22.6601 17.463 22.6475 17.4681C22.635 17.4731 22.6249 17.4756 22.6124 17.4781C22.635 17.4807 22.6601 17.4907 22.6827 17.5033L22.8635 17.6042Z" fill="#D3BD9B"/>
<path d="M24.0706 17.6043L24.0229 17.69L23.847 17.5867C23.8345 17.5791 23.8244 17.5716 23.8119 17.564C23.8018 17.5564 23.7918 17.5464 23.7842 17.5363C23.7943 17.5615 23.7993 17.5867 23.7993 17.6144V17.816H23.7014V17.6169C23.7014 17.6043 23.7014 17.5892 23.7039 17.5791C23.7064 17.5665 23.7089 17.5539 23.7139 17.5438C23.7064 17.5539 23.6988 17.5615 23.6888 17.569C23.6788 17.5766 23.6687 17.5842 23.6562 17.5917L23.4828 17.6925L23.4351 17.6068L23.6084 17.506C23.621 17.4985 23.6335 17.4934 23.6436 17.4884C23.6562 17.4834 23.6687 17.4808 23.6813 17.4808C23.6562 17.4783 23.631 17.4682 23.6084 17.4531L23.4326 17.3498L23.4803 17.2641L23.6562 17.3674C23.6687 17.375 23.6788 17.3825 23.6888 17.3901C23.6988 17.3977 23.7064 17.4078 23.7139 17.4204C23.7089 17.4078 23.7039 17.3951 23.7014 17.3825C23.6989 17.3699 23.6988 17.3548 23.6988 17.3422V17.1406H23.7968V17.3397C23.7968 17.3523 23.7968 17.3674 23.7943 17.38C23.7918 17.3926 23.7893 17.4052 23.7842 17.4178C23.7918 17.4077 23.7993 17.3977 23.8094 17.3901C23.8194 17.3825 23.8295 17.375 23.842 17.3674L24.0153 17.2666L24.063 17.3523L23.8897 17.4531C23.8772 17.4607 23.8671 17.4657 23.8546 17.4708C23.842 17.4758 23.832 17.4783 23.8194 17.4808C23.842 17.4834 23.8671 17.4934 23.8897 17.506L24.0706 17.6043Z" fill="#D3BD9B"/>
<path d="M25.2766 17.6043L25.2289 17.69L25.0531 17.5867C25.0405 17.5791 25.0305 17.5716 25.0179 17.564C25.0079 17.5564 24.9978 17.5464 24.9903 17.5363C25.0003 17.5615 25.0054 17.5867 25.0054 17.6144V17.816H24.9074V17.6169C24.9074 17.6043 24.9074 17.5892 24.9099 17.5791C24.9124 17.5665 24.915 17.5539 24.92 17.5438C24.9124 17.5539 24.9049 17.5615 24.8949 17.569C24.8848 17.5766 24.8748 17.5842 24.8622 17.5917L24.6889 17.6925L24.6412 17.6068L24.8145 17.506C24.827 17.4985 24.8396 17.4934 24.8496 17.4884C24.8622 17.4834 24.8748 17.4808 24.8873 17.4808C24.8622 17.4783 24.8371 17.4682 24.8145 17.4531L24.6387 17.3498L24.6864 17.2641L24.8622 17.3674C24.8748 17.375 24.8848 17.3825 24.8949 17.3901C24.9049 17.3977 24.9124 17.4078 24.92 17.4204C24.915 17.4078 24.9099 17.3951 24.9074 17.3825C24.9049 17.3699 24.9049 17.3548 24.9049 17.3422V17.1406H25.0029V17.3397C25.0029 17.3523 25.0029 17.3674 25.0003 17.38C24.9978 17.3926 24.9953 17.4052 24.9903 17.4178C24.9978 17.4077 25.0054 17.3977 25.0154 17.3901C25.0255 17.3825 25.0355 17.375 25.0481 17.3674L25.2214 17.2666L25.2691 17.3523L25.0958 17.4531C25.0832 17.4607 25.0732 17.4657 25.0606 17.4708C25.0481 17.4758 25.038 17.4783 25.0255 17.4808C25.0481 17.4834 25.0732 17.4934 25.0958 17.506L25.2766 17.6043Z" fill="#D3BD9B"/>
<path d="M26.4846 17.6043L26.4369 17.69L26.2611 17.5867C26.2485 17.5791 26.2385 17.5716 26.2259 17.564C26.2159 17.5564 26.2058 17.5464 26.1983 17.5363C26.2084 17.5615 26.2134 17.5867 26.2134 17.6144V17.816H26.1154V17.6169C26.1154 17.6043 26.1154 17.5892 26.1179 17.5791C26.1204 17.5665 26.123 17.5539 26.128 17.5438C26.1204 17.5539 26.1129 17.5615 26.1029 17.569C26.0928 17.5766 26.0828 17.5842 26.0702 17.5917L25.8969 17.6925L25.8492 17.6068L26.0225 17.506C26.0351 17.4985 26.0476 17.4934 26.0577 17.4884C26.0702 17.4834 26.0828 17.4808 26.0953 17.4808C26.0702 17.4783 26.0451 17.4682 26.0225 17.4531L25.8467 17.3498L25.8944 17.2641L26.0702 17.3674C26.0828 17.375 26.0928 17.3825 26.1029 17.3901C26.1129 17.3977 26.1204 17.4078 26.128 17.4204C26.123 17.4078 26.1179 17.3951 26.1154 17.3825C26.1129 17.3699 26.1129 17.3548 26.1129 17.3422V17.1406H26.2109V17.3397C26.2109 17.3523 26.2109 17.3674 26.2084 17.38C26.2058 17.3926 26.2033 17.4052 26.1983 17.4178C26.2058 17.4077 26.2134 17.3977 26.2234 17.3901C26.2335 17.3825 26.2435 17.375 26.2561 17.3674L26.4294 17.2666L26.4771 17.3523L26.3038 17.4531C26.2912 17.4607 26.2812 17.4657 26.2686 17.4708C26.2561 17.4758 26.246 17.4783 26.2335 17.4808C26.2561 17.4834 26.2812 17.4934 26.3038 17.506L26.4846 17.6043Z" fill="#D3BD9B"/>
<path d="M27.6936 17.6043L27.6459 17.69L27.4701 17.5867C27.4575 17.5791 27.4475 17.5716 27.4349 17.564C27.4249 17.5564 27.4148 17.5464 27.4073 17.5363C27.4173 17.5615 27.4224 17.5867 27.4224 17.6144V17.816H27.3244V17.6169C27.3244 17.6043 27.3244 17.5892 27.3269 17.5791C27.3294 17.5665 27.3319 17.5539 27.337 17.5438C27.3294 17.5539 27.3219 17.5615 27.3119 17.569C27.3018 17.5766 27.2918 17.5842 27.2792 17.5917L27.1059 17.6925L27.0582 17.6068L27.2315 17.506C27.244 17.4985 27.2566 17.4934 27.2666 17.4884C27.2792 17.4834 27.2918 17.4808 27.3043 17.4808C27.2792 17.4783 27.2541 17.4682 27.2315 17.4531L27.0557 17.3498L27.1034 17.2641L27.2792 17.3674C27.2918 17.375 27.3018 17.3825 27.3119 17.3901C27.3219 17.3977 27.3294 17.4078 27.337 17.4204C27.3319 17.4078 27.3269 17.3951 27.3244 17.3825C27.3219 17.3699 27.3219 17.3548 27.3219 17.3422V17.1406H27.4199V17.3397C27.4199 17.3523 27.4199 17.3674 27.4173 17.38C27.4148 17.3926 27.4123 17.4052 27.4073 17.4178C27.4148 17.4077 27.4224 17.3977 27.4324 17.3901C27.4425 17.3825 27.4525 17.375 27.4651 17.3674L27.6384 17.2666L27.6861 17.3523L27.5128 17.4531C27.5002 17.4607 27.4902 17.4657 27.4776 17.4708C27.4651 17.4758 27.455 17.4783 27.4425 17.4808C27.4651 17.4834 27.4902 17.4934 27.5128 17.506L27.6936 17.6043Z" fill="#D3BD9B"/>
<path d="M28.9016 17.6043L28.8539 17.69L28.6781 17.5867C28.6655 17.5791 28.6555 17.5716 28.6429 17.564C28.6329 17.5564 28.6228 17.5464 28.6153 17.5363C28.6253 17.5615 28.6304 17.5867 28.6304 17.6144V17.816H28.5324V17.6169C28.5324 17.6043 28.5324 17.5892 28.5349 17.5791C28.5374 17.5665 28.54 17.5539 28.545 17.5438C28.5374 17.5539 28.5299 17.5615 28.5199 17.569C28.5098 17.5766 28.4998 17.5842 28.4872 17.5917L28.3139 17.6925L28.2662 17.6068L28.4395 17.506C28.452 17.4985 28.4646 17.4934 28.4746 17.4884C28.4872 17.4834 28.4998 17.4808 28.5123 17.4808C28.4872 17.4783 28.4621 17.4682 28.4395 17.4531L28.2637 17.3498L28.3114 17.2641L28.4872 17.3674C28.4998 17.375 28.5098 17.3825 28.5199 17.3901C28.5299 17.3977 28.5374 17.4078 28.545 17.4204C28.54 17.4078 28.5349 17.3951 28.5324 17.3825C28.5299 17.3699 28.5299 17.3548 28.5299 17.3422V17.1406H28.6329V17.3397C28.6329 17.3523 28.6329 17.3674 28.6304 17.38C28.6279 17.3926 28.6253 17.4052 28.6203 17.4178C28.6279 17.4077 28.6354 17.3977 28.6454 17.3901C28.6555 17.3825 28.6655 17.375 28.6781 17.3674L28.8514 17.2666L28.8991 17.3523L28.7258 17.4531C28.7133 17.4607 28.7032 17.4657 28.6906 17.4708C28.6781 17.4758 28.668 17.4783 28.6555 17.4808C28.6781 17.4834 28.7032 17.4934 28.7258 17.506L28.9016 17.6043Z" fill="#D3BD9B"/>
<path d="M30.1096 17.6043L30.0619 17.69L29.8861 17.5867C29.8735 17.5791 29.8635 17.5716 29.8509 17.564C29.8409 17.5564 29.8308 17.5464 29.8233 17.5363C29.8334 17.5615 29.8384 17.5867 29.8384 17.6144V17.816H29.7404V17.6169C29.7404 17.6043 29.7404 17.5892 29.7429 17.5791C29.7454 17.5665 29.748 17.5539 29.753 17.5438C29.7454 17.5539 29.7379 17.5615 29.7279 17.569C29.7178 17.5766 29.7078 17.5842 29.6952 17.5917L29.5219 17.6925L29.4742 17.6068L29.6475 17.506C29.6601 17.4985 29.6726 17.4934 29.6827 17.4884C29.6952 17.4834 29.7078 17.4808 29.7203 17.4808C29.6952 17.4783 29.6701 17.4682 29.6475 17.4531L29.4717 17.3498L29.5194 17.2641L29.6952 17.3674C29.7078 17.375 29.7178 17.3825 29.7279 17.3901C29.7379 17.3977 29.7454 17.4078 29.753 17.4204C29.748 17.4078 29.7429 17.3951 29.7404 17.3825C29.7379 17.3699 29.7379 17.3548 29.7379 17.3422V17.1406H29.8359V17.3397C29.8359 17.3523 29.8359 17.3674 29.8334 17.38C29.8308 17.3926 29.8283 17.4052 29.8233 17.4178C29.8308 17.4077 29.8384 17.3977 29.8484 17.3901C29.8585 17.3825 29.8685 17.375 29.8811 17.3674L30.0544 17.2666L30.1021 17.3523L29.9288 17.4531C29.9162 17.4607 29.9062 17.4657 29.8936 17.4708C29.8811 17.4758 29.871 17.4783 29.8585 17.4808C29.8811 17.4834 29.9062 17.4934 29.9288 17.506L30.1096 17.6043Z" fill="#D3BD9B"/>
<path d="M31.3167 17.6043L31.2689 17.69L31.0931 17.5867C31.0806 17.5791 31.0705 17.5716 31.058 17.564C31.0479 17.5564 31.0379 17.5464 31.0303 17.5363C31.0404 17.5615 31.0454 17.5867 31.0454 17.6144V17.816H30.9475V17.6169C30.9475 17.6043 30.9475 17.5892 30.95 17.5791C30.9525 17.5665 30.955 17.5539 30.96 17.5438C30.9525 17.5539 30.9449 17.5615 30.9349 17.569C30.9248 17.5766 30.9148 17.5842 30.9022 17.5917L30.7289 17.6925L30.6812 17.6068L30.8545 17.506C30.8671 17.4985 30.8796 17.4934 30.8897 17.4884C30.9022 17.4834 30.9148 17.4808 30.9274 17.4808C30.9022 17.4783 30.8771 17.4682 30.8545 17.4531L30.6787 17.3498L30.7264 17.2641L30.9022 17.3674C30.9148 17.375 30.9248 17.3825 30.9349 17.3901C30.9449 17.3977 30.9525 17.4078 30.96 17.4204C30.955 17.4078 30.95 17.3951 30.9475 17.3825C30.9449 17.3699 30.9449 17.3548 30.9449 17.3422V17.1406H31.0429V17.3397C31.0429 17.3523 31.0429 17.3674 31.0404 17.38C31.0379 17.3926 31.0354 17.4052 31.0303 17.4178C31.0379 17.4077 31.0454 17.3977 31.0555 17.3901C31.0655 17.3825 31.0755 17.375 31.0881 17.3674L31.2614 17.2666L31.3091 17.3523L31.1358 17.4531C31.1233 17.4607 31.1132 17.4657 31.1007 17.4708C31.0881 17.4758 31.0781 17.4783 31.0655 17.4808C31.0881 17.4834 31.1132 17.4934 31.1358 17.506L31.3167 17.6043Z" fill="#D3BD9B"/>
<path d="M32.5247 17.6043L32.477 17.69L32.3011 17.5867C32.2886 17.5791 32.2785 17.5716 32.266 17.564C32.2559 17.5564 32.2459 17.5464 32.2383 17.5363C32.2484 17.5615 32.2534 17.5867 32.2534 17.6144V17.816H32.1555V17.6169C32.1555 17.6043 32.1555 17.5892 32.158 17.5791C32.1605 17.5665 32.163 17.5539 32.168 17.5438C32.1605 17.5539 32.153 17.5615 32.1429 17.569C32.1329 17.5766 32.1228 17.5842 32.1103 17.5917L31.937 17.6925L31.8892 17.6068L32.0625 17.506C32.0751 17.4985 32.0877 17.4934 32.0977 17.4884C32.1103 17.4834 32.1228 17.4808 32.1354 17.4808C32.1103 17.4783 32.0851 17.4682 32.0625 17.4531L31.8867 17.3498L31.9344 17.2641L32.1103 17.3674C32.1228 17.375 32.1329 17.3825 32.1429 17.3901C32.153 17.3977 32.1605 17.4078 32.168 17.4204C32.163 17.4078 32.158 17.3951 32.1555 17.3825C32.153 17.3699 32.153 17.3548 32.153 17.3422V17.1406H32.2509V17.3397C32.2509 17.3523 32.2509 17.3674 32.2484 17.38C32.2459 17.3926 32.2434 17.4052 32.2383 17.4178C32.2459 17.4077 32.2534 17.3977 32.2635 17.3901C32.2735 17.3825 32.2836 17.375 32.2961 17.3674L32.4694 17.2666L32.5171 17.3523L32.3438 17.4531C32.3313 17.4607 32.3212 17.4657 32.3087 17.4708C32.2961 17.4758 32.2861 17.4783 32.2735 17.4808C32.2961 17.4834 32.3212 17.4934 32.3438 17.506L32.5247 17.6043Z" fill="#D3BD9B"/>
<path d="M33.7337 17.6043L33.6859 17.69L33.5101 17.5867C33.4976 17.5791 33.4875 17.5716 33.475 17.564C33.4649 17.5564 33.4549 17.5464 33.4473 17.5363C33.4574 17.5615 33.4624 17.5867 33.4624 17.6144V17.816H33.3644V17.6169C33.3644 17.6043 33.3644 17.5892 33.367 17.5791C33.3695 17.5665 33.372 17.5539 33.377 17.5438C33.3695 17.5539 33.3619 17.5615 33.3519 17.569C33.3418 17.5766 33.3318 17.5842 33.3192 17.5917L33.1459 17.6925L33.0982 17.6068L33.2715 17.506C33.2841 17.4985 33.2966 17.4934 33.3067 17.4884C33.3192 17.4834 33.3318 17.4808 33.3444 17.4808C33.3192 17.4783 33.2941 17.4682 33.2715 17.4531L33.0957 17.3498L33.1434 17.2641L33.3192 17.3674C33.3318 17.375 33.3418 17.3825 33.3519 17.3901C33.3619 17.3977 33.3695 17.4078 33.377 17.4204C33.372 17.4078 33.367 17.3951 33.3644 17.3825C33.3619 17.3699 33.3619 17.3548 33.3619 17.3422V17.1406H33.4599V17.3397C33.4599 17.3523 33.4599 17.3674 33.4574 17.38C33.4549 17.3926 33.4524 17.4052 33.4473 17.4178C33.4549 17.4077 33.4624 17.3977 33.4724 17.3901C33.4825 17.3825 33.4925 17.375 33.5051 17.3674L33.6784 17.2666L33.7261 17.3523L33.5528 17.4531C33.5403 17.4607 33.5302 17.4657 33.5177 17.4708C33.5051 17.4758 33.495 17.4783 33.4825 17.4808C33.5051 17.4834 33.5302 17.4934 33.5528 17.506L33.7337 17.6043Z" fill="#D3BD9B"/>
<path d="M34.9417 17.6043L34.8939 17.69L34.7181 17.5867C34.7056 17.5791 34.6955 17.5716 34.683 17.564C34.6729 17.5564 34.6629 17.5464 34.6553 17.5363C34.6654 17.5615 34.6704 17.5867 34.6704 17.6144V17.816H34.5725V17.6169C34.5725 17.6043 34.5725 17.5892 34.575 17.5791C34.5775 17.5665 34.58 17.5539 34.585 17.5438C34.5775 17.5539 34.5699 17.5615 34.5599 17.569C34.5499 17.5766 34.5398 17.5842 34.5272 17.5917L34.3539 17.6925L34.3062 17.6068L34.4795 17.506C34.4921 17.4985 34.5046 17.4934 34.5147 17.4884C34.5272 17.4834 34.5398 17.4808 34.5524 17.4808C34.5272 17.4783 34.5021 17.4682 34.4795 17.4531L34.3037 17.3498L34.3514 17.2641L34.5272 17.3674C34.5398 17.375 34.5499 17.3825 34.5599 17.3901C34.5699 17.3977 34.5775 17.4078 34.585 17.4204C34.58 17.4078 34.575 17.3951 34.5725 17.3825C34.5699 17.3699 34.5699 17.3548 34.5699 17.3422V17.1406H34.6679V17.3397C34.6679 17.3523 34.6679 17.3674 34.6654 17.38C34.6629 17.3926 34.6604 17.4052 34.6553 17.4178C34.6629 17.4077 34.6704 17.3977 34.6805 17.3901C34.6905 17.3825 34.7005 17.375 34.7131 17.3674L34.8864 17.2666L34.9341 17.3523L34.7608 17.4531C34.7483 17.4607 34.7382 17.4657 34.7257 17.4708C34.7131 17.4758 34.7031 17.4783 34.6905 17.4808C34.7131 17.4834 34.7382 17.4934 34.7608 17.506L34.9417 17.6043Z" fill="#D3BD9B"/>
<path d="M36.1506 17.6043L36.1029 17.69L35.9271 17.5867C35.9146 17.5791 35.9045 17.5716 35.8919 17.564C35.8819 17.5564 35.8719 17.5464 35.8643 17.5363C35.8744 17.5615 35.8794 17.5867 35.8794 17.6144V17.816H35.7814V17.6169C35.7814 17.6043 35.7814 17.5892 35.784 17.5791C35.7865 17.5665 35.789 17.5539 35.794 17.5438C35.7865 17.5539 35.7789 17.5615 35.7689 17.569C35.7588 17.5766 35.7488 17.5842 35.7362 17.5917L35.5629 17.6925L35.5152 17.6068L35.6885 17.506C35.7011 17.4985 35.7136 17.4934 35.7237 17.4884C35.7362 17.4834 35.7488 17.4808 35.7613 17.4808C35.7362 17.4783 35.7111 17.4682 35.6885 17.4531L35.5127 17.3498L35.5604 17.2641L35.7362 17.3674C35.7488 17.375 35.7588 17.3825 35.7689 17.3901C35.7789 17.3977 35.7865 17.4078 35.794 17.4204C35.789 17.4078 35.784 17.3951 35.7814 17.3825C35.7789 17.3699 35.7789 17.3548 35.7789 17.3422V17.1406H35.8769V17.3397C35.8769 17.3523 35.8769 17.3674 35.8744 17.38C35.8719 17.3926 35.8693 17.4052 35.8643 17.4178C35.8719 17.4077 35.8794 17.3977 35.8894 17.3901C35.8995 17.3825 35.9095 17.375 35.9221 17.3674L36.0954 17.2666L36.1431 17.3523L35.9698 17.4531C35.9573 17.4607 35.9472 17.4657 35.9347 17.4708C35.9221 17.4758 35.912 17.4783 35.8995 17.4808C35.9221 17.4834 35.9472 17.4934 35.9698 17.506L36.1506 17.6043Z" fill="#D3BD9B"/>
<path d="M37.3587 17.6043L37.3109 17.69L37.1351 17.5867C37.1226 17.5791 37.1125 17.5716 37.1 17.564C37.0899 17.5564 37.0799 17.5464 37.0723 17.5363C37.0824 17.5615 37.0874 17.5867 37.0874 17.6144V17.816H36.9894V17.6169C36.9894 17.6043 36.9894 17.5892 36.992 17.5791C36.9945 17.5665 36.997 17.5539 37.002 17.5438C36.9945 17.5539 36.9869 17.5615 36.9769 17.569C36.9668 17.5766 36.9568 17.5842 36.9442 17.5917L36.7709 17.6925L36.7232 17.6068L36.8965 17.506C36.9091 17.4985 36.9216 17.4934 36.9317 17.4884C36.9442 17.4834 36.9568 17.4808 36.9694 17.4808C36.9442 17.4783 36.9191 17.4682 36.8965 17.4531L36.7207 17.3498L36.7684 17.2641L36.9442 17.3674C36.9568 17.375 36.9668 17.3825 36.9769 17.3901C36.9869 17.3977 36.9945 17.4078 37.002 17.4204C36.997 17.4078 36.992 17.3951 36.9894 17.3825C36.9869 17.3699 36.9869 17.3548 36.9869 17.3422V17.1406H37.0849V17.3397C37.0849 17.3523 37.0849 17.3674 37.0824 17.38C37.0799 17.3926 37.0774 17.4052 37.0723 17.4178C37.0799 17.4077 37.0874 17.3977 37.0974 17.3901C37.1075 17.3825 37.1175 17.375 37.1301 17.3674L37.3034 17.2666L37.3511 17.3523L37.1778 17.4531C37.1653 17.4607 37.1552 17.4657 37.1427 17.4708C37.1301 17.4758 37.1201 17.4783 37.1075 17.4808C37.1301 17.4834 37.1552 17.4934 37.1778 17.506L37.3587 17.6043Z" fill="#D3BD9B"/>
<path d="M38.5657 17.6043L38.518 17.69L38.3422 17.5867C38.3296 17.5791 38.3196 17.5716 38.307 17.564C38.2969 17.5564 38.2869 17.5464 38.2794 17.5363C38.2894 17.5615 38.2944 17.5867 38.2944 17.6144V17.816H38.1965V17.6169C38.1965 17.6043 38.1965 17.5892 38.199 17.5791C38.2015 17.5665 38.204 17.5539 38.209 17.5438C38.2015 17.5539 38.194 17.5615 38.1839 17.569C38.1739 17.5766 38.1638 17.5842 38.1513 17.5917L37.978 17.6925L37.9302 17.6068L38.1036 17.506C38.1161 17.4985 38.1287 17.4934 38.1387 17.4884C38.1513 17.4834 38.1638 17.4808 38.1764 17.4808C38.1513 17.4783 38.1262 17.4682 38.1036 17.4531L37.9277 17.3498L37.9755 17.2641L38.1513 17.3674C38.1638 17.375 38.1739 17.3825 38.1839 17.3901C38.194 17.3977 38.2015 17.4078 38.209 17.4204C38.204 17.4078 38.199 17.3951 38.1965 17.3825C38.194 17.3699 38.194 17.3548 38.194 17.3422V17.1406H38.2919V17.3397C38.2919 17.3523 38.2919 17.3674 38.2894 17.38C38.2869 17.3926 38.2844 17.4052 38.2794 17.4178C38.2869 17.4077 38.2944 17.3977 38.3045 17.3901C38.3145 17.3825 38.3246 17.375 38.3371 17.3674L38.5104 17.2666L38.5582 17.3523L38.3849 17.4531C38.3723 17.4607 38.3622 17.4657 38.3497 17.4708C38.3371 17.4758 38.3271 17.4783 38.3145 17.4808C38.3371 17.4834 38.3622 17.4934 38.3849 17.506L38.5657 17.6043Z" fill="#D3BD9B"/>
<path d="M39.7737 17.6043L39.726 17.69L39.5502 17.5867C39.5376 17.5791 39.5276 17.5716 39.515 17.564C39.5049 17.5564 39.4949 17.5464 39.4874 17.5363C39.4974 17.5615 39.5024 17.5867 39.5024 17.6144V17.816H39.4045V17.6169C39.4045 17.6043 39.4045 17.5892 39.407 17.5791C39.4095 17.5665 39.412 17.5539 39.417 17.5438C39.4095 17.5539 39.402 17.5615 39.3919 17.569C39.3819 17.5766 39.3718 17.5842 39.3593 17.5917L39.186 17.6925L39.1383 17.6068L39.3116 17.506C39.3241 17.4985 39.3367 17.4934 39.3467 17.4884C39.3593 17.4834 39.3718 17.4808 39.3844 17.4808C39.3593 17.4783 39.3342 17.4682 39.3116 17.4531L39.1357 17.3498L39.1835 17.2641L39.3593 17.3674C39.3718 17.375 39.3819 17.3825 39.3919 17.3901C39.402 17.3977 39.4095 17.4078 39.417 17.4204C39.412 17.4078 39.407 17.3951 39.4045 17.3825C39.402 17.3699 39.402 17.3548 39.402 17.3422V17.1406H39.4999V17.3397C39.4999 17.3523 39.4999 17.3674 39.4974 17.38C39.4949 17.3926 39.4924 17.4052 39.4874 17.4178C39.4949 17.4077 39.5024 17.3977 39.5125 17.3901C39.5225 17.3825 39.5326 17.375 39.5451 17.3674L39.7184 17.2666L39.7662 17.3523L39.5929 17.4531C39.5803 17.4607 39.5703 17.4657 39.5577 17.4708C39.5451 17.4758 39.5351 17.4783 39.5225 17.4808C39.5451 17.4834 39.5703 17.4934 39.5929 17.506L39.7737 17.6043Z" fill="#D3BD9B"/>
<path d="M40.9798 17.6043L40.932 17.69L40.7562 17.5867C40.7437 17.5791 40.7336 17.5716 40.7211 17.564C40.711 17.5564 40.701 17.5464 40.6934 17.5363C40.7035 17.5615 40.7085 17.5867 40.7085 17.6144V17.816H40.6105V17.6169C40.6105 17.6043 40.6105 17.5892 40.6131 17.5791C40.6156 17.5665 40.6181 17.5539 40.6231 17.5438C40.6156 17.5539 40.608 17.5615 40.598 17.569C40.5879 17.5766 40.5779 17.5842 40.5653 17.5917L40.392 17.6925L40.3443 17.6068L40.5176 17.506C40.5302 17.4985 40.5427 17.4934 40.5528 17.4884C40.5653 17.4834 40.5779 17.4808 40.5904 17.4808C40.5653 17.4783 40.5402 17.4682 40.5176 17.4531L40.3418 17.3498L40.3895 17.2641L40.5653 17.3674C40.5779 17.375 40.5879 17.3825 40.598 17.3901C40.608 17.3977 40.6156 17.4078 40.6231 17.4204C40.6181 17.4078 40.6131 17.3951 40.6105 17.3825C40.608 17.3699 40.608 17.3548 40.608 17.3422V17.1406H40.706V17.3397C40.706 17.3523 40.706 17.3674 40.7035 17.38C40.701 17.3926 40.6984 17.4052 40.6934 17.4178C40.701 17.4077 40.7085 17.3977 40.7185 17.3901C40.7286 17.3825 40.7386 17.375 40.7512 17.3674L40.9245 17.2666L40.9722 17.3523L40.7989 17.4531C40.7864 17.4607 40.7763 17.4657 40.7638 17.4708C40.7512 17.4758 40.7411 17.4783 40.7286 17.4808C40.7512 17.4834 40.7763 17.4934 40.7989 17.506L40.9798 17.6043Z" fill="#D3BD9B"/>
<path d="M42.1878 17.6043L42.14 17.69L41.9642 17.5867C41.9517 17.5791 41.9416 17.5716 41.9291 17.564C41.919 17.5564 41.909 17.5464 41.9014 17.5363C41.9115 17.5615 41.9165 17.5867 41.9165 17.6144V17.816H41.8186V17.6169C41.8186 17.6043 41.8186 17.5892 41.8211 17.5791C41.8236 17.5665 41.8261 17.5539 41.8311 17.5438C41.8236 17.5539 41.816 17.5615 41.806 17.569C41.7959 17.5766 41.7859 17.5842 41.7733 17.5917L41.6 17.6925L41.5523 17.6068L41.7256 17.506C41.7382 17.4985 41.7507 17.4934 41.7608 17.4884C41.7733 17.4834 41.7859 17.4808 41.7985 17.4808C41.7733 17.4783 41.7482 17.4682 41.7256 17.4531L41.5498 17.3498L41.5975 17.2641L41.7733 17.3674C41.7859 17.375 41.7959 17.3825 41.806 17.3901C41.816 17.3977 41.8236 17.4078 41.8311 17.4204C41.8261 17.4078 41.8211 17.3951 41.8186 17.3825C41.816 17.3699 41.816 17.3548 41.816 17.3422V17.1406H41.914V17.3397C41.914 17.3523 41.914 17.3674 41.9115 17.38C41.909 17.3926 41.9065 17.4052 41.9014 17.4178C41.909 17.4077 41.9165 17.3977 41.9266 17.3901C41.9366 17.3825 41.9466 17.375 41.9592 17.3674L42.1325 17.2666L42.1802 17.3523L42.0069 17.4531C41.9944 17.4607 41.9843 17.4657 41.9718 17.4708C41.9592 17.4758 41.9492 17.4783 41.9366 17.4808C41.9592 17.4834 41.9843 17.4934 42.0069 17.506L42.1878 17.6043Z" fill="#D3BD9B"/>
<path d="M25.696 20.3562H12.3467V21.3264H25.696V20.3562Z" fill="#D3BD9B"/>
<path d="M23.4832 22.6387H12.3467V23.6089H23.4832V22.6387Z" fill="#D3BD9B"/>
<path d="M23.5134 24.9238H12.3467V25.894H23.5134V24.9238Z" fill="#D3BD9B"/>
<path d="M26.6102 27.2063H12.3467V28.1765H26.6102V27.2063Z" fill="#D3BD9B"/>
<path d="M25.0379 29.4912H12.3467V30.4614H25.0379V29.4912Z" fill="#D3BD9B"/>
<path d="M22.3078 31.7737H12.3467V32.7439H22.3078V31.7737Z" fill="#D3BD9B"/>
<path d="M21.3157 34.0588H12.3467V35.0291H21.3157V34.0588Z" fill="#D3BD9B"/>
<path d="M23.3677 36.3413H12.3467V37.3115H23.3677V36.3413Z" fill="#D3BD9B"/>
<path d="M22.0642 38.6265H12.3467V39.5967H22.0642V38.6265Z" fill="#D3BD9B"/>
<path d="M42.207 20.3562H37.9297V21.3264H42.207V20.3562Z" fill="#D3BD9B"/>
<path d="M42.207 22.6387H37.9297V23.6089H42.207V22.6387Z" fill="#D3BD9B"/>
<path d="M42.207 24.9238H37.9297V25.894H42.207V24.9238Z" fill="#D3BD9B"/>
<path d="M42.207 27.2063H37.9297V28.1765H42.207V27.2063Z" fill="#D3BD9B"/>
<path d="M42.207 29.4915H37.9297V30.4617H42.207V29.4915Z" fill="#D3BD9B"/>
<path d="M42.207 31.7739H37.9297V32.7441H42.207V31.7739Z" fill="#D3BD9B"/>
<path d="M42.207 34.0588H37.9297V35.0291H42.207V34.0588Z" fill="#D3BD9B"/>
<path d="M42.207 36.3416H37.9297V37.3118H42.207V36.3416Z" fill="#D3BD9B"/>
<path d="M42.207 38.6265H37.9297V39.5967H42.207V38.6265Z" fill="#D3BD9B"/>
<path d="M12.6459 42.9797V43.136H12.0557V42.9797H12.6459Z" fill="#D3BD9B"/>
<path d="M13.3793 42.9797V43.136H12.7891V42.9797H13.3793Z" fill="#D3BD9B"/>
<path d="M14.1127 42.9797V43.136H13.5225V42.9797H14.1127Z" fill="#D3BD9B"/>
<path d="M14.8441 42.9797V43.136H14.2539V42.9797H14.8441Z" fill="#D3BD9B"/>
<path d="M15.5775 42.9797V43.136H14.9873V42.9797H15.5775Z" fill="#D3BD9B"/>
<path d="M16.3109 42.9797V43.136H15.7207V42.9797H16.3109Z" fill="#D3BD9B"/>
<path d="M17.0443 42.9797V43.136H16.4541V42.9797H17.0443Z" fill="#D3BD9B"/>
<path d="M17.7768 42.9797V43.136H17.1865V42.9797H17.7768Z" fill="#D3BD9B"/>
<path d="M18.5082 42.9797V43.136H17.918V42.9797H18.5082Z" fill="#D3BD9B"/>
<path d="M19.2406 42.9797V43.136H18.6504V42.9797H19.2406Z" fill="#D3BD9B"/>
<path d="M19.975 42.9797V43.136H19.3848V42.9797H19.975Z" fill="#D3BD9B"/>
<path d="M20.7084 42.9797V43.136H20.1182V42.9797H20.7084Z" fill="#D3BD9B"/>
<path d="M21.4418 42.9797V43.136H20.8516V42.9797H21.4418Z" fill="#D3BD9B"/>
<path d="M22.1742 42.9797V43.136H21.584V42.9797H22.1742Z" fill="#D3BD9B"/>
<path d="M22.9057 42.9797V43.136H22.3154V42.9797H22.9057Z" fill="#D3BD9B"/>
<path d="M23.6391 42.9797V43.136H23.0488V42.9797H23.6391Z" fill="#D3BD9B"/>
<path d="M24.3725 42.9797V43.136H23.7822V42.9797H24.3725Z" fill="#D3BD9B"/>
<path d="M25.1059 42.9797V43.136H24.5156V42.9797H25.1059Z" fill="#D3BD9B"/>
<path d="M25.8393 42.9797V43.136H25.249V42.9797H25.8393Z" fill="#D3BD9B"/>
<path d="M26.5727 42.9797V43.136H25.9824V42.9797H26.5727Z" fill="#D3BD9B"/>
<path d="M27.3041 42.9797V43.136H26.7139V42.9797H27.3041Z" fill="#D3BD9B"/>
<path d="M28.0375 42.9797V43.136H27.4473V42.9797H28.0375Z" fill="#D3BD9B"/>
<path d="M28.7709 42.9797V43.136H28.1807V42.9797H28.7709Z" fill="#D3BD9B"/>
<path d="M29.5043 42.9797V43.136H28.9141V42.9797H29.5043Z" fill="#D3BD9B"/>
<path d="M30.2377 42.9797V43.136H29.6475V42.9797H30.2377Z" fill="#D3BD9B"/>
<path d="M30.9701 42.9797V43.136H30.3799V42.9797H30.9701Z" fill="#D3BD9B"/>
<path d="M31.7035 42.9797V43.136H31.1133V42.9797H31.7035Z" fill="#D3BD9B"/>
<path d="M32.435 42.9797V43.136H31.8447V42.9797H32.435Z" fill="#D3BD9B"/>
<path d="M33.1684 42.9797V43.136H32.5781V42.9797H33.1684Z" fill="#D3BD9B"/>
<path d="M33.9017 42.9797V43.136H33.3115V42.9797H33.9017Z" fill="#D3BD9B"/>
<path d="M34.6351 42.9797V43.136H34.0449V42.9797H34.6351Z" fill="#D3BD9B"/>
<path d="M35.3686 42.9797V43.136H34.7783V42.9797H35.3686Z" fill="#D3BD9B"/>
<path d="M36.099 42.9797V43.136H35.5088V42.9797H36.099Z" fill="#D3BD9B"/>
<path d="M36.8334 42.9797V43.136H36.2432V42.9797H36.8334Z" fill="#D3BD9B"/>
<path d="M37.5668 42.9797V43.136H36.9766V42.9797H37.5668Z" fill="#D3BD9B"/>
<path d="M38.3002 42.9797V43.136H37.71V42.9797H38.3002Z" fill="#D3BD9B"/>
<path d="M39.0336 42.9797V43.136H38.4434V42.9797H39.0336Z" fill="#D3BD9B"/>
<path d="M39.767 42.9797V43.136H39.1768V42.9797H39.767Z" fill="#D3BD9B"/>
<path d="M40.4975 42.9797V43.136H39.9072V42.9797H40.4975Z" fill="#D3BD9B"/>
<path d="M41.2318 42.9797V43.136H40.6416V42.9797H41.2318Z" fill="#D3BD9B"/>
<path d="M41.9643 42.9797V43.136H41.374V42.9797H41.9643Z" fill="#D3BD9B"/>
<path d="M42.6977 42.9797V43.136H42.1074V42.9797H42.6977Z" fill="#D3BD9B"/>
</g>
</g>
<defs>
<filter id="filter0_d_1008_6862" x="-0.344727" y="0.090332" width="60.8672" height="64.4055" filterUnits="userSpaceOnUse" color-interpolation-filters="sRGB">
<feFlood flood-opacity="0" result="BackgroundImageFix"/>
<feColorMatrix in="SourceAlpha" type="matrix" values="0 0 0 0 0 0 0 0 0 0 0 0 0 0 0 0 0 0 127 0" result="hardAlpha"/>
<feOffset dx="3" dy="4"/>
<feGaussianBlur stdDeviation="2"/>
<feComposite in2="hardAlpha" operator="out"/>
<feColorMatrix type="matrix" values="0 0 0 0 0 0 0 0 0 0 0 0 0 0 0 0 0 0 0.25 0"/>
<feBlend mode="normal" in2="BackgroundImageFix" result="effect1_dropShadow_1008_6862"/>
<feBlend mode="normal" in="SourceGraphic" in2="effect1_dropShadow_1008_6862" result="shape"/>
</filter>
<linearGradient id="paint0_linear_1008_6862" x1="27.5881" y1="7.56214" x2="27.5881" y2="59.6166" gradientUnits="userSpaceOnUse">
<stop stop-color="#F6F7F7"/>
<stop offset="0.25" stop-color="white"/>
<stop offset="0.4322" stop-color="#F0F1F1"/>
<stop offset="0.6346" stop-color="#E4E5E6"/>
<stop offset="1" stop-color="white"/>
</linearGradient>
<linearGradient id="paint1_linear_1008_6862" x1="27.5881" y1="8.31898" x2="27.5881" y2="60.3734" gradientUnits="userSpaceOnUse">
<stop stop-color="#FAFBFB"/>
<stop offset="0.0368" stop-color="#FBFCFC"/>
<stop offset="0.25" stop-color="white"/>
<stop offset="0.521" stop-color="#F3F4F4"/>
<stop offset="0.6058" stop-color="#EEEFF0"/>
<stop offset="0.7894" stop-color="#F8F9F9"/>
<stop offset="1" stop-color="white"/>
</linearGradient>
<clipPath id="clip0_1008_6862">
<rect width="54" height="57" fill="white"/>
</clipPath>
</defs>
</svg>
