<svg width="654" height="87" viewBox="0 0 654 87" fill="none" xmlns="http://www.w3.org/2000/svg">
<g filter="url(#filter0_i_672_5671)">
<rect x="3" y="3" width="648" height="81" rx="40.5" fill="url(#paint0_linear_672_5671)"/>
<g filter="url(#filter1_d_672_5671)">
<path d="M61.5 33.92H68.7V56.2C68.7 56.56 68.78 57 69.5 57H73.34C73.7 57 74.14 56.92 74.14 56.2V30.4C74.14 30.04 74.06 29.6 73.34 29.6H56.86C56.5 29.6 56.06 29.68 56.06 30.4V56.2C56.06 56.56 56.14 57 56.86 57H60.7C61.42 57 61.5 56.56 61.5 56.2V33.92ZM86.6953 33.8H88.4553C89.9753 33.8 92.5353 33.84 92.5353 37.52C92.5353 41.4 90.2553 41.72 87.9353 41.72H86.6953V33.8ZM86.6953 46.04H88.8153C94.4953 46.04 97.9753 42.52 97.9753 37.24C97.9753 33.36 96.2553 31.56 94.7353 30.72C92.8953 29.68 90.4153 29.6 88.6153 29.6H82.0553C81.6953 29.6 81.2553 29.68 81.2553 30.4V56.2C81.2553 56.56 81.3353 57 82.0553 57H85.8953C86.6153 57 86.6953 56.56 86.6953 56.2V46.04ZM117.993 29.6C117.273 29.6 117.193 29.92 116.953 30.44L111.913 41.32C111.313 42.64 109.913 45.92 109.273 47.52H109.113C109.193 42.96 109.273 43.8 109.273 41.92V30.4C109.273 30.04 109.193 29.6 108.473 29.6H104.633C104.273 29.6 103.833 29.68 103.833 30.4V56.2C103.833 56.56 103.913 57 104.633 57H108.473C109.073 57 109.193 56.76 109.393 56.32L114.913 44.44C115.513 43.16 116.153 41.88 117.153 39.08H117.313C117.233 40.48 117.153 42.4 117.153 43.48V56.2C117.153 56.56 117.233 57 117.953 57H121.793C122.513 57 122.593 56.56 122.593 56.2V30.4C122.593 30.04 122.513 29.6 121.793 29.6H117.993ZM132.092 44.24C132.092 44.6 132.172 45.04 132.892 45.04H134.052C134.972 45.04 136.052 45.08 136.972 45.64C137.812 46.16 138.612 47.2 138.612 49.24C138.612 50.04 138.452 51.08 137.692 51.96C136.692 53.12 135.372 53.36 134.012 53.36C131.972 53.36 130.612 52.76 129.932 52.36C129.492 52.12 129.212 51.88 128.932 51.88C128.612 51.88 128.532 52.08 128.412 52.28L127.172 54.52C127.012 54.8 126.972 54.96 126.972 55.12C126.972 55.4 127.292 55.68 127.452 55.8C128.852 56.96 131.572 57.68 134.292 57.68C141.532 57.68 144.052 53.6 144.052 49.24C144.052 45.52 142.212 43.08 139.132 42.48C140.172 42.08 143.172 40.6 143.172 36.2C143.172 31.56 140.172 28.92 135.332 28.92C132.652 28.92 130.532 29.72 128.972 30.72C128.492 31 127.932 31.44 127.932 31.96C127.932 32.2 128.012 32.32 128.132 32.48L129.492 34.52C129.692 34.8 129.852 34.92 130.012 34.92C130.212 34.92 130.452 34.76 130.772 34.52C132.332 33.4 133.612 33.24 134.332 33.24C137.812 33.24 138.012 36.08 138.012 36.88C138.012 37.56 138.012 40.72 133.732 40.72H132.892C132.172 40.72 132.092 41.16 132.092 41.52V44.24ZM161.506 44.24C161.506 44.6 161.586 45.04 162.306 45.04H163.466C164.386 45.04 165.466 45.08 166.386 45.64C167.226 46.16 168.026 47.2 168.026 49.24C168.026 50.04 167.866 51.08 167.106 51.96C166.106 53.12 164.786 53.36 163.426 53.36C161.386 53.36 160.026 52.76 159.346 52.36C158.906 52.12 158.626 51.88 158.346 51.88C158.026 51.88 157.946 52.08 157.826 52.28L156.586 54.52C156.426 54.8 156.386 54.96 156.386 55.12C156.386 55.4 156.706 55.68 156.866 55.8C158.266 56.96 160.986 57.68 163.706 57.68C170.946 57.68 173.466 53.6 173.466 49.24C173.466 45.52 171.626 43.08 168.546 42.48C169.586 42.08 172.586 40.6 172.586 36.2C172.586 31.56 169.586 28.92 164.746 28.92C162.066 28.92 159.946 29.72 158.386 30.72C157.906 31 157.346 31.44 157.346 31.96C157.346 32.2 157.426 32.32 157.546 32.48L158.906 34.52C159.106 34.8 159.266 34.92 159.426 34.92C159.626 34.92 159.866 34.76 160.186 34.52C161.746 33.4 163.026 33.24 163.746 33.24C167.226 33.24 167.426 36.08 167.426 36.88C167.426 37.56 167.426 40.72 163.146 40.72H162.306C161.586 40.72 161.506 41.16 161.506 41.52V44.24ZM185.104 29.6C184.584 29.6 184.544 29.84 184.424 30.2L176.464 56.2C176.384 56.44 176.224 57 177.064 57H181.344C181.864 57 181.904 56.8 182.064 56.16L183.704 49.68H190.584L192.344 56.16C192.584 56.96 192.704 57 193.184 57H197.624C197.824 57 198.264 56.96 198.264 56.52C198.264 56.32 198.184 56.2 198.144 56.04L190.304 30.24C190.184 29.84 190.104 29.6 189.704 29.6H185.104ZM189.584 46.08H184.304L186.064 39.2C186.784 36.44 186.904 34.96 186.944 33.88H187.064C187.384 36.64 187.664 38 187.944 39.2L189.584 46.08ZM214.24 44.24C214.24 44.6 214.32 45.04 215.04 45.04H216.2C217.12 45.04 218.2 45.08 219.12 45.64C219.96 46.16 220.76 47.2 220.76 49.24C220.76 50.04 220.6 51.08 219.84 51.96C218.84 53.12 217.52 53.36 216.16 53.36C214.12 53.36 212.76 52.76 212.08 52.36C211.64 52.12 211.36 51.88 211.08 51.88C210.76 51.88 210.68 52.08 210.56 52.28L209.32 54.52C209.16 54.8 209.12 54.96 209.12 55.12C209.12 55.4 209.44 55.68 209.6 55.8C211 56.96 213.72 57.68 216.44 57.68C223.68 57.68 226.2 53.6 226.2 49.24C226.2 45.52 224.36 43.08 221.28 42.48C222.32 42.08 225.32 40.6 225.32 36.2C225.32 31.56 222.32 28.92 217.48 28.92C214.8 28.92 212.68 29.72 211.12 30.72C210.64 31 210.08 31.44 210.08 31.96C210.08 32.2 210.16 32.32 210.28 32.48L211.64 34.52C211.84 34.8 212 34.92 212.16 34.92C212.36 34.92 212.6 34.76 212.92 34.52C214.48 33.4 215.76 33.24 216.48 33.24C219.96 33.24 220.16 36.08 220.16 36.88C220.16 37.56 220.16 40.72 215.88 40.72H215.04C214.32 40.72 214.24 41.16 214.24 41.52V44.24ZM250.238 43.32C250.238 40.52 250.038 28.92 240.278 28.92C230.518 28.92 230.318 40.4 230.318 43.32C230.318 46.2 230.518 57.68 240.278 57.68C250.038 57.68 250.238 46.2 250.238 43.32ZM240.278 53.36C236.238 53.36 235.998 46.6 235.998 43.32C235.998 39.52 236.438 33.24 240.278 33.24C244.118 33.24 244.558 39.48 244.558 43.32C244.558 46.6 244.318 53.36 240.278 53.36ZM262.428 34.4H266.468V56.2C266.468 56.52 266.468 57 267.308 57H271.108C271.508 57 271.908 56.96 271.908 56.2V30.4C271.908 29.64 271.508 29.6 271.108 29.6H258.268C257.508 29.6 257.468 30 257.468 30.4L257.428 36.68C257.428 39.36 257.188 44.12 256.948 46.68C256.548 50.6 255.748 52.52 252.908 52.84L252.188 52.92C251.788 52.96 251.668 53.32 251.788 53.72L252.788 57.32C252.908 57.76 253.268 57.72 253.508 57.68L254.148 57.6C254.828 57.52 256.388 57.28 257.788 56.44C261.188 54.44 261.668 51.04 261.988 46.76C262.108 45.28 262.348 41.08 262.388 38.16L262.428 34.4ZM297.309 43.32C297.309 40.52 297.109 28.92 287.349 28.92C277.589 28.92 277.389 40.4 277.389 43.32C277.389 46.2 277.589 57.68 287.349 57.68C297.109 57.68 297.309 46.2 297.309 43.32ZM287.349 53.36C283.309 53.36 283.069 46.6 283.069 43.32C283.069 39.52 283.509 33.24 287.349 33.24C291.189 33.24 291.629 39.48 291.629 43.32C291.629 46.6 291.389 53.36 287.349 53.36ZM310.299 34.4H315.339C315.659 34.4 316.019 34.32 316.179 33.76L317.059 30.44C317.139 30.16 317.339 29.6 316.539 29.6H299.539C298.939 29.6 298.939 30.04 298.939 30.2V33.8C298.939 33.96 298.939 34.4 299.539 34.4H304.859V56.2C304.859 56.56 304.939 57 305.659 57H309.499C309.859 57 310.299 56.92 310.299 56.2V34.4ZM327.01 49.28L326.65 50.6C326.45 51.36 325.81 53.36 323.53 53.36C322.77 53.36 321.97 53.08 321.01 52.52C320.73 52.36 320.53 52.24 320.37 52.24C320.25 52.24 320.05 52.32 319.97 52.52L318.73 55.52C318.57 55.88 318.53 56.16 319.69 56.68C321.25 57.36 322.73 57.68 324.17 57.68C326.29 57.68 327.69 57.04 328.57 56.28C329.77 55.24 330.45 53.48 330.81 52.2L336.97 30.84C337.09 30.36 337.13 30.24 337.13 30.16C337.13 29.72 336.61 29.72 336.29 29.68L332.61 29.24C331.93 29.16 331.85 29.64 331.73 30.12L329.25 39.64C328.81 41.28 328.53 42.4 327.85 45.36H327.69C326.97 42.88 326.61 41.52 326.01 39.64L322.93 30.04C322.69 29.32 322.77 29.16 321.61 29.28L318.01 29.6C317.21 29.68 316.85 29.76 316.85 30.08C316.85 30.24 316.93 30.4 317.05 30.76L323.89 48.92C323.97 49.12 324.01 49.28 324.37 49.28H327.01ZM346.733 40.68V30.44C346.733 29.6 346.413 29.6 345.893 29.6H342.173C341.653 29.6 341.333 29.6 341.333 30.44V56.16C341.333 57 341.653 57 342.173 57H345.893C346.413 57 346.733 57 346.733 56.16V45.08H349.973C349.933 46.64 350.133 49.72 351.533 52.56C353.253 56 355.893 57.68 359.613 57.68C369.373 57.68 369.573 46.16 369.573 43.32C369.573 40.56 369.373 28.92 359.613 28.92C355.893 28.92 353.213 30.6 351.533 34.04C350.373 36.36 350.013 39 349.973 40.68H346.733ZM359.613 53.48C355.573 53.48 355.333 46.68 355.333 43.32C355.333 39.44 355.733 33.12 359.613 33.12C363.653 33.12 363.893 39.96 363.893 43.32C363.893 46.68 363.653 53.48 359.613 53.48ZM395.42 52.68H389.82V30.4C389.82 30.04 389.74 29.6 389.02 29.6H385.18C384.82 29.6 384.38 29.68 384.38 30.4V56.2C384.38 56.56 384.46 57 385.18 57H411.1C411.82 57 411.9 56.56 411.9 56.2V30.4C411.9 30.04 411.82 29.6 411.1 29.6H407.26C406.54 29.6 406.46 30.04 406.46 30.4V52.68H400.86V30.4C400.86 30.04 400.78 29.6 400.06 29.6H396.22C395.86 29.6 395.42 29.68 395.42 30.4V52.68ZM437.309 43.32C437.309 40.52 437.109 28.92 427.349 28.92C417.589 28.92 417.389 40.4 417.389 43.32C417.389 46.2 417.589 57.68 427.349 57.68C437.109 57.68 437.309 46.2 437.309 43.32ZM427.349 53.36C423.309 53.36 423.069 46.6 423.069 43.32C423.069 39.52 423.509 33.24 427.349 33.24C431.189 33.24 431.629 39.48 431.629 43.32C431.629 46.6 431.389 53.36 427.349 53.36ZM447.419 57C447.819 57 448.219 56.96 448.219 56.2V44.92H449.939C452.419 44.92 452.739 46.4 452.979 47.6L453.939 52.4C454.179 53.68 454.379 55.28 455.619 56.36C457.019 57.56 459.339 57.68 459.779 57.68C460.459 57.68 460.539 57.4 460.659 57.08L461.699 54.04C461.779 53.8 461.819 53.36 461.299 53.24L460.259 53C459.059 52.72 458.859 52.2 458.499 50.32L457.859 46.96C457.699 46.2 457.179 43.64 454.259 42.72V42.6C456.419 41.84 457.099 40.32 457.379 38.72L457.859 35.88C458.179 33.88 458.699 33.56 459.619 33.32L460.619 33.08C460.979 33 461.139 32.64 461.019 32.24L460.179 29.4C460.059 29 459.739 28.92 459.419 28.92C458.619 28.92 457.179 29.2 456.019 29.92C454.219 31 453.859 32.56 453.579 34.2L452.979 37.6C452.539 40.04 451.499 40.6 449.579 40.6H448.219V30.4C448.219 29.64 447.819 29.6 447.419 29.6H443.579C443.179 29.6 442.779 29.64 442.779 30.4V56.2C442.779 56.96 443.179 57 443.579 57H447.419ZM483.988 43.32C483.988 40.52 483.788 28.92 474.028 28.92C464.268 28.92 464.068 40.4 464.068 43.32C464.068 46.2 464.268 57.68 474.028 57.68C483.788 57.68 483.988 46.2 483.988 43.32ZM474.028 53.36C469.988 53.36 469.748 46.6 469.748 43.32C469.748 39.52 470.188 33.24 474.028 33.24C477.868 33.24 478.308 39.48 478.308 43.32C478.308 46.6 478.068 53.36 474.028 53.36ZM496.178 34.4H500.218V56.2C500.218 56.52 500.218 57 501.058 57H504.858C505.258 57 505.658 56.96 505.658 56.2V30.4C505.658 29.64 505.258 29.6 504.858 29.6H492.018C491.258 29.6 491.218 30 491.218 30.4L491.178 36.68C491.178 39.36 490.938 44.12 490.698 46.68C490.298 50.6 489.498 52.52 486.658 52.84L485.938 52.92C485.538 52.96 485.418 53.32 485.538 53.72L486.538 57.32C486.658 57.76 487.018 57.72 487.258 57.68L487.898 57.6C488.578 57.52 490.138 57.28 491.538 56.44C494.938 54.44 495.418 51.04 495.738 46.76C495.858 45.28 496.098 41.08 496.138 38.16L496.178 34.4ZM518.659 29.6C518.139 29.6 518.099 29.84 517.979 30.2L510.019 56.2C509.939 56.44 509.779 57 510.619 57H514.899C515.419 57 515.459 56.8 515.619 56.16L517.259 49.68H524.139L525.899 56.16C526.139 56.96 526.259 57 526.739 57H531.179C531.379 57 531.819 56.96 531.819 56.52C531.819 56.32 531.739 56.2 531.699 56.04L523.859 30.24C523.739 29.84 523.659 29.6 523.259 29.6H518.659ZM523.139 46.08H517.859L519.619 39.2C520.339 36.44 520.459 34.96 520.499 33.88H520.619C520.939 36.64 521.219 38 521.499 39.2L523.139 46.08ZM549.779 57V62.68C549.779 63.04 549.859 63.48 550.579 63.48H554.059C554.779 63.48 554.859 63.04 554.859 62.68V53.48C554.859 53.12 554.779 52.68 554.059 52.68H552.459V30.4C552.459 30.04 552.379 29.6 551.659 29.6H538.579C537.859 29.6 537.779 30.04 537.779 30.4L537.739 38.12C537.739 38.84 537.699 42.52 537.139 45.96C536.739 48.4 536.179 50.4 534.899 52.68H534.139C533.419 52.68 533.339 53.12 533.339 53.48V62.68C533.339 63.04 533.419 63.48 534.139 63.48H537.619C537.979 63.48 538.419 63.4 538.419 62.68V57H549.779ZM547.019 52.68H540.219C541.019 51.08 541.579 49.44 541.979 47.6C542.379 45.84 542.739 43.16 542.819 38.92L542.899 33.92H547.019V52.68ZM564.45 57C564.85 57 565.25 56.96 565.25 56.2V44.92H566.97C569.45 44.92 569.77 46.4 570.01 47.6L570.97 52.4C571.21 53.68 571.41 55.28 572.65 56.36C574.05 57.56 576.37 57.68 576.81 57.68C577.49 57.68 577.57 57.4 577.69 57.08L578.73 54.04C578.81 53.8 578.85 53.36 578.33 53.24L577.29 53C576.09 52.72 575.89 52.2 575.53 50.32L574.89 46.96C574.73 46.2 574.21 43.64 571.29 42.72V42.6C573.45 41.84 574.13 40.32 574.41 38.72L574.89 35.88C575.21 33.88 575.73 33.56 576.65 33.32L577.65 33.08C578.01 33 578.17 32.64 578.05 32.24L577.21 29.4C577.09 29 576.77 28.92 576.45 28.92C575.65 28.92 574.21 29.2 573.05 29.92C571.25 31 570.89 32.56 570.61 34.2L570.01 37.6C569.57 40.04 568.53 40.6 566.61 40.6H565.25V30.4C565.25 29.64 564.85 29.6 564.45 29.6H560.61C560.21 29.6 559.81 29.64 559.81 30.4V56.2C559.81 56.96 560.21 57 560.61 57H564.45ZM589.94 49.28L589.58 50.6C589.38 51.36 588.74 53.36 586.46 53.36C585.7 53.36 584.9 53.08 583.94 52.52C583.66 52.36 583.46 52.24 583.3 52.24C583.18 52.24 582.98 52.32 582.9 52.52L581.66 55.52C581.5 55.88 581.46 56.16 582.62 56.68C584.18 57.36 585.66 57.68 587.1 57.68C589.22 57.68 590.62 57.04 591.5 56.28C592.7 55.24 593.38 53.48 593.74 52.2L599.9 30.84C600.02 30.36 600.06 30.24 600.06 30.16C600.06 29.72 599.54 29.72 599.22 29.68L595.54 29.24C594.86 29.16 594.78 29.64 594.66 30.12L592.18 39.64C591.74 41.28 591.46 42.4 590.78 45.36H590.62C589.9 42.88 589.54 41.52 588.94 39.64L585.86 30.04C585.62 29.32 585.7 29.16 584.54 29.28L580.94 29.6C580.14 29.68 579.78 29.76 579.78 30.08C579.78 30.24 579.86 30.4 579.98 30.76L586.82 48.92C586.9 49.12 586.94 49.28 587.3 49.28H589.94Z" fill="#FCE7A7"/>
</g>
<rect x="3" y="3" width="648" height="81" rx="40.5" stroke="url(#paint1_linear_672_5671)" stroke-width="5" stroke-linecap="round" stroke-linejoin="round" stroke-dasharray="1 12"/>
</g>
<defs>
<filter id="filter0_i_672_5671" x="0.5" y="0.5" width="655" height="91" filterUnits="userSpaceOnUse" color-interpolation-filters="sRGB">
<feFlood flood-opacity="0" result="BackgroundImageFix"/>
<feBlend mode="normal" in="SourceGraphic" in2="BackgroundImageFix" result="shape"/>
<feColorMatrix in="SourceAlpha" type="matrix" values="0 0 0 0 0 0 0 0 0 0 0 0 0 0 0 0 0 0 127 0" result="hardAlpha"/>
<feOffset dx="2" dy="5"/>
<feGaussianBlur stdDeviation="3"/>
<feComposite in2="hardAlpha" operator="arithmetic" k2="-1" k3="1"/>
<feColorMatrix type="matrix" values="0 0 0 0 1 0 0 0 0 0.961831 0 0 0 0 0.779167 0 0 0 1 0"/>
<feBlend mode="normal" in2="shape" result="effect1_innerShadow_672_5671"/>
</filter>
<filter id="filter1_d_672_5671" x="55.0605" y="28.92" width="546" height="37.5599" filterUnits="userSpaceOnUse" color-interpolation-filters="sRGB">
<feFlood flood-opacity="0" result="BackgroundImageFix"/>
<feColorMatrix in="SourceAlpha" type="matrix" values="0 0 0 0 0 0 0 0 0 0 0 0 0 0 0 0 0 0 127 0" result="hardAlpha"/>
<feOffset dy="2"/>
<feGaussianBlur stdDeviation="0.5"/>
<feComposite in2="hardAlpha" operator="out"/>
<feColorMatrix type="matrix" values="0 0 0 0 0 0 0 0 0 0 0 0 0 0 0 0 0 0 0.1 0"/>
<feBlend mode="normal" in2="BackgroundImageFix" result="effect1_dropShadow_672_5671"/>
<feBlend mode="normal" in="SourceGraphic" in2="effect1_dropShadow_672_5671" result="shape"/>
</filter>
<linearGradient id="paint0_linear_672_5671" x1="0.742175" y1="42.7637" x2="651" y2="42.7636" gradientUnits="userSpaceOnUse">
<stop stop-color="#4A0008"/>
<stop offset="0.270733" stop-color="#790207"/>
<stop offset="0.518223" stop-color="#BF0604"/>
<stop offset="0.739583" stop-color="#7E0307"/>
<stop offset="1" stop-color="#4A0008"/>
</linearGradient>
<linearGradient id="paint1_linear_672_5671" x1="327" y1="3" x2="327" y2="84" gradientUnits="userSpaceOnUse">
<stop stop-color="#FFEB5E"/>
<stop offset="1" stop-color="#F9F3C9"/>
</linearGradient>
</defs>
</svg>
