<svg width="336" height="102" viewBox="0 0 336 102" fill="none" xmlns="http://www.w3.org/2000/svg">
<g filter="url(#filter0_i_672_5845)">
<rect x="3" y="3" width="330" height="96" rx="48" fill="url(#paint0_linear_672_5845)"/>
<g filter="url(#filter1_d_672_5845)">
<path d="M43.8439 26.459H49.7839V44.84C49.7839 45.137 49.8499 45.5 50.4439 45.5H53.6119C53.9089 45.5 54.2719 45.434 54.2719 44.84V23.555C54.2719 23.258 54.2059 22.895 53.6119 22.895H40.0159C39.7189 22.895 39.3559 22.961 39.3559 23.555V44.84C39.3559 45.137 39.4219 45.5 40.0159 45.5H43.1839C43.7779 45.5 43.8439 45.137 43.8439 44.84V26.459ZM64.6301 26.36H66.0821C67.3361 26.36 69.4481 26.393 69.4481 29.429C69.4481 32.63 67.5671 32.894 65.6531 32.894H64.6301V26.36ZM64.6301 36.458H66.3791C71.0651 36.458 73.9361 33.554 73.9361 29.198C73.9361 25.997 72.5171 24.512 71.2631 23.819C69.7451 22.961 67.6991 22.895 66.2141 22.895H60.8021C60.5051 22.895 60.1421 22.961 60.1421 23.555V44.84C60.1421 45.137 60.2081 45.5 60.8021 45.5H63.9701C64.5641 45.5 64.6301 45.137 64.6301 44.84V36.458ZM90.451 22.895C89.857 22.895 89.791 23.159 89.593 23.588L85.435 32.564C84.94 33.653 83.785 36.359 83.257 37.679H83.125C83.191 33.917 83.257 34.61 83.257 33.059V23.555C83.257 23.258 83.191 22.895 82.597 22.895H79.429C79.132 22.895 78.769 22.961 78.769 23.555V44.84C78.769 45.137 78.835 45.5 79.429 45.5H82.597C83.092 45.5 83.191 45.302 83.356 44.939L87.91 35.138C88.405 34.082 88.933 33.026 89.758 30.716H89.89C89.824 31.871 89.758 33.455 89.758 34.346V44.84C89.758 45.137 89.824 45.5 90.418 45.5H93.586C94.18 45.5 94.246 45.137 94.246 44.84V23.555C94.246 23.258 94.18 22.895 93.586 22.895H90.451ZM102.082 34.973C102.082 35.27 102.148 35.633 102.742 35.633H103.699C104.458 35.633 105.349 35.666 106.108 36.128C106.801 36.557 107.461 37.415 107.461 39.098C107.461 39.758 107.329 40.616 106.702 41.342C105.877 42.299 104.788 42.497 103.666 42.497C101.983 42.497 100.861 42.002 100.3 41.672C99.9372 41.474 99.7062 41.276 99.4752 41.276C99.2112 41.276 99.1452 41.441 99.0462 41.606L98.0232 43.454C97.8912 43.685 97.8582 43.817 97.8582 43.949C97.8582 44.18 98.1222 44.411 98.2542 44.51C99.4092 45.467 101.653 46.061 103.897 46.061C109.87 46.061 111.949 42.695 111.949 39.098C111.949 36.029 110.431 34.016 107.89 33.521C108.748 33.191 111.223 31.97 111.223 28.34C111.223 24.512 108.748 22.334 104.755 22.334C102.544 22.334 100.795 22.994 99.5082 23.819C99.1122 24.05 98.6502 24.413 98.6502 24.842C98.6502 25.04 98.7162 25.139 98.8152 25.271L99.9372 26.954C100.102 27.185 100.234 27.284 100.366 27.284C100.531 27.284 100.729 27.152 100.993 26.954C102.28 26.03 103.336 25.898 103.93 25.898C106.801 25.898 106.966 28.241 106.966 28.901C106.966 29.462 106.966 32.069 103.435 32.069H102.742C102.148 32.069 102.082 32.432 102.082 32.729V34.973ZM126.349 34.973C126.349 35.27 126.415 35.633 127.009 35.633H127.966C128.725 35.633 129.616 35.666 130.375 36.128C131.068 36.557 131.728 37.415 131.728 39.098C131.728 39.758 131.596 40.616 130.969 41.342C130.144 42.299 129.055 42.497 127.933 42.497C126.25 42.497 125.128 42.002 124.567 41.672C124.204 41.474 123.973 41.276 123.742 41.276C123.478 41.276 123.412 41.441 123.313 41.606L122.29 43.454C122.158 43.685 122.125 43.817 122.125 43.949C122.125 44.18 122.389 44.411 122.521 44.51C123.676 45.467 125.92 46.061 128.164 46.061C134.137 46.061 136.216 42.695 136.216 39.098C136.216 36.029 134.698 34.016 132.157 33.521C133.015 33.191 135.49 31.97 135.49 28.34C135.49 24.512 133.015 22.334 129.022 22.334C126.811 22.334 125.062 22.994 123.775 23.819C123.379 24.05 122.917 24.413 122.917 24.842C122.917 25.04 122.983 25.139 123.082 25.271L124.204 26.954C124.369 27.185 124.501 27.284 124.633 27.284C124.798 27.284 124.996 27.152 125.26 26.954C126.547 26.03 127.603 25.898 128.197 25.898C131.068 25.898 131.233 28.241 131.233 28.901C131.233 29.462 131.233 32.069 127.702 32.069H127.009C126.415 32.069 126.349 32.432 126.349 32.729V34.973ZM145.817 22.895C145.388 22.895 145.355 23.093 145.256 23.39L138.689 44.84C138.623 45.038 138.491 45.5 139.184 45.5H142.715C143.144 45.5 143.177 45.335 143.309 44.807L144.662 39.461H150.338L151.79 44.807C151.988 45.467 152.087 45.5 152.483 45.5H156.146C156.311 45.5 156.674 45.467 156.674 45.104C156.674 44.939 156.608 44.84 156.575 44.708L150.107 23.423C150.008 23.093 149.942 22.895 149.612 22.895H145.817ZM149.513 36.491H145.157L146.609 30.815C147.203 28.538 147.302 27.317 147.335 26.426H147.434C147.698 28.703 147.929 29.825 148.16 30.815L149.513 36.491ZM169.855 34.973C169.855 35.27 169.921 35.633 170.515 35.633H171.472C172.231 35.633 173.122 35.666 173.881 36.128C174.574 36.557 175.234 37.415 175.234 39.098C175.234 39.758 175.102 40.616 174.475 41.342C173.65 42.299 172.561 42.497 171.439 42.497C169.756 42.497 168.634 42.002 168.073 41.672C167.71 41.474 167.479 41.276 167.248 41.276C166.984 41.276 166.918 41.441 166.819 41.606L165.796 43.454C165.664 43.685 165.631 43.817 165.631 43.949C165.631 44.18 165.895 44.411 166.027 44.51C167.182 45.467 169.426 46.061 171.67 46.061C177.643 46.061 179.722 42.695 179.722 39.098C179.722 36.029 178.204 34.016 175.663 33.521C176.521 33.191 178.996 31.97 178.996 28.34C178.996 24.512 176.521 22.334 172.528 22.334C170.317 22.334 168.568 22.994 167.281 23.819C166.885 24.05 166.423 24.413 166.423 24.842C166.423 25.04 166.489 25.139 166.588 25.271L167.71 26.954C167.875 27.185 168.007 27.284 168.139 27.284C168.304 27.284 168.502 27.152 168.766 26.954C170.053 26.03 171.109 25.898 171.703 25.898C174.574 25.898 174.739 28.241 174.739 28.901C174.739 29.462 174.739 32.069 171.208 32.069H170.515C169.921 32.069 169.855 32.432 169.855 32.729V34.973ZM199.553 34.214C199.553 31.904 199.388 22.334 191.336 22.334C183.284 22.334 183.119 31.805 183.119 34.214C183.119 36.59 183.284 46.061 191.336 46.061C199.388 46.061 199.553 36.59 199.553 34.214ZM191.336 42.497C188.003 42.497 187.805 36.92 187.805 34.214C187.805 31.079 188.168 25.898 191.336 25.898C194.504 25.898 194.867 31.046 194.867 34.214C194.867 36.92 194.669 42.497 191.336 42.497ZM209.61 26.855H212.943V44.84C212.943 45.104 212.943 45.5 213.636 45.5H216.771C217.101 45.5 217.431 45.467 217.431 44.84V23.555C217.431 22.928 217.101 22.895 216.771 22.895H206.178C205.551 22.895 205.518 23.225 205.518 23.555L205.485 28.736C205.485 30.947 205.287 34.874 205.089 36.986C204.759 40.22 204.099 41.804 201.756 42.068L201.162 42.134C200.832 42.167 200.733 42.464 200.832 42.794L201.657 45.764C201.756 46.127 202.053 46.094 202.251 46.061L202.779 45.995C203.34 45.929 204.627 45.731 205.782 45.038C208.587 43.388 208.983 40.583 209.247 37.052C209.346 35.831 209.544 32.366 209.577 29.957L209.61 26.855ZM238.386 34.214C238.386 31.904 238.221 22.334 230.169 22.334C222.117 22.334 221.952 31.805 221.952 34.214C221.952 36.59 222.117 46.061 230.169 46.061C238.221 46.061 238.386 36.59 238.386 34.214ZM230.169 42.497C226.836 42.497 226.638 36.92 226.638 34.214C226.638 31.079 227.001 25.898 230.169 25.898C233.337 25.898 233.7 31.046 233.7 34.214C233.7 36.92 233.502 42.497 230.169 42.497ZM249.103 26.855H253.261C253.525 26.855 253.822 26.789 253.954 26.327L254.68 23.588C254.746 23.357 254.911 22.895 254.251 22.895H240.226C239.731 22.895 239.731 23.258 239.731 23.39V26.36C239.731 26.492 239.731 26.855 240.226 26.855H244.615V44.84C244.615 45.137 244.681 45.5 245.275 45.5H248.443C248.74 45.5 249.103 45.434 249.103 44.84V26.855ZM262.89 39.131L262.593 40.22C262.428 40.847 261.9 42.497 260.019 42.497C259.392 42.497 258.732 42.266 257.94 41.804C257.709 41.672 257.544 41.573 257.412 41.573C257.313 41.573 257.148 41.639 257.082 41.804L256.059 44.279C255.927 44.576 255.894 44.807 256.851 45.236C258.138 45.797 259.359 46.061 260.547 46.061C262.296 46.061 263.451 45.533 264.177 44.906C265.167 44.048 265.728 42.596 266.025 41.54L271.107 23.918C271.206 23.522 271.239 23.423 271.239 23.357C271.239 22.994 270.81 22.994 270.546 22.961L267.51 22.598C266.949 22.532 266.883 22.928 266.784 23.324L264.738 31.178C264.375 32.531 264.144 33.455 263.583 35.897H263.451C262.857 33.851 262.56 32.729 262.065 31.178L259.524 23.258C259.326 22.664 259.392 22.532 258.435 22.631L255.465 22.895C254.805 22.961 254.508 23.027 254.508 23.291C254.508 23.423 254.574 23.555 254.673 23.852L260.316 38.834C260.382 38.999 260.415 39.131 260.712 39.131H262.89ZM279.162 32.036V23.588C279.162 22.895 278.898 22.895 278.469 22.895H275.4C274.971 22.895 274.707 22.895 274.707 23.588V44.807C274.707 45.5 274.971 45.5 275.4 45.5H278.469C278.898 45.5 279.162 45.5 279.162 44.807V35.666H281.835C281.802 36.953 281.967 39.494 283.122 41.837C284.541 44.675 286.719 46.061 289.788 46.061C297.84 46.061 298.005 36.557 298.005 34.214C298.005 31.937 297.84 22.334 289.788 22.334C286.719 22.334 284.508 23.72 283.122 26.558C282.165 28.472 281.868 30.65 281.835 32.036H279.162ZM289.788 42.596C286.455 42.596 286.257 36.986 286.257 34.214C286.257 31.013 286.587 25.799 289.788 25.799C293.121 25.799 293.319 31.442 293.319 34.214C293.319 36.986 293.121 42.596 289.788 42.596ZM89.3433 76.936H84.7233V58.555C84.7233 58.258 84.6573 57.895 84.0633 57.895H80.8953C80.5983 57.895 80.2353 57.961 80.2353 58.555V79.84C80.2353 80.137 80.3013 80.5 80.8953 80.5H102.279C102.873 80.5 102.939 80.137 102.939 79.84V58.555C102.939 58.258 102.873 57.895 102.279 57.895H99.1113C98.5173 57.895 98.4513 58.258 98.4513 58.555V76.936H93.8313V58.555C93.8313 58.258 93.7653 57.895 93.1713 57.895H90.0033C89.7063 57.895 89.3433 57.961 89.3433 58.555V76.936ZM123.901 69.214C123.901 66.904 123.736 57.334 115.684 57.334C107.632 57.334 107.467 66.805 107.467 69.214C107.467 71.59 107.632 81.061 115.684 81.061C123.736 81.061 123.901 71.59 123.901 69.214ZM115.684 77.497C112.351 77.497 112.153 71.92 112.153 69.214C112.153 66.079 112.516 60.898 115.684 60.898C118.852 60.898 119.215 66.046 119.215 69.214C119.215 71.92 119.017 77.497 115.684 77.497ZM132.242 80.5C132.572 80.5 132.902 80.467 132.902 79.84V70.534H134.321C136.367 70.534 136.631 71.755 136.829 72.745L137.621 76.705C137.819 77.761 137.984 79.081 139.007 79.972C140.162 80.962 142.076 81.061 142.439 81.061C143 81.061 143.066 80.83 143.165 80.566L144.023 78.058C144.089 77.86 144.122 77.497 143.693 77.398L142.835 77.2C141.845 76.969 141.68 76.54 141.383 74.989L140.855 72.217C140.723 71.59 140.294 69.478 137.885 68.719V68.62C139.667 67.993 140.228 66.739 140.459 65.419L140.855 63.076C141.119 61.426 141.548 61.162 142.307 60.964L143.132 60.766C143.429 60.7 143.561 60.403 143.462 60.073L142.769 57.73C142.67 57.4 142.406 57.334 142.142 57.334C141.482 57.334 140.294 57.565 139.337 58.159C137.852 59.05 137.555 60.337 137.324 61.69L136.829 64.495C136.466 66.508 135.608 66.97 134.024 66.97H132.902V58.555C132.902 57.928 132.572 57.895 132.242 57.895H129.074C128.744 57.895 128.414 57.928 128.414 58.555V79.84C128.414 80.467 128.744 80.5 129.074 80.5H132.242ZM162.412 69.214C162.412 66.904 162.247 57.334 154.195 57.334C146.143 57.334 145.978 66.805 145.978 69.214C145.978 71.59 146.143 81.061 154.195 81.061C162.247 81.061 162.412 71.59 162.412 69.214ZM154.195 77.497C150.862 77.497 150.664 71.92 150.664 69.214C150.664 66.079 151.027 60.898 154.195 60.898C157.363 60.898 157.726 66.046 157.726 69.214C157.726 71.92 157.528 77.497 154.195 77.497ZM172.469 61.855H175.802V79.84C175.802 80.104 175.802 80.5 176.495 80.5H179.63C179.96 80.5 180.29 80.467 180.29 79.84V58.555C180.29 57.928 179.96 57.895 179.63 57.895H169.037C168.41 57.895 168.377 58.225 168.377 58.555L168.344 63.736C168.344 65.947 168.146 69.874 167.948 71.986C167.618 75.22 166.958 76.804 164.615 77.068L164.021 77.134C163.691 77.167 163.592 77.464 163.691 77.794L164.516 80.764C164.615 81.127 164.912 81.094 165.11 81.061L165.638 80.995C166.199 80.929 167.486 80.731 168.641 80.038C171.446 78.388 171.842 75.583 172.106 72.052C172.205 70.831 172.403 67.366 172.436 64.957L172.469 61.855ZM191.015 57.895C190.586 57.895 190.553 58.093 190.454 58.39L183.887 79.84C183.821 80.038 183.689 80.5 184.382 80.5H187.913C188.342 80.5 188.375 80.335 188.507 79.807L189.86 74.461H195.536L196.988 79.807C197.186 80.467 197.285 80.5 197.681 80.5H201.344C201.509 80.5 201.872 80.467 201.872 80.104C201.872 79.939 201.806 79.84 201.773 79.708L195.305 58.423C195.206 58.093 195.14 57.895 194.81 57.895H191.015ZM194.711 71.491H190.355L191.807 65.815C192.401 63.538 192.5 62.317 192.533 61.426H192.632C192.896 63.703 193.127 64.825 193.358 65.815L194.711 71.491ZM216.689 80.5V85.186C216.689 85.483 216.755 85.846 217.349 85.846H220.22C220.814 85.846 220.88 85.483 220.88 85.186V77.596C220.88 77.299 220.814 76.936 220.22 76.936H218.9V58.555C218.9 58.258 218.834 57.895 218.24 57.895H207.449C206.855 57.895 206.789 58.258 206.789 58.555L206.756 64.924C206.756 65.518 206.723 68.554 206.261 71.392C205.931 73.405 205.469 75.055 204.413 76.936H203.786C203.192 76.936 203.126 77.299 203.126 77.596V85.186C203.126 85.483 203.192 85.846 203.786 85.846H206.657C206.954 85.846 207.317 85.78 207.317 85.186V80.5H216.689ZM214.412 76.936H208.802C209.462 75.616 209.924 74.263 210.254 72.745C210.584 71.293 210.881 69.082 210.947 65.584L211.013 61.459H214.412V76.936ZM228.793 80.5C229.123 80.5 229.453 80.467 229.453 79.84V70.534H230.872C232.918 70.534 233.182 71.755 233.38 72.745L234.172 76.705C234.37 77.761 234.535 79.081 235.558 79.972C236.713 80.962 238.627 81.061 238.99 81.061C239.551 81.061 239.617 80.83 239.716 80.566L240.574 78.058C240.64 77.86 240.673 77.497 240.244 77.398L239.386 77.2C238.396 76.969 238.231 76.54 237.934 74.989L237.406 72.217C237.274 71.59 236.845 69.478 234.436 68.719V68.62C236.218 67.993 236.779 66.739 237.01 65.419L237.406 63.076C237.67 61.426 238.099 61.162 238.858 60.964L239.683 60.766C239.98 60.7 240.112 60.403 240.013 60.073L239.32 57.73C239.221 57.4 238.957 57.334 238.693 57.334C238.033 57.334 236.845 57.565 235.888 58.159C234.403 59.05 234.106 60.337 233.875 61.69L233.38 64.495C233.017 66.508 232.159 66.97 230.575 66.97H229.453V58.555C229.453 57.928 229.123 57.895 228.793 57.895H225.625C225.295 57.895 224.965 57.928 224.965 58.555V79.84C224.965 80.467 225.295 80.5 225.625 80.5H228.793ZM249.822 74.131L249.525 75.22C249.36 75.847 248.832 77.497 246.951 77.497C246.324 77.497 245.664 77.266 244.872 76.804C244.641 76.672 244.476 76.573 244.344 76.573C244.245 76.573 244.08 76.639 244.014 76.804L242.991 79.279C242.859 79.576 242.826 79.807 243.783 80.236C245.07 80.797 246.291 81.061 247.479 81.061C249.228 81.061 250.383 80.533 251.109 79.906C252.099 79.048 252.66 77.596 252.957 76.54L258.039 58.918C258.138 58.522 258.171 58.423 258.171 58.357C258.171 57.994 257.742 57.994 257.478 57.961L254.442 57.598C253.881 57.532 253.815 57.928 253.716 58.324L251.67 66.178C251.307 67.531 251.076 68.455 250.515 70.897H250.383C249.789 68.851 249.492 67.729 248.997 66.178L246.456 58.258C246.258 57.664 246.324 57.532 245.367 57.631L242.397 57.895C241.737 57.961 241.44 58.027 241.44 58.291C241.44 58.423 241.506 58.555 241.605 58.852L247.248 73.834C247.314 73.999 247.347 74.131 247.644 74.131H249.822Z" fill="#FCE7A7"/>
</g>
<rect x="3" y="3" width="330" height="96" rx="48" stroke="url(#paint1_linear_672_5845)" stroke-width="5" stroke-linecap="round" stroke-linejoin="round" stroke-dasharray="1 12"/>
</g>
<defs>
<filter id="filter0_i_672_5845" x="0.5" y="0.5" width="337" height="106" filterUnits="userSpaceOnUse" color-interpolation-filters="sRGB">
<feFlood flood-opacity="0" result="BackgroundImageFix"/>
<feBlend mode="normal" in="SourceGraphic" in2="BackgroundImageFix" result="shape"/>
<feColorMatrix in="SourceAlpha" type="matrix" values="0 0 0 0 0 0 0 0 0 0 0 0 0 0 0 0 0 0 127 0" result="hardAlpha"/>
<feOffset dx="2" dy="5"/>
<feGaussianBlur stdDeviation="3"/>
<feComposite in2="hardAlpha" operator="arithmetic" k2="-1" k3="1"/>
<feColorMatrix type="matrix" values="0 0 0 0 1 0 0 0 0 0.961831 0 0 0 0 0.779167 0 0 0 1 0"/>
<feBlend mode="normal" in2="shape" result="effect1_innerShadow_672_5845"/>
</filter>
<filter id="filter1_d_672_5845" x="38.3555" y="22.334" width="260.648" height="66.512" filterUnits="userSpaceOnUse" color-interpolation-filters="sRGB">
<feFlood flood-opacity="0" result="BackgroundImageFix"/>
<feColorMatrix in="SourceAlpha" type="matrix" values="0 0 0 0 0 0 0 0 0 0 0 0 0 0 0 0 0 0 127 0" result="hardAlpha"/>
<feOffset dy="2"/>
<feGaussianBlur stdDeviation="0.5"/>
<feComposite in2="hardAlpha" operator="out"/>
<feColorMatrix type="matrix" values="0 0 0 0 0 0 0 0 0 0 0 0 0 0 0 0 0 0 0.1 0"/>
<feBlend mode="normal" in2="BackgroundImageFix" result="effect1_dropShadow_672_5845"/>
<feBlend mode="normal" in="SourceGraphic" in2="effect1_dropShadow_672_5845" result="shape"/>
</filter>
<linearGradient id="paint0_linear_672_5845" x1="1.85018" y1="50.1273" x2="333" y2="50.1273" gradientUnits="userSpaceOnUse">
<stop stop-color="#4A0008"/>
<stop offset="0.270733" stop-color="#790207"/>
<stop offset="0.518223" stop-color="#BF0604"/>
<stop offset="0.739583" stop-color="#7E0307"/>
<stop offset="1" stop-color="#4A0008"/>
</linearGradient>
<linearGradient id="paint1_linear_672_5845" x1="168" y1="3" x2="168" y2="99" gradientUnits="userSpaceOnUse">
<stop stop-color="#FFEB5E"/>
<stop offset="1" stop-color="#F9F3C9"/>
</linearGradient>
</defs>
</svg>
