<svg width="30" height="30" viewBox="0 0 30 30" fill="none" xmlns="http://www.w3.org/2000/svg">
<circle cx="15" cy="15" r="14" stroke="#72040D" stroke-width="2"/>
<path d="M15.2 16.925C15.8 16.925 15.725 16.65 15.725 16.4V14.7C19.075 13.875 19.775 11.475 19.775 9.92498C19.775 7.59998 18.075 5.44998 14.875 5.44998C13.75 5.44998 12.075 5.82498 11.075 6.19998C10.725 6.32498 10.225 6.54998 10.225 6.97498C10.225 7.04998 10.25 7.14998 10.275 7.19998L10.925 8.89998C11 9.09998 11.125 9.14998 11.225 9.14998C11.325 9.14998 11.45 9.07498 11.675 8.97498C12.475 8.62498 13.55 8.32498 14.425 8.32498C16.35 8.32498 16.4 9.82498 16.4 10.125C16.4 11.5 15.425 12.025 14.625 12.275L14.075 12.45C13.5 12.625 12.85 12.725 12.85 13.275V16.4C12.85 16.65 12.775 16.925 13.375 16.925H15.2ZM16.475 21.325C16.475 20.125 15.575 19.2 14.375 19.2C13.175 19.2 12.25 20.1 12.25 21.325C12.25 22.675 13.4 23.425 14.375 23.425C15.275 23.425 16.475 22.7 16.475 21.325Z" fill="#72040D"/>
</svg>
