<svg width="30" height="30" viewBox="0 0 30 30" fill="none" xmlns="http://www.w3.org/2000/svg">
<circle cx="15" cy="15" r="14" stroke="#FEDEA1" stroke-width="2"/>
<path d="M15.2 16.925C15.8 16.925 15.725 16.65 15.725 16.4V14.7C19.075 13.875 19.775 11.475 19.775 9.925C19.775 7.6 18.075 5.45 14.875 5.45C13.75 5.45 12.075 5.825 11.075 6.2C10.725 6.325 10.225 6.55 10.225 6.975C10.225 7.05 10.25 7.15 10.275 7.2L10.925 8.9C11 9.1 11.125 9.15 11.225 9.15C11.325 9.15 11.45 9.075 11.675 8.975C12.475 8.625 13.55 8.325 14.425 8.325C16.35 8.325 16.4 9.825 16.4 10.125C16.4 11.5 15.425 12.025 14.625 12.275L14.075 12.45C13.5 12.625 12.85 12.725 12.85 13.275V16.4C12.85 16.65 12.775 16.925 13.375 16.925H15.2ZM16.475 21.325C16.475 20.125 15.575 19.2 14.375 19.2C13.175 19.2 12.25 20.1 12.25 21.325C12.25 22.675 13.4 23.425 14.375 23.425C15.275 23.425 16.475 22.7 16.475 21.325Z" fill="#FEDEA1"/>
</svg>
