<svg width="237" height="48" viewBox="0 0 237 48" fill="none" xmlns="http://www.w3.org/2000/svg">
<g filter="url(#filter0_d_1008_9286)">
<rect x="188.1" y="0.472656" width="27.8066" height="39.3128" rx="2.87654" fill="url(#paint0_linear_1008_9286)"/>
<rect x="112.35" y="0.472656" width="27.8066" height="39.3128" rx="2.87654" fill="url(#paint1_linear_1008_9286)"/>
<rect x="36.6016" y="0.472656" width="27.8066" height="39.3128" rx="2.87654" fill="url(#paint2_linear_1008_9286)"/>
<rect x="155.498" y="0.472656" width="27.8066" height="39.3128" rx="2.87654" fill="url(#paint3_linear_1008_9286)"/>
<rect x="79.748" y="0.472656" width="27.8066" height="39.3128" rx="2.87654" fill="url(#paint4_linear_1008_9286)"/>
<rect x="4" y="0.472656" width="27.8066" height="39.3128" rx="2.87654" fill="url(#paint5_linear_1008_9286)"/>
<path d="M223.821 37.8395C223.786 37.782 223.763 37.7245 223.671 37.7245C223.591 37.7245 223.499 37.7935 223.384 37.8625C223.073 38.0466 222.762 38.1502 222.44 38.1502C221.911 38.1502 221.6 37.8971 221.428 37.6669C221.013 37.1031 220.979 35.7914 220.979 35.2852C220.979 33.7664 221.129 33.0875 221.474 32.7308C221.692 32.5007 222.014 32.3626 222.406 32.3626C222.774 32.3626 223.062 32.5352 223.361 32.7768C223.418 32.8228 223.522 32.9034 223.602 32.9034C223.671 32.9034 223.694 32.8459 223.729 32.7883L224.155 32.144C224.178 32.098 224.212 32.0519 224.212 31.9944C224.212 31.9254 224.155 31.8333 223.994 31.6952C223.533 31.2925 222.831 31.1199 222.268 31.1199C221.048 31.1199 219.345 31.8103 219.345 35.3657C219.345 36.9996 219.679 39.3929 222.302 39.3929C222.993 39.3929 223.694 39.1858 224.097 38.8521C224.143 38.8176 224.235 38.737 224.235 38.6565C224.235 38.6105 224.224 38.5644 224.178 38.4839L223.821 37.8395ZM227.263 38.2998C227.263 37.7015 226.757 37.2067 226.17 37.2067C225.583 37.2067 225.077 37.7015 225.077 38.2998C225.077 38.8981 225.583 39.3929 226.17 39.3929C226.757 39.3929 227.263 38.8981 227.263 38.2998Z" fill="#FCE7A7"/>
<path d="M146.381 37.2642C146.416 37.3678 146.405 37.4598 146.589 37.4598H147.406C147.567 37.4598 147.567 37.3678 147.601 37.2642L148.303 35.0205C148.476 34.4682 148.579 33.9159 148.706 33.2141H148.74C148.74 33.5247 148.74 33.8239 148.74 34.1345C148.74 34.2266 148.74 34.3071 148.74 34.3992C148.74 34.7214 148.74 34.8019 148.752 35.055L148.844 38.9556C148.844 39.1167 148.878 39.1973 149.016 39.1973H150.167C150.259 39.1973 150.351 39.1627 150.34 38.9556L150.017 31.6837C150.006 31.3385 149.937 31.3155 149.776 31.3155H148.602C148.453 31.3155 148.43 31.3961 148.395 31.4996L147.417 34.3992C147.244 34.917 147.118 35.2391 147.049 35.7799H147.026C146.991 35.5383 146.807 34.8134 146.681 34.3992L145.749 31.4996C145.691 31.3155 145.657 31.3155 145.553 31.3155H144.333C144.207 31.3155 144.161 31.3616 144.149 31.5572L143.827 38.9556C143.816 39.1512 143.896 39.1973 144.011 39.1973H144.966C145.127 39.1973 145.15 39.1052 145.15 38.9556L145.254 35.5613C145.265 35.2161 145.265 34.7904 145.277 33.2141H145.311C145.461 34.1115 145.657 34.8134 145.714 35.0205L146.381 37.2642ZM153.919 38.2998C153.919 37.7015 153.413 37.2067 152.826 37.2067C152.24 37.2067 151.733 37.7015 151.733 38.2998C151.733 38.8981 152.24 39.3929 152.826 39.3929C153.413 39.3929 153.919 38.8981 153.919 38.2998Z" fill="#FCE7A7"/>
<path d="M71.6671 38.9671C71.6671 39.0707 71.6901 39.1973 71.8972 39.1973H73.0018C73.2089 39.1973 73.2319 39.0707 73.2319 38.9671V31.5457C73.2319 31.4421 73.2089 31.3155 73.0018 31.3155H71.8972C71.7936 31.3155 71.6671 31.3385 71.6671 31.5457V34.7789C71.2183 35.009 70.8386 35.055 70.5395 35.055C70.2863 35.055 69.9756 35.009 69.7685 34.8019C69.5384 34.5718 69.5384 34.2841 69.5384 34.054V31.5457C69.5384 31.4421 69.5154 31.3155 69.3083 31.3155H68.2037C68.1001 31.3155 67.9736 31.3385 67.9736 31.5457V34.3302C67.9736 34.7329 68.0311 35.3312 68.5489 35.7914C68.9286 36.1251 69.5039 36.2977 70.1482 36.2977C70.574 36.2977 71.0687 36.2287 71.6671 35.987V38.9671ZM77.0571 38.2998C77.0571 37.7015 76.5508 37.2067 75.964 37.2067C75.3772 37.2067 74.8709 37.7015 74.8709 38.2998C74.8709 38.8981 75.3772 39.3929 75.964 39.3929C76.5508 39.3929 77.0571 38.8981 77.0571 38.2998Z" fill="#FCE7A7"/>
</g>
<defs>
<filter id="filter0_d_1008_9286" x="0" y="0.472656" width="231.264" height="47.3125" filterUnits="userSpaceOnUse" color-interpolation-filters="sRGB">
<feFlood flood-opacity="0" result="BackgroundImageFix"/>
<feColorMatrix in="SourceAlpha" type="matrix" values="0 0 0 0 0 0 0 0 0 0 0 0 0 0 0 0 0 0 127 0" result="hardAlpha"/>
<feOffset dy="4"/>
<feGaussianBlur stdDeviation="2"/>
<feComposite in2="hardAlpha" operator="out"/>
<feColorMatrix type="matrix" values="0 0 0 0 0 0 0 0 0 0 0 0 0 0 0 0 0 0 0.35 0"/>
<feBlend mode="normal" in2="BackgroundImageFix" result="effect1_dropShadow_1008_9286"/>
<feBlend mode="normal" in="SourceGraphic" in2="effect1_dropShadow_1008_9286" result="shape"/>
</filter>
<linearGradient id="paint0_linear_1008_9286" x1="202.003" y1="0.472656" x2="202.003" y2="39.7854" gradientUnits="userSpaceOnUse">
<stop stop-color="#FAEFB8"/>
<stop offset="0.229167" stop-color="#CFAB55"/>
<stop offset="0.526042" stop-color="#FFF9D8"/>
<stop offset="0.776042" stop-color="#D7B86B"/>
<stop offset="1" stop-color="#FFF0A3"/>
</linearGradient>
<linearGradient id="paint1_linear_1008_9286" x1="126.253" y1="0.472656" x2="126.253" y2="39.7854" gradientUnits="userSpaceOnUse">
<stop stop-color="#FAEFB8"/>
<stop offset="0.229167" stop-color="#CFAB55"/>
<stop offset="0.526042" stop-color="#FFF9D8"/>
<stop offset="0.776042" stop-color="#D7B86B"/>
<stop offset="1" stop-color="#FFF0A3"/>
</linearGradient>
<linearGradient id="paint2_linear_1008_9286" x1="50.5049" y1="0.472656" x2="50.5049" y2="39.7854" gradientUnits="userSpaceOnUse">
<stop stop-color="#FAEFB8"/>
<stop offset="0.229167" stop-color="#CFAB55"/>
<stop offset="0.526042" stop-color="#FFF9D8"/>
<stop offset="0.776042" stop-color="#D7B86B"/>
<stop offset="1" stop-color="#FFF0A3"/>
</linearGradient>
<linearGradient id="paint3_linear_1008_9286" x1="169.401" y1="0.472656" x2="169.401" y2="39.7854" gradientUnits="userSpaceOnUse">
<stop stop-color="#FAEFB8"/>
<stop offset="0.229167" stop-color="#CFAB55"/>
<stop offset="0.526042" stop-color="#FFF9D8"/>
<stop offset="0.776042" stop-color="#D7B86B"/>
<stop offset="1" stop-color="#FFF0A3"/>
</linearGradient>
<linearGradient id="paint4_linear_1008_9286" x1="93.6513" y1="0.472656" x2="93.6513" y2="39.7854" gradientUnits="userSpaceOnUse">
<stop stop-color="#FAEFB8"/>
<stop offset="0.229167" stop-color="#CFAB55"/>
<stop offset="0.526042" stop-color="#FFF9D8"/>
<stop offset="0.776042" stop-color="#D7B86B"/>
<stop offset="1" stop-color="#FFF0A3"/>
</linearGradient>
<linearGradient id="paint5_linear_1008_9286" x1="17.9033" y1="0.472656" x2="17.9033" y2="39.7854" gradientUnits="userSpaceOnUse">
<stop stop-color="#FAEFB8"/>
<stop offset="0.229167" stop-color="#CFAB55"/>
<stop offset="0.526042" stop-color="#FFF9D8"/>
<stop offset="0.776042" stop-color="#D7B86B"/>
<stop offset="1" stop-color="#FFF0A3"/>
</linearGradient>
</defs>
</svg>
