<svg width="8" height="10" viewBox="0 0 8 10" fill="none" xmlns="http://www.w3.org/2000/svg">
<path fill-rule="evenodd" clip-rule="evenodd" d="M1.42588 2.1816C1.42588 3.38647 2.3835 4.3632 3.56479 4.3632C4.74608 4.3632 5.70371 3.38647 5.70371 2.1816C5.70371 0.976736 4.74608 0 3.56479 0C2.3835 0 1.42588 0.976736 1.42588 2.1816ZM2.50022 9.49161C2.83645 9.47314 3.19408 9.45349 3.56494 9.45349C3.9358 9.45349 4.29343 9.47314 4.62966 9.49161C6.07845 9.57119 7.12988 9.62895 7.12988 7.99909C7.12988 5.99098 5.5338 5.09029 3.56494 5.09029C1.59608 5.09029 0 5.99098 0 7.99909C0 9.62895 1.05143 9.57119 2.50022 9.49161Z" fill="#FCE7A7"/>
</svg>
