<svg width="12" height="9" viewBox="0 0 12 9" fill="none" xmlns="http://www.w3.org/2000/svg">
<path fill-rule="evenodd" clip-rule="evenodd" d="M0.599609 7.47347C1.43073 7.07232 3.50647 4.96364 3.9154 4.22172C3.49961 3.40661 1.51124 1.38575 0.600982 0.95441L0.599609 7.47347ZM10.8278 0.410088L1.17412 0.400024C1.67407 1.46443 5.18656 5.08074 6.00167 5.06199C6.664 5.04643 10.3444 1.35739 10.8278 0.410088ZM8.07512 4.22172C8.65329 5.2724 10.4633 7.06088 11.3996 7.49268L11.3058 0.95258L8.07512 4.22172ZM4.65504 4.65535C3.92226 5.07525 1.58122 7.39846 1.18876 8.02923L10.8159 8.021C10.2835 6.84407 8.56776 5.65434 7.80891 4.65809C6.34381 5.45079 6.07577 6.63732 4.65504 4.65535Z" fill="#FFE585"/>
</svg>
