<svg width="336" height="103" viewBox="0 0 336 103" fill="none" xmlns="http://www.w3.org/2000/svg">
<g filter="url(#filter0_i_672_5849)">
<rect x="3" y="3" width="330" height="97" rx="48.5" fill="url(#paint0_linear_672_5849)"/>
<g filter="url(#filter1_d_672_5849)">
<path d="M80.6796 43.5C81.0096 43.5 81.3396 43.467 81.3396 42.84V33.534H82.7586C84.8046 33.534 85.0686 34.755 85.2666 35.745L86.0586 39.705C86.2566 40.761 86.4216 42.081 87.4446 42.972C88.5996 43.962 90.5136 44.061 90.8766 44.061C91.4376 44.061 91.5036 43.83 91.6026 43.566L92.4606 41.058C92.5266 40.86 92.5596 40.497 92.1306 40.398L91.2726 40.2C90.2826 39.969 90.1176 39.54 89.8206 37.989L89.2926 35.217C89.1606 34.59 88.7316 32.478 86.3226 31.719V31.62C88.1046 30.993 88.6656 29.739 88.8966 28.419L89.2926 26.076C89.5566 24.426 89.9856 24.162 90.7446 23.964L91.5696 23.766C91.8666 23.7 91.9986 23.403 91.8996 23.073L91.2066 20.73C91.1076 20.4 90.8436 20.334 90.5796 20.334C89.9196 20.334 88.7316 20.565 87.7746 21.159C86.2896 22.05 85.9926 23.337 85.7616 24.69L85.2666 27.495C84.9036 29.508 84.0456 29.97 82.4616 29.97H81.3396V21.555C81.3396 20.928 81.0096 20.895 80.6796 20.895H77.5116C77.1816 20.895 76.8516 20.928 76.8516 21.555V42.84C76.8516 43.467 77.1816 43.5 77.5116 43.5H80.6796ZM100.62 20.895C100.191 20.895 100.158 21.093 100.059 21.39L93.4915 42.84C93.4255 43.038 93.2935 43.5 93.9865 43.5H97.5175C97.9465 43.5 97.9795 43.335 98.1115 42.807L99.4645 37.461H105.141L106.593 42.807C106.791 43.467 106.89 43.5 107.286 43.5H110.949C111.114 43.5 111.477 43.467 111.477 43.104C111.477 42.939 111.411 42.84 111.378 42.708L104.91 21.423C104.811 21.093 104.745 20.895 104.415 20.895H100.62ZM104.316 34.491H99.9595L101.412 28.815C102.006 26.538 102.105 25.317 102.138 24.426H102.237C102.501 26.703 102.732 27.825 102.963 28.815L104.316 34.491ZM119.496 24.36H120.948C122.202 24.36 124.314 24.393 124.314 27.429C124.314 30.63 122.433 30.894 120.519 30.894H119.496V24.36ZM119.496 34.458H121.245C125.931 34.458 128.802 31.554 128.802 27.198C128.802 23.997 127.383 22.512 126.129 21.819C124.611 20.961 122.565 20.895 121.08 20.895H115.668C115.371 20.895 115.008 20.961 115.008 21.555V42.84C115.008 43.137 115.074 43.5 115.668 43.5H118.836C119.43 43.5 119.496 43.137 119.496 42.84V34.458ZM139.839 24.855H143.997C144.261 24.855 144.558 24.789 144.69 24.327L145.416 21.588C145.482 21.357 145.647 20.895 144.987 20.895H130.962C130.467 20.895 130.467 21.258 130.467 21.39V24.36C130.467 24.492 130.467 24.855 130.962 24.855H135.351V42.84C135.351 43.137 135.417 43.5 136.011 43.5H139.179C139.476 43.5 139.839 43.434 139.839 42.84V24.855ZM151.183 20.895C150.754 20.895 150.721 21.093 150.622 21.39L144.055 42.84C143.989 43.038 143.857 43.5 144.55 43.5H148.081C148.51 43.5 148.543 43.335 148.675 42.807L150.028 37.461H155.704L157.156 42.807C157.354 43.467 157.453 43.5 157.849 43.5H161.512C161.677 43.5 162.04 43.467 162.04 43.104C162.04 42.939 161.974 42.84 161.941 42.708L155.473 21.423C155.374 21.093 155.308 20.895 154.978 20.895H151.183ZM154.879 34.491H150.523L151.975 28.815C152.569 26.538 152.668 25.317 152.701 24.426H152.8C153.064 26.703 153.295 27.825 153.526 28.815L154.879 34.491ZM178.124 20.895C177.695 20.895 177.662 21.093 177.563 21.39L170.996 42.84C170.93 43.038 170.798 43.5 171.491 43.5H175.022C175.451 43.5 175.484 43.335 175.616 42.807L176.969 37.461H182.645L184.097 42.807C184.295 43.467 184.394 43.5 184.79 43.5H188.453C188.618 43.5 188.981 43.467 188.981 43.104C188.981 42.939 188.915 42.84 188.882 42.708L182.414 21.423C182.315 21.093 182.249 20.895 181.919 20.895H178.124ZM181.82 34.491H177.464L178.916 28.815C179.51 26.538 179.609 25.317 179.642 24.426H179.741C180.005 26.703 180.236 27.825 180.467 28.815L181.82 34.491ZM197.001 39.54V21.555C197.001 21.258 196.935 20.895 196.341 20.895H193.173C192.876 20.895 192.513 20.961 192.513 21.555V42.84C192.513 43.137 192.579 43.5 193.173 43.5H204.129C204.657 43.5 204.723 43.368 204.855 42.906L205.482 40.398C205.515 40.299 205.548 40.2 205.548 39.969C205.548 39.936 205.548 39.936 205.548 39.903C205.515 39.573 205.185 39.54 205.02 39.54H197.001ZM213.307 34.458H215.056C219.742 34.458 222.613 31.554 222.613 27.198C222.613 23.997 221.194 22.512 219.94 21.819C218.422 20.961 216.376 20.895 214.891 20.895H209.479C209.182 20.895 208.819 20.961 208.819 21.555V42.84C208.819 43.137 208.885 43.5 209.479 43.5H212.647C213.241 43.5 213.307 43.137 213.307 42.84V34.458ZM213.307 24.36H214.759C216.013 24.36 218.125 24.393 218.125 27.429C218.125 30.63 216.244 30.894 214.33 30.894H213.307V24.36ZM231.934 33.501H237.478C237.775 33.501 238.138 33.435 238.138 32.841V30.597C238.138 30.3 238.072 29.937 237.478 29.937H231.934V24.459H238.435C238.93 24.459 239.029 24.129 239.062 23.964L239.722 21.489C239.755 21.357 239.788 21.192 239.689 21.06C239.59 20.928 239.425 20.895 239.293 20.895H228.106C227.809 20.895 227.446 20.961 227.446 21.555V42.84C227.446 43.137 227.512 43.5 228.106 43.5H238.798C239.095 43.5 239.458 43.434 239.458 42.84V40.596C239.458 40.002 239.095 39.936 238.798 39.936H231.934V33.501ZM247.645 30.927C247.645 30.003 247.612 28.155 247.546 27.297H247.612C248.173 29.343 248.899 30.663 249.493 31.785L255.532 43.038C255.631 43.236 255.796 43.5 256.159 43.5H258.667C258.799 43.5 259.162 43.5 259.162 43.005V21.39C259.162 20.895 258.799 20.895 258.667 20.895H255.862C255.73 20.895 255.367 20.895 255.367 21.39V32.049C255.367 33.171 255.433 35.085 255.466 36.339H255.4C255.268 35.943 254.542 33.6 253.453 31.554L248.008 21.324C247.744 20.829 247.645 20.895 247.414 20.895H244.345C243.85 20.895 243.85 21.258 243.85 21.39V43.005C243.85 43.5 244.213 43.5 244.345 43.5H247.15C247.645 43.5 247.645 43.137 247.645 43.005V30.927ZM110.104 73.25V77.969C109.18 78.398 108.421 78.497 107.827 78.497C106.738 78.497 105.781 78.167 105.154 77.606C103.504 76.121 103.339 72.26 103.339 70.61C103.339 68.861 103.57 66.188 104.032 64.802C104.659 62.987 105.781 61.898 107.794 61.898C108.817 61.898 109.774 62.195 110.764 62.723C111.622 63.185 111.853 63.35 112.051 63.35C112.315 63.35 112.381 63.152 112.48 62.987L113.569 60.809C113.701 60.545 113.833 60.314 112.975 59.786C112.414 59.456 110.5 58.334 107.497 58.334C104.725 58.334 102.778 59.291 101.392 60.776C99.8083 62.492 98.6533 65.396 98.6533 70.676C98.6533 74.075 99.2473 76.979 100.897 79.157C102.382 81.104 104.461 82.061 107.53 82.061C110.269 82.061 112.084 81.269 113.008 80.774C113.866 80.312 114.097 80.081 114.097 79.619V70.346C114.097 69.752 113.734 69.686 113.437 69.686H107.596C107.299 69.686 106.936 69.752 106.936 70.346V72.59C106.936 73.184 107.299 73.25 107.596 73.25H110.104ZM134.327 70.214C134.327 67.904 134.162 58.334 126.11 58.334C118.058 58.334 117.893 67.805 117.893 70.214C117.893 72.59 118.058 82.061 126.11 82.061C134.162 82.061 134.327 72.59 134.327 70.214ZM126.11 78.497C122.777 78.497 122.579 72.92 122.579 70.214C122.579 67.079 122.942 61.898 126.11 61.898C129.278 61.898 129.641 67.046 129.641 70.214C129.641 72.92 129.443 78.497 126.11 78.497ZM143.327 77.54V59.555C143.327 59.258 143.261 58.895 142.667 58.895H139.499C139.202 58.895 138.839 58.961 138.839 59.555V80.84C138.839 81.137 138.905 81.5 139.499 81.5H150.455C150.983 81.5 151.049 81.368 151.181 80.906L151.808 78.398C151.841 78.299 151.874 78.2 151.874 77.969C151.874 77.936 151.874 77.936 151.874 77.903C151.841 77.573 151.511 77.54 151.346 77.54H143.327ZM155.806 58.895C155.179 58.895 155.146 59.291 155.146 59.588V80.774C155.146 80.939 155.146 81.5 155.806 81.5H162.241C163.924 81.5 166.531 81.236 168.379 79.025C169.963 77.111 170.59 74.141 170.59 70.247C170.59 66.848 170.128 63.416 168.379 61.337C166.498 59.093 163.924 58.895 162.241 58.895H155.806ZM159.634 62.459H161.977C163.033 62.459 164.518 62.954 165.211 65C165.706 66.452 165.904 68.63 165.904 70.181C165.904 71.699 165.706 73.91 165.211 75.395C164.518 77.441 163.033 77.936 161.977 77.936H159.634V62.459ZM194.346 77.606C194.247 77.441 194.181 77.276 193.917 77.276C193.686 77.276 193.422 77.474 193.092 77.672C192.201 78.2 191.31 78.497 190.386 78.497C188.868 78.497 187.977 77.771 187.482 77.111C186.294 75.494 186.195 71.732 186.195 70.28C186.195 65.924 186.624 63.977 187.614 62.954C188.241 62.294 189.165 61.898 190.287 61.898C191.343 61.898 192.168 62.393 193.026 63.086C193.191 63.218 193.488 63.449 193.719 63.449C193.917 63.449 193.983 63.284 194.082 63.119L195.303 61.271C195.369 61.139 195.468 61.007 195.468 60.842C195.468 60.644 195.303 60.38 194.841 59.984C193.521 58.829 191.508 58.334 189.891 58.334C186.393 58.334 181.509 60.314 181.509 70.511C181.509 75.197 182.466 82.061 189.99 82.061C191.97 82.061 193.983 81.467 195.138 80.51C195.27 80.411 195.534 80.18 195.534 79.949C195.534 79.817 195.501 79.685 195.369 79.454L194.346 77.606ZM204.217 62.129H205.999C206.329 62.129 206.659 62.096 206.659 61.469V59.555C206.659 58.928 206.329 58.895 205.999 58.895H197.98C197.65 58.895 197.32 58.928 197.32 59.555V61.469C197.32 62.096 197.65 62.129 197.98 62.129H199.762V78.266H197.98C197.65 78.266 197.32 78.299 197.32 78.926V80.84C197.32 81.467 197.65 81.5 197.98 81.5H205.999C206.626 81.5 206.659 81.17 206.659 80.84V78.926C206.659 78.596 206.626 78.266 205.999 78.266H204.217V62.129ZM216.909 62.855H221.067C221.331 62.855 221.628 62.789 221.76 62.327L222.486 59.588C222.552 59.357 222.717 58.895 222.057 58.895H208.032C207.537 58.895 207.537 59.258 207.537 59.39V62.36C207.537 62.492 207.537 62.855 208.032 62.855H212.421V80.84C212.421 81.137 212.487 81.5 213.081 81.5H216.249C216.546 81.5 216.909 81.434 216.909 80.84V62.855ZM232.642 72.227L238.879 60.017C238.978 59.852 239.011 59.753 239.011 59.687C239.011 59.423 238.747 59.324 238.417 59.258L235.612 58.664C235.282 58.598 234.952 58.499 234.721 58.895C234.655 59.027 234.622 59.126 234.556 59.258L232.114 64.406C231.751 65.132 231.454 65.792 230.662 68.267H230.596C230.101 66.386 229.54 65.198 229.276 64.67L226.603 59.027C226.504 58.796 226.471 58.532 225.745 58.631L222.445 59.159C222.082 59.225 221.752 59.258 221.752 59.522C221.752 59.72 221.884 60.05 221.983 60.215L228.187 72.227V80.807C228.187 81.533 228.517 81.5 228.682 81.5H232.18C232.345 81.5 232.642 81.5 232.642 80.807V72.227Z" fill="#FCE7A7"/>
</g>
<rect x="3" y="3" width="330" height="97" rx="48.5" stroke="url(#paint1_linear_672_5849)" stroke-width="5" stroke-linecap="round" stroke-linejoin="round" stroke-dasharray="1 12"/>
</g>
<defs>
<filter id="filter0_i_672_5849" x="0.5" y="0.5" width="337" height="107" filterUnits="userSpaceOnUse" color-interpolation-filters="sRGB">
<feFlood flood-opacity="0" result="BackgroundImageFix"/>
<feBlend mode="normal" in="SourceGraphic" in2="BackgroundImageFix" result="shape"/>
<feColorMatrix in="SourceAlpha" type="matrix" values="0 0 0 0 0 0 0 0 0 0 0 0 0 0 0 0 0 0 127 0" result="hardAlpha"/>
<feOffset dx="2" dy="5"/>
<feGaussianBlur stdDeviation="3"/>
<feComposite in2="hardAlpha" operator="arithmetic" k2="-1" k3="1"/>
<feColorMatrix type="matrix" values="0 0 0 0 1 0 0 0 0 0.961831 0 0 0 0 0.779167 0 0 0 1 0"/>
<feBlend mode="normal" in2="shape" result="effect1_innerShadow_672_5849"/>
</filter>
<filter id="filter1_d_672_5849" x="75.8516" y="20.334" width="184.311" height="64.727" filterUnits="userSpaceOnUse" color-interpolation-filters="sRGB">
<feFlood flood-opacity="0" result="BackgroundImageFix"/>
<feColorMatrix in="SourceAlpha" type="matrix" values="0 0 0 0 0 0 0 0 0 0 0 0 0 0 0 0 0 0 127 0" result="hardAlpha"/>
<feOffset dy="2"/>
<feGaussianBlur stdDeviation="0.5"/>
<feComposite in2="hardAlpha" operator="out"/>
<feColorMatrix type="matrix" values="0 0 0 0 0 0 0 0 0 0 0 0 0 0 0 0 0 0 0.1 0"/>
<feBlend mode="normal" in2="BackgroundImageFix" result="effect1_dropShadow_672_5849"/>
<feBlend mode="normal" in="SourceGraphic" in2="effect1_dropShadow_672_5849" result="shape"/>
</filter>
<linearGradient id="paint0_linear_672_5849" x1="1.85018" y1="50.6182" x2="333" y2="50.6182" gradientUnits="userSpaceOnUse">
<stop stop-color="#4A0008"/>
<stop offset="0.270733" stop-color="#790207"/>
<stop offset="0.518223" stop-color="#BF0604"/>
<stop offset="0.739583" stop-color="#7E0307"/>
<stop offset="1" stop-color="#4A0008"/>
</linearGradient>
<linearGradient id="paint1_linear_672_5849" x1="168" y1="3" x2="168" y2="100" gradientUnits="userSpaceOnUse">
<stop stop-color="#FFEB5E"/>
<stop offset="1" stop-color="#F9F3C9"/>
</linearGradient>
</defs>
</svg>
