<svg width="550" height="87" viewBox="0 0 550 87" fill="none" xmlns="http://www.w3.org/2000/svg">
<g filter="url(#filter0_i_672_5675)">
<rect x="3" y="3" width="544" height="81" rx="40.5" fill="url(#paint0_linear_672_5675)"/>
<g filter="url(#filter1_d_672_5675)">
<path d="M78.5125 58C78.9125 58 79.3125 57.96 79.3125 57.2V45.92H81.0325C83.5125 45.92 83.8325 47.4 84.0725 48.6L85.0325 53.4C85.2725 54.68 85.4725 56.28 86.7125 57.36C88.1125 58.56 90.4325 58.68 90.8725 58.68C91.5525 58.68 91.6325 58.4 91.7525 58.08L92.7925 55.04C92.8725 54.8 92.9125 54.36 92.3925 54.24L91.3525 54C90.1525 53.72 89.9525 53.2 89.5925 51.32L88.9525 47.96C88.7925 47.2 88.2725 44.64 85.3525 43.72V43.6C87.5125 42.84 88.1925 41.32 88.4725 39.72L88.9525 36.88C89.2725 34.88 89.7925 34.56 90.7125 34.32L91.7125 34.08C92.0725 34 92.2325 33.64 92.1125 33.24L91.2725 30.4C91.1525 30 90.8325 29.92 90.5125 29.92C89.7125 29.92 88.2725 30.2 87.1125 30.92C85.3125 32 84.9525 33.56 84.6725 35.2L84.0725 38.6C83.6325 41.04 82.5925 41.6 80.6725 41.6H79.3125V31.4C79.3125 30.64 78.9125 30.6 78.5125 30.6H74.6725C74.2725 30.6 73.8725 30.64 73.8725 31.4V57.2C73.8725 57.96 74.2725 58 74.6725 58H78.5125ZM102.682 30.6C102.162 30.6 102.122 30.84 102.002 31.2L94.0422 57.2C93.9622 57.44 93.8022 58 94.6422 58H98.9222C99.4422 58 99.4822 57.8 99.6422 57.16L101.282 50.68H108.162L109.922 57.16C110.162 57.96 110.282 58 110.762 58H115.202C115.402 58 115.842 57.96 115.842 57.52C115.842 57.32 115.762 57.2 115.722 57.04L107.882 31.24C107.762 30.84 107.682 30.6 107.282 30.6H102.682ZM107.162 47.08H101.882L103.642 40.2C104.362 37.44 104.482 35.96 104.522 34.88H104.642C104.962 37.64 105.242 39 105.522 40.2L107.162 47.08ZM125.563 34.8H127.323C128.843 34.8 131.403 34.84 131.403 38.52C131.403 42.4 129.123 42.72 126.803 42.72H125.563V34.8ZM125.563 47.04H127.683C133.363 47.04 136.843 43.52 136.843 38.24C136.843 34.36 135.123 32.56 133.603 31.72C131.763 30.68 129.283 30.6 127.483 30.6H120.923C120.563 30.6 120.123 30.68 120.123 31.4V57.2C120.123 57.56 120.203 58 120.923 58H124.763C125.483 58 125.563 57.56 125.563 57.2V47.04ZM150.221 35.4H155.261C155.581 35.4 155.941 35.32 156.101 34.76L156.981 31.44C157.061 31.16 157.261 30.6 156.461 30.6H139.461C138.861 30.6 138.861 31.04 138.861 31.2V34.8C138.861 34.96 138.861 35.4 139.461 35.4H144.781V57.2C144.781 57.56 144.861 58 145.581 58H149.421C149.781 58 150.221 57.92 150.221 57.2V35.4ZM163.971 30.6C163.451 30.6 163.411 30.84 163.291 31.2L155.331 57.2C155.251 57.44 155.091 58 155.931 58H160.211C160.731 58 160.771 57.8 160.931 57.16L162.571 50.68H169.451L171.211 57.16C171.451 57.96 171.571 58 172.051 58H176.491C176.691 58 177.131 57.96 177.131 57.52C177.131 57.32 177.051 57.2 177.011 57.04L169.171 31.24C169.051 30.84 168.971 30.6 168.571 30.6H163.971ZM168.451 47.08H163.171L164.931 40.2C165.651 37.44 165.771 35.96 165.811 34.88H165.931C166.251 37.64 166.531 39 166.811 40.2L168.451 47.08ZM196.628 30.6C196.108 30.6 196.068 30.84 195.948 31.2L187.988 57.2C187.908 57.44 187.748 58 188.588 58H192.868C193.388 58 193.428 57.8 193.588 57.16L195.228 50.68H202.108L203.868 57.16C204.108 57.96 204.228 58 204.708 58H209.148C209.348 58 209.787 57.96 209.787 57.52C209.787 57.32 209.708 57.2 209.668 57.04L201.828 31.24C201.708 30.84 201.628 30.6 201.228 30.6H196.628ZM201.108 47.08H195.828L197.588 40.2C198.308 37.44 198.428 35.96 198.468 34.88H198.588C198.908 37.64 199.188 39 199.468 40.2L201.108 47.08ZM219.508 53.2V31.4C219.508 31.04 219.428 30.6 218.708 30.6H214.868C214.508 30.6 214.068 30.68 214.068 31.4V57.2C214.068 57.56 214.148 58 214.868 58H228.148C228.788 58 228.868 57.84 229.028 57.28L229.788 54.24C229.828 54.12 229.868 54 229.868 53.72C229.868 53.68 229.868 53.68 229.868 53.64C229.828 53.24 229.428 53.2 229.228 53.2H219.508ZM239.273 47.04H241.393C247.073 47.04 250.553 43.52 250.553 38.24C250.553 34.36 248.833 32.56 247.313 31.72C245.473 30.68 242.993 30.6 241.193 30.6H234.633C234.273 30.6 233.833 30.68 233.833 31.4V57.2C233.833 57.56 233.913 58 234.633 58H238.473C239.193 58 239.273 57.56 239.273 57.2V47.04ZM239.273 34.8H241.033C242.553 34.8 245.113 34.84 245.113 38.52C245.113 42.4 242.833 42.72 240.513 42.72H239.273V34.8ZM261.852 45.88H268.572C268.932 45.88 269.372 45.8 269.372 45.08V42.36C269.372 42 269.292 41.56 268.572 41.56H261.852V34.92H269.732C270.332 34.92 270.452 34.52 270.492 34.32L271.292 31.32C271.332 31.16 271.372 30.96 271.252 30.8C271.132 30.64 270.932 30.6 270.772 30.6H257.212C256.852 30.6 256.412 30.68 256.412 31.4V57.2C256.412 57.56 256.492 58 257.212 58H270.172C270.532 58 270.972 57.92 270.972 57.2V54.48C270.972 53.76 270.532 53.68 270.172 53.68H261.852V45.88ZM280.894 42.76C280.894 41.64 280.854 39.4 280.774 38.36H280.854C281.534 40.84 282.414 42.44 283.134 43.8L290.454 57.44C290.574 57.68 290.774 58 291.214 58H294.254C294.414 58 294.854 58 294.854 57.4V31.2C294.854 30.6 294.414 30.6 294.254 30.6H290.854C290.694 30.6 290.254 30.6 290.254 31.2V44.12C290.254 45.48 290.334 47.8 290.374 49.32H290.294C290.134 48.84 289.254 46 287.934 43.52L281.334 31.12C281.014 30.52 280.894 30.6 280.614 30.6H276.894C276.294 30.6 276.294 31.04 276.294 31.2V57.4C276.294 58 276.734 58 276.894 58H280.294C280.894 58 280.894 57.56 280.894 57.4V42.76ZM323.534 48V53.72C322.414 54.24 321.494 54.36 320.774 54.36C319.454 54.36 318.294 53.96 317.534 53.28C315.534 51.48 315.334 46.8 315.334 44.8C315.334 42.68 315.614 39.44 316.174 37.76C316.934 35.56 318.294 34.24 320.734 34.24C321.974 34.24 323.134 34.6 324.334 35.24C325.374 35.8 325.654 36 325.894 36C326.214 36 326.294 35.76 326.414 35.56L327.734 32.92C327.894 32.6 328.054 32.32 327.014 31.68C326.334 31.28 324.014 29.92 320.374 29.92C317.014 29.92 314.654 31.08 312.974 32.88C311.054 34.96 309.654 38.48 309.654 44.88C309.654 49 310.374 52.52 312.374 55.16C314.174 57.52 316.694 58.68 320.414 58.68C323.734 58.68 325.934 57.72 327.054 57.12C328.094 56.56 328.374 56.28 328.374 55.72V44.48C328.374 43.76 327.934 43.68 327.574 43.68H320.494C320.134 43.68 319.694 43.76 319.694 44.48V47.2C319.694 47.92 320.134 48 320.494 48H323.534ZM352.895 44.32C352.895 41.52 352.695 29.92 342.935 29.92C333.175 29.92 332.975 41.4 332.975 44.32C332.975 47.2 333.175 58.68 342.935 58.68C352.695 58.68 352.895 47.2 352.895 44.32ZM342.935 54.36C338.895 54.36 338.655 47.6 338.655 44.32C338.655 40.52 339.095 34.24 342.935 34.24C346.775 34.24 347.215 40.48 347.215 44.32C347.215 47.6 346.975 54.36 342.935 54.36ZM363.805 53.2V31.4C363.805 31.04 363.725 30.6 363.005 30.6H359.165C358.805 30.6 358.365 30.68 358.365 31.4V57.2C358.365 57.56 358.445 58 359.165 58H372.445C373.085 58 373.165 57.84 373.325 57.28L374.085 54.24C374.125 54.12 374.165 54 374.165 53.72C374.165 53.68 374.165 53.68 374.165 53.64C374.125 53.24 373.725 53.2 373.525 53.2H363.805ZM378.93 30.6C378.17 30.6 378.13 31.08 378.13 31.44V57.12C378.13 57.32 378.13 58 378.93 58H386.73C388.77 58 391.93 57.68 394.17 55C396.09 52.68 396.85 49.08 396.85 44.36C396.85 40.24 396.29 36.08 394.17 33.56C391.89 30.84 388.77 30.6 386.73 30.6H378.93ZM383.57 34.92H386.41C387.69 34.92 389.49 35.52 390.33 38C390.93 39.76 391.17 42.4 391.17 44.28C391.17 46.12 390.93 48.8 390.33 50.6C389.49 53.08 387.69 53.68 386.41 53.68H383.57V34.92ZM425.645 53.28C425.525 53.08 425.445 52.88 425.125 52.88C424.845 52.88 424.525 53.12 424.125 53.36C423.045 54 421.965 54.36 420.845 54.36C419.005 54.36 417.925 53.48 417.325 52.68C415.885 50.72 415.765 46.16 415.765 44.4C415.765 39.12 416.285 36.76 417.485 35.52C418.245 34.72 419.365 34.24 420.725 34.24C422.005 34.24 423.005 34.84 424.045 35.68C424.245 35.84 424.605 36.12 424.885 36.12C425.125 36.12 425.205 35.92 425.325 35.72L426.805 33.48C426.885 33.32 427.005 33.16 427.005 32.96C427.005 32.72 426.805 32.4 426.245 31.92C424.645 30.52 422.205 29.92 420.245 29.92C416.005 29.92 410.085 32.32 410.085 44.68C410.085 50.36 411.245 58.68 420.365 58.68C422.765 58.68 425.205 57.96 426.605 56.8C426.765 56.68 427.085 56.4 427.085 56.12C427.085 55.96 427.045 55.8 426.885 55.52L425.645 53.28ZM437.611 34.52H439.771C440.171 34.52 440.571 34.48 440.571 33.72V31.4C440.571 30.64 440.171 30.6 439.771 30.6H430.051C429.651 30.6 429.251 30.64 429.251 31.4V33.72C429.251 34.48 429.651 34.52 430.051 34.52H432.211V54.08H430.051C429.651 54.08 429.251 54.12 429.251 54.88V57.2C429.251 57.96 429.651 58 430.051 58H439.771C440.531 58 440.571 57.6 440.571 57.2V54.88C440.571 54.48 440.531 54.08 439.771 54.08H437.611V34.52ZM452.994 35.4H458.034C458.354 35.4 458.714 35.32 458.874 34.76L459.754 31.44C459.834 31.16 460.034 30.6 459.234 30.6H442.234C441.634 30.6 441.634 31.04 441.634 31.2V34.8C441.634 34.96 441.634 35.4 442.234 35.4H447.554V57.2C447.554 57.56 447.634 58 448.354 58H452.194C452.554 58 452.994 57.92 452.994 57.2V35.4ZM472.065 46.76L479.625 31.96C479.745 31.76 479.785 31.64 479.785 31.56C479.785 31.24 479.465 31.12 479.065 31.04L475.665 30.32C475.265 30.24 474.865 30.12 474.585 30.6C474.505 30.76 474.465 30.88 474.385 31.04L471.425 37.28C470.985 38.16 470.625 38.96 469.665 41.96H469.585C468.985 39.68 468.305 38.24 467.985 37.6L464.745 30.76C464.625 30.48 464.585 30.16 463.705 30.28L459.705 30.92C459.265 31 458.865 31.04 458.865 31.36C458.865 31.6 459.025 32 459.145 32.2L466.665 46.76V57.16C466.665 58.04 467.065 58 467.265 58H471.505C471.705 58 472.065 58 472.065 57.16V46.76Z" fill="#FCE7A7"/>
</g>
<rect x="3" y="3" width="544" height="81" rx="40.5" stroke="url(#paint1_linear_672_5675)" stroke-width="5" stroke-linecap="round" stroke-linejoin="round" stroke-dasharray="1 12"/>
</g>
<defs>
<filter id="filter0_i_672_5675" x="0.5" y="0.5" width="551" height="91" filterUnits="userSpaceOnUse" color-interpolation-filters="sRGB">
<feFlood flood-opacity="0" result="BackgroundImageFix"/>
<feBlend mode="normal" in="SourceGraphic" in2="BackgroundImageFix" result="shape"/>
<feColorMatrix in="SourceAlpha" type="matrix" values="0 0 0 0 0 0 0 0 0 0 0 0 0 0 0 0 0 0 127 0" result="hardAlpha"/>
<feOffset dx="2" dy="5"/>
<feGaussianBlur stdDeviation="3"/>
<feComposite in2="hardAlpha" operator="arithmetic" k2="-1" k3="1"/>
<feColorMatrix type="matrix" values="0 0 0 0 1 0 0 0 0 0.961831 0 0 0 0 0.779167 0 0 0 1 0"/>
<feBlend mode="normal" in2="shape" result="effect1_innerShadow_672_5675"/>
</filter>
<filter id="filter1_d_672_5675" x="72.873" y="29.92" width="407.912" height="31.76" filterUnits="userSpaceOnUse" color-interpolation-filters="sRGB">
<feFlood flood-opacity="0" result="BackgroundImageFix"/>
<feColorMatrix in="SourceAlpha" type="matrix" values="0 0 0 0 0 0 0 0 0 0 0 0 0 0 0 0 0 0 127 0" result="hardAlpha"/>
<feOffset dy="2"/>
<feGaussianBlur stdDeviation="0.5"/>
<feComposite in2="hardAlpha" operator="out"/>
<feColorMatrix type="matrix" values="0 0 0 0 0 0 0 0 0 0 0 0 0 0 0 0 0 0 0.1 0"/>
<feBlend mode="normal" in2="BackgroundImageFix" result="effect1_dropShadow_672_5675"/>
<feBlend mode="normal" in="SourceGraphic" in2="effect1_dropShadow_672_5675" result="shape"/>
</filter>
<linearGradient id="paint0_linear_672_5675" x1="1.10454" y1="42.7637" x2="547" y2="42.7636" gradientUnits="userSpaceOnUse">
<stop stop-color="#4A0008"/>
<stop offset="0.270733" stop-color="#790207"/>
<stop offset="0.518223" stop-color="#BF0604"/>
<stop offset="0.739583" stop-color="#7E0307"/>
<stop offset="1" stop-color="#4A0008"/>
</linearGradient>
<linearGradient id="paint1_linear_672_5675" x1="275" y1="3" x2="275" y2="84" gradientUnits="userSpaceOnUse">
<stop stop-color="#FFEB5E"/>
<stop offset="1" stop-color="#F9F3C9"/>
</linearGradient>
</defs>
</svg>
