<svg width="116" height="115" viewBox="0 0 116 115" fill="none" xmlns="http://www.w3.org/2000/svg">
<g clip-path="url(#clip0_1008_6798)">
<path d="M104.613 28.8012C102.146 30.3208 99.2335 30.9683 96.3485 30.6384C93.4635 30.3085 90.7758 29.0206 88.7223 26.984C86.6687 24.9474 85.3701 22.2819 85.0375 19.4207C84.7048 16.5595 85.3577 13.6708 86.89 11.2241L78.2667 2.67199C76.4791 0.900568 74.0555 -0.0944824 71.5285 -0.0944824C69.0014 -0.0944824 66.5778 0.900568 64.7902 2.67199L53.4803 13.8886C54.1986 14.601 54.6021 15.5672 54.6021 16.5746C54.6021 17.582 54.1986 18.5482 53.4803 19.2606C52.762 19.9729 51.7878 20.3731 50.772 20.3731C49.7561 20.3731 48.7819 19.9729 48.0637 19.2606L2.65066 64.299C0.885423 66.0828 -0.103516 68.4824 -0.103516 70.9817C-0.103516 73.4811 0.885423 75.8807 2.65066 77.6645L11.2739 86.2166C13.7372 84.6482 16.6672 83.9626 19.5776 84.2736C22.4879 84.5845 25.2035 85.8734 27.2733 87.9262C29.3432 89.979 30.6428 92.6721 30.9563 95.5585C31.2699 98.4448 30.5786 101.351 28.9971 103.794L37.6637 112.346C38.5422 113.227 39.5882 113.926 40.7411 114.403C41.8941 114.881 43.131 115.127 44.3803 115.127C45.6297 115.127 46.8666 114.881 48.0195 114.403C49.1725 113.926 50.2184 113.227 51.097 112.346L96.5533 67.3073C95.8441 66.5989 95.4461 65.6411 95.4461 64.6428C95.4461 63.6446 95.8441 62.6868 96.5533 61.9783C96.901 61.6196 97.3182 61.3342 97.7799 61.1392C98.2415 60.9442 98.7382 60.8437 99.2399 60.8437C99.7417 60.8437 100.238 60.9442 100.7 61.1392C101.162 61.3342 101.579 61.6196 101.927 61.9783L113.236 50.7187C115.023 48.9459 116.026 46.5422 116.026 44.036C116.026 41.5298 115.023 39.1262 113.236 37.3533L104.613 28.8012ZM64.2269 29.9185C64.9412 29.2152 65.9069 28.8205 66.9135 28.8205C67.9201 28.8205 68.8858 29.2152 69.6001 29.9185C70.004 30.256 70.3327 30.6731 70.5655 31.1432C70.7984 31.6133 70.9302 32.1262 70.9527 32.6495C70.9751 33.1728 70.8878 33.695 70.6961 34.183C70.5044 34.671 70.2126 35.1143 69.8392 35.4846C69.4658 35.8549 69.0189 36.1443 68.5268 36.3344C68.0347 36.5245 67.5081 36.6111 66.9805 36.5889C66.4529 36.5666 65.9357 36.4358 65.4617 36.2049C64.9877 35.974 64.5672 35.648 64.2269 35.2475C63.5177 34.5391 63.1197 33.5813 63.1197 32.583C63.1197 31.5847 63.5177 30.627 64.2269 29.9185ZM56.1669 21.9251C56.5146 21.5663 56.9319 21.2809 57.3935 21.0859C57.8552 20.8909 58.3518 20.7905 58.8536 20.7905C59.3553 20.7905 59.8519 20.8909 60.3136 21.0859C60.7753 21.2809 61.1925 21.5663 61.5402 21.9251C62.0763 22.4529 62.4422 23.1267 62.5916 23.861C62.7409 24.5954 62.667 25.3572 62.3792 26.0498C62.0914 26.7425 61.6027 27.3347 60.975 27.7515C60.3473 28.1683 59.6089 28.3907 58.8536 28.3907C58.0982 28.3907 57.3598 28.1683 56.7321 27.7515C56.1045 27.3347 55.6157 26.7425 55.3279 26.0498C55.0401 25.3572 54.9662 24.5954 55.1156 23.861C55.2649 23.1267 55.6309 22.4529 56.1669 21.9251ZM77.7034 43.284C77.1688 43.8095 76.4893 44.1664 75.7505 44.3096C75.0117 44.4528 74.2467 44.376 73.5519 44.0887C72.8571 43.8015 72.2635 43.3168 71.846 42.6956C71.4285 42.0744 71.2057 41.3445 71.2057 40.598C71.2057 39.8514 71.4285 39.1216 71.846 38.5004C72.2635 37.8792 72.8571 37.3944 73.5519 37.1072C74.2467 36.82 75.0117 36.7431 75.7505 36.8864C76.4893 37.0296 77.1688 37.3864 77.7034 37.912C78.4153 38.6277 78.8144 39.5926 78.8144 40.598C78.8144 41.6033 78.4153 42.5682 77.7034 43.284ZM85.7634 51.2774C85.4156 51.6362 84.9984 51.9216 84.5368 52.1166C84.0751 52.3115 83.5785 52.412 83.0767 52.412C82.5749 52.412 82.0783 52.3115 81.6167 52.1166C81.155 51.9216 80.7378 51.6362 80.3901 51.2774C79.7745 50.553 79.4555 49.6259 79.4962 48.6794C79.5368 47.7329 79.9342 46.836 80.6096 46.1662C81.285 45.4963 82.1894 45.1022 83.1437 45.0619C84.0981 45.0216 85.0329 45.338 85.7634 45.9484C86.1251 46.2933 86.4129 46.7071 86.6095 47.1649C86.8061 47.6228 86.9074 48.1153 86.9074 48.6129C86.9074 49.1106 86.8061 49.6031 86.6095 50.0609C86.4129 50.5188 86.1251 50.9325 85.7634 51.2774ZM93.8233 59.3139C93.109 60.0172 92.1432 60.4119 91.1367 60.4119C90.1301 60.4119 89.1643 60.0172 88.45 59.3139C87.7381 58.5981 87.339 57.6332 87.339 56.6279C87.339 55.6225 87.7381 54.6576 88.45 53.9419C88.8057 53.592 89.2273 53.315 89.6909 53.1267C90.1545 52.9384 90.651 52.8425 91.152 52.8445C91.653 52.8465 92.1486 52.9464 92.6107 53.1383C93.0727 53.3303 93.4921 53.6107 93.845 53.9634C94.1978 54.3161 94.4771 54.7343 94.6669 55.1941C94.8568 55.6539 94.9535 56.1462 94.9515 56.6431C94.9494 57.1399 94.8488 57.6315 94.6552 58.0897C94.4616 58.548 94.179 58.964 93.8233 59.3139Z" fill="#FCE7A7"/>
<path d="M61.9984 65.2498C62.1306 65.0413 62.3072 64.7492 62.1195 64.5551C62.0152 64.4473 61.7822 64.379 61.6127 64.3332L51.1938 61.2421L48.8105 51.9174C48.7506 51.726 48.7306 51.6622 48.6889 51.619C48.5012 51.425 48.2421 51.5886 47.9838 51.7099L45.4841 53.0521C45.398 53.0925 45.2249 53.2157 45.1815 53.257C45.0293 53.4017 45.0466 53.5922 45.0866 53.7198C45.1265 53.8474 45.1673 53.9328 45.2073 54.0604L46.7142 58.423C46.9157 58.9765 47.1363 59.6361 47.6906 60.6407L47.6471 60.682C47.1213 60.3541 46.4885 60.0451 45.4098 59.6634L40.7141 58.0018C40.5238 57.9344 40.3551 57.8464 40.1812 58.0118C40.1377 58.0531 40.0725 58.1151 39.9403 58.3236L38.2251 60.8653C38.0712 61.0945 37.8964 61.3021 38.0841 61.4962C38.2093 61.6255 38.4431 61.6516 38.6761 61.7198L48.1067 64.1776L50.6748 74.8583C50.7529 75.198 50.8146 75.3049 50.898 75.3912C51.1066 75.6068 51.4092 75.4019 51.6248 75.2796L54.0629 73.8306C54.2785 73.7083 54.3438 73.6463 54.3655 73.6256C54.5177 73.4809 54.4995 73.3326 54.4604 73.1628C54.4413 73.0568 54.4431 72.9723 54.4023 72.8869L52.7532 67.1692C52.6143 66.6804 52.3737 65.957 52.048 65.2319L52.0914 65.1905C52.7025 65.5202 53.1675 65.6989 54.1193 66.0358L59.5139 67.9021C59.8946 68.0368 60.0224 68.0395 60.065 68.0404C60.2354 68.044 60.4084 67.9208 60.5406 67.7123L61.9984 65.2498Z" fill="#4A020E" fill-opacity="0.5"/>
</g>
<defs>
<clipPath id="clip0_1008_6798">
<rect width="116" height="115" fill="white"/>
</clipPath>
</defs>
</svg>
