<svg width="10" height="13" viewBox="0 0 10 13" fill="none" xmlns="http://www.w3.org/2000/svg">
<path fill-rule="evenodd" clip-rule="evenodd" d="M9.65088 3.07806L9.64167 3.64531C9.64167 3.67251 9.63816 3.67997 9.63684 3.70191C9.63597 3.71989 9.63728 3.74051 9.63728 3.75894C9.63684 3.78614 9.6329 3.79096 9.63202 3.81509C9.63158 3.83527 9.6329 3.85677 9.63246 3.87695C9.63026 3.94319 9.61798 4.04059 9.61798 4.10815L9.60657 4.27617C9.5978 4.33496 9.59254 4.47886 9.5842 4.56089C9.55174 4.87018 9.51971 5.18254 9.47496 5.49095C9.44162 5.7204 9.36792 6.17753 9.30738 6.41926L9.26263 6.62019C9.19507 6.90666 9.11654 7.1984 9.02353 7.47742C8.94369 7.71783 8.85463 7.95429 8.75504 8.18681C8.64186 8.45135 8.48743 8.74879 8.32818 8.97824L7.85833 9.67052C7.84867 9.68543 7.84253 9.69421 7.83288 9.70649L7.26168 10.4764C7.19193 10.5681 7.11603 10.6559 7.04365 10.7453C7.02478 10.769 7.00723 10.7892 6.98837 10.8129C6.9796 10.8234 6.97214 10.8322 6.96249 10.8436C6.95678 10.8502 6.95459 10.852 6.94933 10.8585L6.87738 10.9428C6.85807 10.966 6.83877 10.9844 6.82034 11.0086L6.73611 11.1038C6.72514 11.1161 6.71681 11.1213 6.70628 11.1354L6.55931 11.295C6.54528 11.3082 6.5422 11.3148 6.5308 11.328L6.31803 11.5456C6.31144 11.5517 6.30837 11.553 6.30267 11.5583C6.29741 11.5627 6.30048 11.5605 6.29521 11.5649L5.9074 11.9233C5.80737 12.0229 5.46255 12.2782 5.3555 12.3493L5.2818 12.3984C5.25548 12.4151 5.23398 12.4309 5.20766 12.4467L4.85932 12.6467C4.84353 12.6546 4.83256 12.6616 4.81984 12.6682L4.73649 12.7081C4.56802 12.7928 4.38464 12.8516 4.20565 12.9091C4.1144 12.9384 3.88188 12.9898 3.79546 12.9898H3.14354C3.09835 12.9898 2.91497 12.9367 2.86233 12.9218L2.45696 12.7981C2.40914 12.7823 2.37054 12.7678 2.3236 12.752L2.09942 12.6695C2.08538 12.6643 2.07836 12.6599 2.06651 12.655C2.02177 12.6384 1.98491 12.6235 1.94148 12.605L1.7603 12.5269C1.74055 12.5182 1.71774 12.5085 1.69844 12.4989C1.51462 12.4059 1.3251 12.3181 1.15357 12.2027C1.14128 12.1948 1.13733 12.1905 1.12242 12.1869V12.1725C1.14874 12.1654 1.64272 11.7649 1.73836 11.693C1.94762 11.5355 2.1446 11.3644 2.35431 11.2082L2.97025 10.7239C3.11502 10.6063 3.2655 10.4966 3.40896 10.3786L3.6735 10.1706C3.72834 10.1259 3.88934 9.99648 3.94155 9.96182C3.95383 9.96796 3.95866 9.97235 3.97138 9.97893L4.14555 10.0601C4.17143 10.0702 4.19468 10.0785 4.22188 10.0873C4.44518 10.1619 4.69656 10.1777 4.91943 10.0895L4.98128 10.0614C4.98874 10.0579 4.99401 10.0544 5.00278 10.05C5.13352 9.97761 5.23047 9.87583 5.31646 9.75914C5.32611 9.74641 5.33181 9.73632 5.34146 9.72272L5.55292 9.39106C5.58451 9.33841 5.61302 9.29016 5.64461 9.23664L5.81965 8.92998C5.83457 8.90278 5.84817 8.88216 5.86221 8.85452L5.90608 8.77555C5.97978 8.64745 6.04822 8.51452 6.12017 8.3851C6.19387 8.25393 6.25924 8.12012 6.33294 7.98851C6.3404 7.97447 6.34435 7.96482 6.35181 7.95078L6.49921 7.67308C6.515 7.64676 6.52422 7.62175 6.54001 7.59587L6.60362 7.47523C6.61152 7.45987 6.61679 7.44803 6.62424 7.43399L7.23931 6.23544C7.30643 6.10251 7.43936 5.86385 7.47841 5.74672C7.50912 5.65371 7.53061 5.55062 7.54509 5.45015C7.57185 5.26634 7.55035 5.05225 7.48893 4.88685C7.45208 4.78727 7.40734 4.714 7.34855 4.63504L7.25554 4.53457C7.18623 4.46789 7.11209 4.41437 7.02917 4.36435C6.98705 4.33847 6.94187 4.32048 6.898 4.29723L6.91203 3.85765C6.9116 3.7778 6.91686 3.71463 6.91686 3.63566L6.92125 3.47027C6.92125 3.44263 6.92563 3.43824 6.92651 3.41367C6.92739 3.37682 6.92651 3.33734 6.92607 3.30005L6.93573 3.08289C6.93792 3.04604 6.93221 3.00129 6.93616 2.96575C6.94362 2.89951 6.9502 2.58013 6.94976 2.52091L6.95854 2.30287C6.96205 2.27172 6.95941 2.22302 6.95941 2.19012C6.95898 2.14844 6.96424 2.12168 6.9638 2.07649C6.9638 1.99972 6.96643 1.93216 6.96863 1.85451L6.97345 1.74615C6.97345 1.70228 6.97872 1.67025 6.97828 1.63252L6.98311 1.35394C6.98398 1.33245 6.98793 1.32806 6.98793 1.30218C6.98793 1.26401 6.98486 1.22233 6.99012 1.18636L7.00153 0.739754C7.09936 0.739754 7.19983 0.753354 7.28932 0.763883C7.62099 0.801612 8.01977 0.907779 8.32248 1.05299C8.39267 1.08721 8.46243 1.1188 8.52911 1.15828L8.6752 1.24822C8.73793 1.28989 8.79804 1.33069 8.85682 1.37851C9.00072 1.49609 9.12707 1.62682 9.23894 1.77554C9.33282 1.90057 9.3723 1.98305 9.43987 2.11773C9.54384 2.32436 9.59648 2.556 9.63026 2.7872C9.63377 2.81045 9.63509 2.83414 9.63684 2.85608C9.64342 2.92759 9.65088 3.00041 9.65088 3.07499V3.07806ZM6.56765 0.730103C6.72471 0.730103 6.69356 0.737561 6.69005 0.796347C6.68786 0.840657 6.69005 0.892863 6.69005 0.93805L6.68566 1.42019C6.68566 1.45046 6.68127 1.46099 6.6804 1.486C6.67777 1.57944 6.68347 1.67639 6.68084 1.76984C6.67996 1.79441 6.67557 1.80186 6.67601 1.83082C6.67601 1.88346 6.67908 2.00235 6.67338 2.04096C6.6668 2.08439 6.67119 2.13572 6.67119 2.18047C6.67119 2.20416 6.67162 2.22829 6.67119 2.25154C6.67119 2.27874 6.66636 2.28707 6.66636 2.31735C6.66636 2.36341 6.66636 2.40904 6.66636 2.45466C6.66636 2.50599 6.66197 2.53977 6.66197 2.59154L6.65232 2.93197C6.651 2.95391 6.65232 2.97979 6.65232 3.00261C6.65232 3.02586 6.6532 3.05086 6.65276 3.07368C6.65188 3.09868 6.64749 3.10921 6.64749 3.13948L6.63346 3.6168C6.63389 3.65847 6.62337 3.75762 6.62424 3.81992C6.62424 3.86072 6.61635 3.91336 6.61459 3.95241C6.61108 4.01734 6.60626 4.16035 6.583 4.1994C6.49614 4.33979 6.01883 4.08709 5.91222 3.96996L5.71393 3.74314C5.67313 3.69269 5.67927 3.70103 5.67971 3.64049C5.67971 3.58828 5.68409 3.55494 5.68409 3.50361C5.68409 3.42903 5.6762 3.28777 5.68629 3.22196C5.69638 3.15484 5.68892 3.02147 5.68892 2.94601C5.68892 2.89468 5.69375 2.8609 5.69375 2.8087C5.69375 2.76176 5.69375 2.71438 5.69375 2.66699C5.69375 2.61698 5.69857 2.58013 5.69857 2.53494L5.70296 1.97735C5.70296 1.92514 5.70778 1.89092 5.70778 1.84047C5.70778 1.75097 5.70033 1.6413 5.71129 1.56058C5.73849 1.36184 5.65689 1.30876 5.77666 1.13459C5.9052 0.94814 6.3404 0.730103 6.56765 0.730103ZM3.70552 9.70166C3.69631 9.7157 3.67701 9.72886 3.66297 9.73983L2.5333 10.6361C2.51751 10.6493 2.50522 10.6594 2.48855 10.6716L2.35167 10.7804C2.33544 10.7936 2.32316 10.8037 2.30693 10.816C2.29069 10.8291 2.27578 10.8397 2.25955 10.8537C2.19944 10.9028 2.14066 10.9476 2.08055 10.9959L1.89893 11.1402C1.83575 11.1876 1.77828 11.2367 1.7173 11.2845L1.17243 11.7171C1.10969 11.7658 1.05178 11.8136 0.989927 11.8605C0.960095 11.8838 0.93114 11.9084 0.900869 11.9325C0.884637 11.9452 0.820586 11.9987 0.806108 12.0027L0.738109 11.7965C0.7074 11.7017 0.550781 11.242 0.550781 11.1569V11.1525C0.551659 11.059 0.567013 11.0033 0.614394 10.9226C0.630187 10.8958 0.647297 10.8713 0.666161 10.8471C0.677129 10.8331 0.685464 10.8256 0.696432 10.8112C0.705645 10.8002 0.717928 10.7883 0.729335 10.7778L1.23648 10.3782C1.2492 10.3681 1.26017 10.3584 1.27289 10.3483C1.28605 10.3378 1.29702 10.3308 1.31018 10.3198L1.81733 9.92453C1.84277 9.90435 1.8669 9.88636 1.89191 9.86706C1.94148 9.83021 1.98886 9.79204 2.03931 9.75431C2.18847 9.64288 2.33281 9.52881 2.48987 9.42572C2.5719 9.3722 2.74344 9.2906 2.87417 9.2906C2.94261 9.2906 2.93691 9.29191 3.01632 9.33798L3.70552 9.70166Z" fill="#FFE585"/>
</svg>
