<svg width="336" height="87" viewBox="0 0 336 87" fill="none" xmlns="http://www.w3.org/2000/svg">
<g filter="url(#filter0_i_672_5847)">
<rect x="3" y="3" width="330" height="81" rx="40.5" fill="url(#paint0_linear_672_5847)"/>
<g filter="url(#filter1_d_672_5847)">
<path d="M123.17 36.459H129.11V54.84C129.11 55.137 129.176 55.5 129.77 55.5H132.938C133.235 55.5 133.598 55.434 133.598 54.84V33.555C133.598 33.258 133.532 32.895 132.938 32.895H119.342C119.045 32.895 118.682 32.961 118.682 33.555V54.84C118.682 55.137 118.748 55.5 119.342 55.5H122.51C123.104 55.5 123.17 55.137 123.17 54.84V36.459ZM143.956 36.36H145.408C146.662 36.36 148.774 36.393 148.774 39.429C148.774 42.63 146.893 42.894 144.979 42.894H143.956V36.36ZM143.956 46.458H145.705C150.391 46.458 153.262 43.554 153.262 39.198C153.262 35.997 151.843 34.512 150.589 33.819C149.071 32.961 147.025 32.895 145.54 32.895H140.128C139.831 32.895 139.468 32.961 139.468 33.555V54.84C139.468 55.137 139.534 55.5 140.128 55.5H143.296C143.89 55.5 143.956 55.137 143.956 54.84V46.458ZM169.777 32.895C169.183 32.895 169.117 33.159 168.919 33.588L164.761 42.564C164.266 43.653 163.111 46.359 162.583 47.679H162.451C162.517 43.917 162.583 44.61 162.583 43.059V33.555C162.583 33.258 162.517 32.895 161.923 32.895H158.755C158.458 32.895 158.095 32.961 158.095 33.555V54.84C158.095 55.137 158.161 55.5 158.755 55.5H161.923C162.418 55.5 162.517 55.302 162.682 54.939L167.236 45.138C167.731 44.082 168.259 43.026 169.084 40.716H169.216C169.15 41.871 169.084 43.455 169.084 44.346V54.84C169.084 55.137 169.15 55.5 169.744 55.5H172.912C173.506 55.5 173.572 55.137 173.572 54.84V33.555C173.572 33.258 173.506 32.895 172.912 32.895H169.777ZM181.408 44.973C181.408 45.27 181.474 45.633 182.068 45.633H183.025C183.784 45.633 184.675 45.666 185.434 46.128C186.127 46.557 186.787 47.415 186.787 49.098C186.787 49.758 186.655 50.616 186.028 51.342C185.203 52.299 184.114 52.497 182.992 52.497C181.309 52.497 180.187 52.002 179.626 51.672C179.263 51.474 179.032 51.276 178.801 51.276C178.537 51.276 178.471 51.441 178.372 51.606L177.349 53.454C177.217 53.685 177.184 53.817 177.184 53.949C177.184 54.18 177.448 54.411 177.58 54.51C178.735 55.467 180.979 56.061 183.223 56.061C189.196 56.061 191.275 52.695 191.275 49.098C191.275 46.029 189.757 44.016 187.216 43.521C188.074 43.191 190.549 41.97 190.549 38.34C190.549 34.512 188.074 32.334 184.081 32.334C181.87 32.334 180.121 32.994 178.834 33.819C178.438 34.05 177.976 34.413 177.976 34.842C177.976 35.04 178.042 35.139 178.141 35.271L179.263 36.954C179.428 37.185 179.56 37.284 179.692 37.284C179.857 37.284 180.055 37.152 180.319 36.954C181.606 36.03 182.662 35.898 183.256 35.898C186.127 35.898 186.292 38.241 186.292 38.901C186.292 39.462 186.292 42.069 182.761 42.069H182.068C181.474 42.069 181.408 42.432 181.408 42.729V44.973ZM200.513 41.97V33.555C200.513 33.258 200.447 32.895 199.853 32.895H196.685C196.388 32.895 196.025 32.961 196.025 33.555V54.84C196.025 55.137 196.091 55.5 196.685 55.5H202.79C205.661 55.5 207.311 54.708 208.235 53.982C210.083 52.53 210.347 50.385 210.347 48.801C210.347 46.821 209.885 44.643 207.938 43.224C206.255 42.003 204.242 41.97 202.823 41.97H200.513ZM200.513 51.936V45.534H201.734C203.054 45.534 205.859 45.534 205.859 48.735C205.859 51.474 203.912 51.936 201.998 51.936H200.513ZM216.65 55.5C217.244 55.5 217.31 55.137 217.31 54.84V33.555C217.31 32.961 216.947 32.895 216.65 32.895H213.482C212.888 32.895 212.822 33.258 212.822 33.555V54.84C212.822 55.137 212.888 55.5 213.482 55.5H216.65Z" fill="#FCE7A7"/>
</g>
<rect x="3" y="3" width="330" height="81" rx="40.5" stroke="url(#paint1_linear_672_5847)" stroke-width="5" stroke-linecap="round" stroke-linejoin="round" stroke-dasharray="1 12"/>
</g>
<defs>
<filter id="filter0_i_672_5847" x="0.5" y="0.5" width="337" height="91" filterUnits="userSpaceOnUse" color-interpolation-filters="sRGB">
<feFlood flood-opacity="0" result="BackgroundImageFix"/>
<feBlend mode="normal" in="SourceGraphic" in2="BackgroundImageFix" result="shape"/>
<feColorMatrix in="SourceAlpha" type="matrix" values="0 0 0 0 0 0 0 0 0 0 0 0 0 0 0 0 0 0 127 0" result="hardAlpha"/>
<feOffset dx="2" dy="5"/>
<feGaussianBlur stdDeviation="3"/>
<feComposite in2="hardAlpha" operator="arithmetic" k2="-1" k3="1"/>
<feColorMatrix type="matrix" values="0 0 0 0 1 0 0 0 0 0.961831 0 0 0 0 0.779167 0 0 0 1 0"/>
<feBlend mode="normal" in2="shape" result="effect1_innerShadow_672_5847"/>
</filter>
<filter id="filter1_d_672_5847" x="117.682" y="32.334" width="100.629" height="26.7271" filterUnits="userSpaceOnUse" color-interpolation-filters="sRGB">
<feFlood flood-opacity="0" result="BackgroundImageFix"/>
<feColorMatrix in="SourceAlpha" type="matrix" values="0 0 0 0 0 0 0 0 0 0 0 0 0 0 0 0 0 0 127 0" result="hardAlpha"/>
<feOffset dy="2"/>
<feGaussianBlur stdDeviation="0.5"/>
<feComposite in2="hardAlpha" operator="out"/>
<feColorMatrix type="matrix" values="0 0 0 0 0 0 0 0 0 0 0 0 0 0 0 0 0 0 0.1 0"/>
<feBlend mode="normal" in2="BackgroundImageFix" result="effect1_dropShadow_672_5847"/>
<feBlend mode="normal" in="SourceGraphic" in2="effect1_dropShadow_672_5847" result="shape"/>
</filter>
<linearGradient id="paint0_linear_672_5847" x1="1.85018" y1="42.7637" x2="333" y2="42.7636" gradientUnits="userSpaceOnUse">
<stop stop-color="#4A0008"/>
<stop offset="0.270733" stop-color="#790207"/>
<stop offset="0.518223" stop-color="#BF0604"/>
<stop offset="0.739583" stop-color="#7E0307"/>
<stop offset="1" stop-color="#4A0008"/>
</linearGradient>
<linearGradient id="paint1_linear_672_5847" x1="168" y1="3" x2="168" y2="84" gradientUnits="userSpaceOnUse">
<stop stop-color="#FFEB5E"/>
<stop offset="1" stop-color="#F9F3C9"/>
</linearGradient>
</defs>
</svg>
