<svg width="336" height="87" viewBox="0 0 336 87" fill="none" xmlns="http://www.w3.org/2000/svg">
<g filter="url(#filter0_i_672_5673)">
<rect x="3" y="3" width="330" height="81" rx="40.5" fill="url(#paint0_linear_672_5673)"/>
<g filter="url(#filter1_d_672_5673)">
<path d="M120.453 37.305H126.753V56.8C126.753 57.115 126.823 57.5 127.453 57.5H130.813C131.128 57.5 131.513 57.43 131.513 56.8V34.225C131.513 33.91 131.443 33.525 130.813 33.525H116.393C116.078 33.525 115.693 33.595 115.693 34.225V56.8C115.693 57.115 115.763 57.5 116.393 57.5H119.753C120.383 57.5 120.453 57.115 120.453 56.8V37.305ZM142.499 37.2H144.039C145.369 37.2 147.609 37.235 147.609 40.455C147.609 43.85 145.614 44.13 143.584 44.13H142.499V37.2ZM142.499 47.91H144.354C149.324 47.91 152.369 44.83 152.369 40.21C152.369 36.815 150.864 35.24 149.534 34.505C147.924 33.595 145.754 33.525 144.179 33.525H138.439C138.124 33.525 137.739 33.595 137.739 34.225V56.8C137.739 57.115 137.809 57.5 138.439 57.5H141.799C142.429 57.5 142.499 57.115 142.499 56.8V47.91ZM169.884 33.525C169.254 33.525 169.184 33.805 168.974 34.26L164.564 43.78C164.039 44.935 162.814 47.805 162.254 49.205H162.114C162.184 45.215 162.254 45.95 162.254 44.305V34.225C162.254 33.91 162.184 33.525 161.554 33.525H158.194C157.879 33.525 157.494 33.595 157.494 34.225V56.8C157.494 57.115 157.564 57.5 158.194 57.5H161.554C162.079 57.5 162.184 57.29 162.359 56.905L167.189 46.51C167.714 45.39 168.274 44.27 169.149 41.82H169.289C169.219 43.045 169.149 44.725 169.149 45.67V56.8C169.149 57.115 169.219 57.5 169.849 57.5H173.209C173.839 57.5 173.909 57.115 173.909 56.8V34.225C173.909 33.91 173.839 33.525 173.209 33.525H169.884ZM182.221 46.335C182.221 46.65 182.291 47.035 182.921 47.035H183.936C184.741 47.035 185.686 47.07 186.491 47.56C187.226 48.015 187.926 48.925 187.926 50.71C187.926 51.41 187.786 52.32 187.121 53.09C186.246 54.105 185.091 54.315 183.901 54.315C182.116 54.315 180.926 53.79 180.331 53.44C179.946 53.23 179.701 53.02 179.456 53.02C179.176 53.02 179.106 53.195 179.001 53.37L177.916 55.33C177.776 55.575 177.741 55.715 177.741 55.855C177.741 56.1 178.021 56.345 178.161 56.45C179.386 57.465 181.766 58.095 184.146 58.095C190.481 58.095 192.686 54.525 192.686 50.71C192.686 47.455 191.076 45.32 188.381 44.795C189.291 44.445 191.916 43.15 191.916 39.3C191.916 35.24 189.291 32.93 185.056 32.93C182.711 32.93 180.856 33.63 179.491 34.505C179.071 34.75 178.581 35.135 178.581 35.59C178.581 35.8 178.651 35.905 178.756 36.045L179.946 37.83C180.121 38.075 180.261 38.18 180.401 38.18C180.576 38.18 180.786 38.04 181.066 37.83C182.431 36.85 183.551 36.71 184.181 36.71C187.226 36.71 187.401 39.195 187.401 39.895C187.401 40.49 187.401 43.255 183.656 43.255H182.921C182.291 43.255 182.221 43.64 182.221 43.955V46.335ZM202.484 43.15V34.225C202.484 33.91 202.414 33.525 201.784 33.525H198.424C198.109 33.525 197.724 33.595 197.724 34.225V56.8C197.724 57.115 197.794 57.5 198.424 57.5H204.899C207.944 57.5 209.694 56.66 210.674 55.89C212.634 54.35 212.914 52.075 212.914 50.395C212.914 48.295 212.424 45.985 210.359 44.48C208.574 43.185 206.439 43.15 204.934 43.15H202.484ZM202.484 53.72V46.93H203.779C205.179 46.93 208.154 46.93 208.154 50.325C208.154 53.23 206.089 53.72 204.059 53.72H202.484ZM219.599 57.5C220.229 57.5 220.299 57.115 220.299 56.8V34.225C220.299 33.595 219.914 33.525 219.599 33.525H216.239C215.609 33.525 215.539 33.91 215.539 34.225V56.8C215.539 57.115 215.609 57.5 216.239 57.5H219.599Z" fill="#FCE7A7"/>
</g>
<rect x="3" y="3" width="330" height="81" rx="40.5" stroke="url(#paint1_linear_672_5673)" stroke-width="5" stroke-linecap="round" stroke-linejoin="round" stroke-dasharray="1 12"/>
</g>
<defs>
<filter id="filter0_i_672_5673" x="0.5" y="0.5" width="337" height="91" filterUnits="userSpaceOnUse" color-interpolation-filters="sRGB">
<feFlood flood-opacity="0" result="BackgroundImageFix"/>
<feBlend mode="normal" in="SourceGraphic" in2="BackgroundImageFix" result="shape"/>
<feColorMatrix in="SourceAlpha" type="matrix" values="0 0 0 0 0 0 0 0 0 0 0 0 0 0 0 0 0 0 127 0" result="hardAlpha"/>
<feOffset dx="2" dy="5"/>
<feGaussianBlur stdDeviation="3"/>
<feComposite in2="hardAlpha" operator="arithmetic" k2="-1" k3="1"/>
<feColorMatrix type="matrix" values="0 0 0 0 1 0 0 0 0 0.961831 0 0 0 0 0.779167 0 0 0 1 0"/>
<feBlend mode="normal" in2="shape" result="effect1_innerShadow_672_5673"/>
</filter>
<filter id="filter1_d_672_5673" x="114.693" y="32.93" width="106.605" height="28.165" filterUnits="userSpaceOnUse" color-interpolation-filters="sRGB">
<feFlood flood-opacity="0" result="BackgroundImageFix"/>
<feColorMatrix in="SourceAlpha" type="matrix" values="0 0 0 0 0 0 0 0 0 0 0 0 0 0 0 0 0 0 127 0" result="hardAlpha"/>
<feOffset dy="2"/>
<feGaussianBlur stdDeviation="0.5"/>
<feComposite in2="hardAlpha" operator="out"/>
<feColorMatrix type="matrix" values="0 0 0 0 0 0 0 0 0 0 0 0 0 0 0 0 0 0 0.1 0"/>
<feBlend mode="normal" in2="BackgroundImageFix" result="effect1_dropShadow_672_5673"/>
<feBlend mode="normal" in="SourceGraphic" in2="effect1_dropShadow_672_5673" result="shape"/>
</filter>
<linearGradient id="paint0_linear_672_5673" x1="1.85018" y1="42.7637" x2="333" y2="42.7636" gradientUnits="userSpaceOnUse">
<stop stop-color="#4A0008"/>
<stop offset="0.270733" stop-color="#790207"/>
<stop offset="0.518223" stop-color="#BF0604"/>
<stop offset="0.739583" stop-color="#7E0307"/>
<stop offset="1" stop-color="#4A0008"/>
</linearGradient>
<linearGradient id="paint1_linear_672_5673" x1="168" y1="3" x2="168" y2="84" gradientUnits="userSpaceOnUse">
<stop stop-color="#FFEB5E"/>
<stop offset="1" stop-color="#F9F3C9"/>
</linearGradient>
</defs>
</svg>
