<svg width="25" height="25" viewBox="0 0 25 25" fill="none" xmlns="http://www.w3.org/2000/svg">
<path fill-rule="evenodd" clip-rule="evenodd" d="M15.5169 9.63022C15.5522 9.845 15.4312 10.2659 15.3736 10.4723C15.3582 10.5443 15.3419 10.6147 15.3219 10.6816C15.3138 10.7083 15.3026 10.7433 15.2922 10.7647C15.2443 10.8639 15.2726 10.8062 15.2418 10.8417C15.255 10.9777 14.9894 11.5763 14.9256 11.6944C14.7816 12.0214 14.4763 12.5247 14.257 12.8117C14.221 12.8588 14.237 12.8469 14.1953 12.8899C14.1562 12.9301 14.1557 12.9251 14.1266 12.9467C14.1081 13.0761 14.1467 12.9488 14.0729 13.0432C14.0548 13.0665 14.033 13.0942 14.0108 13.1223L13.2682 13.8796C13.2032 13.9332 13.0256 14.1089 12.9467 14.1266C12.9242 14.1569 12.9196 14.1701 12.8757 14.2099L12.3488 14.5715C12.1774 14.6836 11.8981 14.8392 11.6944 14.9256C11.5593 14.9986 11.0166 15.2418 10.8583 15.2391C10.8068 15.2872 10.8662 15.2527 10.7655 15.295C10.7521 15.3007 10.6818 15.3213 10.6597 15.3274C10.5709 15.3518 10.5039 15.3656 10.4168 15.3829C10.2729 15.4493 9.8005 15.5409 9.63022 15.5169C9.37561 15.7132 7.25161 15.5844 7.04294 15.3751C6.92183 15.3804 6.72994 15.3279 6.63878 15.2732C6.49 15.2391 6.3265 15.1814 6.18106 15.1258L5.80328 14.9336C5.66661 14.9299 5.01422 14.547 4.96383 14.468C4.71194 14.402 4.03156 13.7636 3.86428 13.6086C3.71011 13.4659 3.07694 12.7626 2.9965 12.5279C2.92328 12.4992 2.85061 12.3286 2.79406 12.2339C2.73206 12.1302 2.6745 12.0265 2.61417 11.9128C2.4895 11.6781 2.40656 11.4722 2.29917 11.2222L2.16872 10.8335C2.06883 10.6854 1.83561 9.52517 1.872 9.29694C1.79856 9.19239 1.82689 8.90167 1.82717 8.75L1.83333 8.33333C1.87911 7.76428 1.97261 7.16683 2.13561 6.66667L2.46656 5.80556L2.70533 5.38661C2.73161 5.19706 3.22061 4.56483 3.37028 4.37072C3.71589 3.92261 4.99172 2.76011 5.38661 2.70533L5.46983 2.63528C5.49911 2.61544 5.52306 2.6045 5.55733 2.58589C5.64917 2.53606 5.67206 2.52311 5.77767 2.4965L5.95689 2.40294C6.12417 2.3325 6.45961 2.1735 6.61389 2.17756C6.803 1.99794 8.17556 1.84294 8.36094 1.83544L8.75 1.82717C8.90167 1.82689 9.19239 1.79856 9.29694 1.872C9.5235 1.83583 10.6878 2.0705 10.8335 2.16872C10.9728 2.19306 11.1899 2.24772 11.275 2.34422C11.4362 2.3465 12.49 2.89394 12.5279 2.999C12.9706 3.146 13.9333 4.17339 14.2838 4.66106C14.3516 4.75539 14.4413 4.85289 14.468 4.96383C14.546 5.01361 14.9285 5.65983 14.9336 5.80328C14.9661 5.83067 14.9509 5.81472 14.9782 5.85361L15.2732 6.63878C15.3279 6.72994 15.3804 6.92183 15.3751 7.04294C15.5674 7.23472 15.6994 9.39344 15.5169 9.63022ZM4.99739 0.812056C4.78433 0.944111 4.37789 1.11711 4.04 1.34561C3.94589 1.40922 3.84822 1.50061 3.74583 1.51394C3.70189 1.59522 3.52478 1.70806 3.44028 1.77328C2.73667 2.31556 2.60078 2.47611 2.01422 3.1255C1.93783 3.21017 1.85333 3.33683 1.77333 3.44033C1.713 3.51844 1.5915 3.70372 1.51394 3.74078C1.50406 3.80872 1.51222 3.77433 1.47789 3.8395L0.803889 5.00017C0.740444 5.2235 0.610778 5.48433 0.523333 5.71617C0.340667 6.20044 0.202333 6.7465 0.113667 7.25494C0.0771667 7.46422 0.0671667 7.93328 0 8.08656V9.2605C0.0353333 9.36289 0.103111 10.1092 0.136778 10.3048C0.195444 10.6464 0.271833 10.9298 0.363833 11.2466C0.452722 11.5526 0.5605 11.8479 0.682444 12.1233C0.758778 12.2958 1.03228 12.8212 1.04467 12.9194C1.13767 13 1.22083 13.1864 1.28878 13.2954C1.37128 13.4276 1.46778 13.5439 1.52878 13.6943C1.57633 13.7127 1.55339 13.7062 1.59633 13.7624C1.62394 13.7984 1.63533 13.8163 1.65567 13.8443C2.02072 14.3484 2.14917 14.4656 2.5575 14.8872C2.63194 14.9641 2.76522 15.1139 2.84794 15.1793L3.75839 15.9208L4.18911 16.1708C4.26161 16.2162 4.31656 16.2549 4.396 16.2978C4.497 16.3525 4.51706 16.3408 4.59161 16.4248C4.62 16.4283 5.33328 16.7523 5.41406 16.7991C5.47161 16.814 6.24161 17.0659 6.30278 17.122C6.41183 17.1157 6.64794 17.1872 6.75017 17.2243C6.86994 17.2397 7.05078 17.2546 7.13022 17.3164C7.30911 17.3011 7.82661 17.3963 8.05744 17.4143C8.69778 17.4641 9.32161 17.4339 9.95506 17.3506C10.1578 17.3239 10.6938 17.1972 10.8207 17.2083C10.8984 17.1211 11.0918 17.1141 11.2108 17.0716L12.0707 16.7929L12.8498 16.4144C12.9036 16.3562 13.2124 16.1956 13.3203 16.126C13.3998 16.0747 13.4849 16.0282 13.5596 15.9758C13.6329 15.9244 13.6962 15.8696 13.7766 15.8302L13.8249 15.8097C13.8538 15.7572 14.077 15.5882 14.1389 15.5553C14.2738 15.641 14.5402 15.9429 14.6728 16.0772C14.9365 16.3443 16.1978 17.5619 16.2473 17.6752C15.92 17.9341 15.9203 18.3473 16.0865 18.7792L20.7277 23.439C20.9939 23.7052 21.2416 23.948 21.5056 24.2168C21.6477 24.3616 22.2036 24.8739 22.2655 25H22.7387C22.8113 24.8762 23.6826 24.0308 23.8567 23.8567C24.0328 23.6806 24.8749 22.8113 25 22.7414V22.4657L24.6582 22.1018L24.5648 22.0084L24.2416 21.6852L24.1481 21.5917L23.8249 21.2686L23.7315 21.1751L23.4082 20.8518L23.3148 20.7584L22.9916 20.4352L22.8981 20.3418L22.5749 20.0186L22.4815 19.9251L22.1582 19.6018L22.0648 19.5084L21.7416 19.1852L21.6481 19.0918L21.3249 18.7686L21.2315 18.6751L20.9082 18.3519L20.8148 18.2584L20.4916 17.9352L20.3981 17.8418L20.0749 17.5185L19.9815 17.4251L19.6582 17.1019L19.5648 17.0084L19.2416 16.6852L19.1481 16.5918L18.8088 16.2778C18.7197 16.2529 18.7593 16.2607 18.7422 16.2335C18.5948 16.1557 18.5248 16.1449 18.3888 16.0842C18.1772 16.0663 18.1117 16.0744 17.9141 16.1176C17.7262 16.2081 17.6898 16.243 17.5556 16.3432C17.5084 16.3139 17.5146 16.3314 17.4666 16.2625C17.3699 16.2067 17.1266 15.9634 17.0708 15.8668C17.0354 15.8742 17.0424 15.8813 17.0499 15.8458C16.9532 15.7901 16.71 15.5467 16.6542 15.4501C16.6188 15.4576 16.6257 15.4646 16.6333 15.4292C16.5291 15.3691 15.8819 14.7227 15.8208 14.6167L15.6346 14.4292C15.5557 14.3848 15.5026 14.3379 15.4612 14.25L15.8302 13.7766C15.8726 13.6901 15.9292 13.6272 15.9862 13.5423C16.0361 13.4678 16.0861 13.3833 16.1369 13.3036C16.2022 13.2012 16.3538 12.9058 16.4144 12.8498C16.4485 12.715 16.5385 12.5599 16.6033 12.4377C16.6594 12.3318 16.7006 12.1427 16.7948 12.0707C16.8032 11.8957 17.0187 11.4822 17.0716 11.2108C17.1034 11.1216 17.1145 11.0766 17.1337 10.9952L17.1773 10.8658C17.1797 10.8607 17.1877 10.8571 17.1896 10.8454C17.1915 10.8336 17.1977 10.8314 17.2026 10.8251C17.193 10.7296 17.3263 10.1388 17.3507 9.95506C17.3918 9.64517 17.4191 9.35344 17.4312 9.02889C17.4442 8.68122 17.4404 8.37189 17.4122 8.03256C17.3932 7.80522 17.3024 7.313 17.3164 7.13022C17.2536 7.04939 17.2144 6.76244 17.1966 6.63906C17.1633 6.55833 17.1162 6.39989 17.122 6.30278C17.0948 6.27283 17.1105 6.29683 17.0861 6.24889L16.956 5.84911C16.9069 5.704 16.8349 5.55906 16.7991 5.41633C16.7397 5.29683 16.4447 4.687 16.4337 4.59594C16.3425 4.53606 16.2302 4.28867 16.1701 4.18983C16.1238 4.11383 16.0946 4.05461 16.0456 3.98217C15.9851 3.89256 15.9529 3.85867 15.9208 3.75839C15.8612 3.73139 15.7412 3.53667 15.6816 3.45828C15.0547 2.63533 14.5206 2.17256 13.7226 1.56206C13.5949 1.50456 13.4427 1.38256 13.3125 1.2995C13.1811 1.21567 13.0425 1.15194 12.9181 1.05872C12.6644 0.960667 12.386 0.789833 12.1067 0.671833C11.5459 0.434944 10.8851 0.2355 10.2808 0.132833C10.0867 0.0998889 9.35983 0.0342778 9.2605 0H8.08656C7.92717 0.0698333 7.45011 0.0774444 7.23167 0.117278C6.95361 0.167944 6.6915 0.218944 6.43156 0.293111C5.69772 0.502444 5.55456 0.619222 4.99739 0.812056Z" fill="#72040D"/>
</svg>
