<svg width="119" height="119" viewBox="0 0 119 119" fill="none" xmlns="http://www.w3.org/2000/svg">
<circle cx="59.5" cy="59.5" r="56.5" fill="#361A0E" fill-opacity="0.52" stroke="url(#paint0_linear_1377_11521)" stroke-width="5"/>
<path fill-rule="evenodd" clip-rule="evenodd" d="M56.6655 60.7474C66.1799 60.5659 88.1687 60.7221 91.5202 60.8108V82.7824L52.1938 82.7996C52.2126 79.5538 51.8229 63.6423 52.2907 61.1424L56.6655 60.7474ZM48.7236 70.4475C46.5123 71.2652 48.1002 74.1627 49.8855 73.1935C51.3432 72.4022 50.5802 69.7609 48.7236 70.4475ZM37.1719 79.8203C37.4731 81.5835 40.5684 81.2076 40.1035 79.0881C39.7404 77.432 36.784 77.5487 37.1719 79.8203ZM56.6655 59.2081L50.9636 59.1948C48.225 59.1801 45.9259 59.5219 45.9393 63.4027C45.95 66.5211 45.9458 69.6398 45.9458 72.7582C45.9458 84.015 44.8892 84.4839 52.864 84.4839C65.1588 84.4839 77.4537 84.4838 89.7485 84.4839C92.8813 84.4839 95.9353 85.0736 97.268 82.6032C97.944 81.3503 97.6032 66.7301 97.6076 64.169C97.6124 61.4234 97.3481 59.126 93.3642 59.1736C81.1387 59.3197 68.7711 58.921 56.6655 59.2081ZM54.1397 39.7495C62.1882 39.2681 66.3763 43.4782 66.6258 51.2562L64.9265 51.2706L67.9559 56.6843L71.0488 51.2736L69.3157 51.1892C69.0664 42.0043 63.5682 36.4604 54.1318 37.0233L54.1397 39.7495ZM37.8345 77.8451C40.1064 76.5877 41.5266 80.2537 39.5016 81.1182C37.1699 82.1135 35.6833 79.036 37.8345 77.8451ZM38.6044 34.2817C37.9417 34.282 36.8556 34.4961 36.5143 34.0116C37.1439 33.7696 40.1926 33.7301 40.8182 34.0116C40.5405 34.5285 39.2358 34.2813 38.6044 34.2817ZM27.2989 36.6172L49.8768 36.631L49.8895 58.4131L51.2046 58.4711C51.5167 52.2087 51.2346 41.9887 51.2562 34.9632C51.2638 32.4926 50.0675 30.8755 47.7396 30.8356C42.576 30.7471 37.3151 30.842 32.1402 30.842C25.3149 30.842 26.0271 31.9 26.0271 40.1195C26.0271 52.7912 25.8389 66.5013 26.0203 79.066C26.0564 81.5623 27.7362 82.7256 30.2349 82.716C35.0589 82.6975 40.9228 83.0192 45.6085 82.6715C45.073 80.7762 45.3103 78.9016 45.2581 76.7389L27.2929 76.7419L27.2989 36.6172ZM94.3115 69.7131C94.7872 70.0569 94.5728 71.1511 94.5725 71.8038C94.5722 72.4425 94.811 73.7457 94.3115 74.0359C94.0234 73.4048 94.0569 70.3312 94.3115 69.7131ZM47.3519 72.1855C46.9771 69.5432 50.8055 69.2402 50.9953 71.6145C51.0842 72.7267 50.3786 73.5913 49.4142 73.6871C48.3674 73.7911 47.4796 73.0872 47.3519 72.1855Z" fill="#FCE7A7"/>
<defs>
<linearGradient id="paint0_linear_1377_11521" x1="59.5" y1="3" x2="59.5" y2="116" gradientUnits="userSpaceOnUse">
<stop stop-color="#F6B646"/>
<stop offset="1" stop-color="#FCE7A7"/>
</linearGradient>
</defs>
</svg>
